<?xml version="1.0" encoding="utf-8"?>
<!-- Generator: Adobe Illustrator 24.0.2, SVG Export Plug-In . SVG Version: 6.00 Build 0)  -->
<svg version="1.1" id="Layer_1" xmlns="http://www.w3.org/2000/svg" xmlns:xlink="http://www.w3.org/1999/xlink" x="0px" y="0px"
	 viewBox="0 0 216 144" style="enable-background:new 0 0 216 144;" xml:space="preserve">
<style type="text/css">
	.st0{fill:#D7172F;}
	.st1{clip-path:url(#SVGID_2_);fill:url(#SVGID_3_);}
	.st2{clip-path:url(#SVGID_5_);fill:url(#SVGID_6_);}
	.st3{clip-path:url(#SVGID_8_);fill:url(#SVGID_9_);}
	.st4{clip-path:url(#SVGID_11_);fill:url(#SVGID_12_);}
	.st5{clip-path:url(#SVGID_14_);fill:url(#SVGID_15_);}
	.st6{clip-path:url(#SVGID_17_);fill:url(#SVGID_18_);}
	.st7{clip-path:url(#SVGID_20_);fill:url(#SVGID_21_);}
	.st8{clip-path:url(#SVGID_23_);fill:url(#SVGID_24_);}
</style>
<g>
	<g>
		<path class="st0" d="M134.75,118.2c-4.39-0.1-8.85,0-8.89,0c-5.36,0-9.72,3.72-9.72,8.28c0,4.64,4.36,8.41,9.72,8.41
			c0.04,0,4.49,0.09,8.89,0c5.37,0,9.74-3.77,9.74-8.41C144.49,121.96,140.21,118.33,134.75,118.2 M131.74,132.6
			c0,0-1.61,0.04-2.81,0c-3.09,0-6.42-2.33-6.42-6.09c0-3.73,3.26-5.96,6.4-5.96c0.04-0.01,1.57-0.07,2.83,0
			c3.15,0,6.42,2.23,6.42,5.96C138.15,130.27,134.82,132.6,131.74,132.6"/>
		<path class="st0" d="M191.79,134.68h5.46v-7.95c0-4.65-4.16-8.29-9.47-8.29h-13.82c-0.23,0-0.75,0.06-0.75,0.61v15.02
			c0,0.4,0.29,0.62,0.58,0.62h5.78v-12.57c0-0.55,0.42-0.82,0.83-0.82h6.36c1.77,0,4.37,1.58,4.37,5.03v7.73
			C191.12,134.05,191.14,134.68,191.79,134.68"/>
		<path class="st0" d="M76.46,121.66h8.53v-2.59c0-0.36-0.26-0.64-0.62-0.64H60.6c-0.39,0-0.62,0.32-0.62,0.63v2.6h5.68
			c2.13,0,3.56,1.83,3.56,3.53v8.87c0,0.29,0.26,0.62,0.62,0.62h5.77v-12.19C75.62,122.03,75.99,121.66,76.46,121.66"/>
		<path class="st0" d="M50.18,134.06c0,0.37,0.33,0.62,0.63,0.62h5.76v-15.63c0-0.34-0.3-0.62-0.63-0.62H50.8
			c-0.34,0-0.62,0.28-0.62,0.62V134.06z"/>
		<path class="st0" d="M107.17,134.68h6.34c-0.17-4.21-4.71-5.94-4.71-5.94h0c2.85-0.66,4.69-2.7,4.69-5.07
			c0-2.52-2.46-5.23-6.44-5.23H91.72c-1.86,0-3.31,1.46-3.31,3.32v12.31c0,0.36,0.25,0.62,0.61,0.62h5.76v-5.76h5.43
			C105.03,128.92,107.01,132.41,107.17,134.68 M94.76,126.04v-3.25c0-0.89,0.63-1.5,1.53-1.5h8.48c1.28,0,2.37,1.08,2.37,2.36
			c0,1.32-1.08,2.39-2.4,2.39H94.76z"/>
		<path class="st0" d="M40.49,123.89h6.2c-1.34-3.4-5.24-5.8-9.34-5.81c-2.25,0-6.26-0.13-8.88,0c-3.06,0.15-4.98,0.85-6.87,2.49
			c-1.84,1.6-2.86,3.72-2.86,5.97c0,4.65,4.13,8.29,9.61,8.48c3.76,0.13,4.16,0.14,9.08-0.01c4.57-0.14,7.84-2.2,9.25-5.81h-6.2
			c-0.24,0-0.42,0.11-0.53,0.31c-1.12,1.94-3.23,3.09-5.54,3.13c-0.81,0.01-1.89,0.01-2.88,0.01c-3.23-0.03-6.42-2.3-6.42-6.12
			c0-3.76,3.28-6.05,6.43-6.05c0.36-0.01,1.63-0.06,2.8,0c2.3,0,4.51,1.22,5.62,3.11C40.01,123.66,40.16,123.89,40.49,123.89"/>
		<path class="st0" d="M169.79,131.76h-15.03c-0.51,0-0.86-0.34-0.86-0.82v-3.09h13.02V125h-13.03v-2.83c0-0.01,0-0.82,0.97-0.82
			h14.92v-2.28c0-0.67-0.71-0.64-0.73-0.64h-20.9c-0.06,0-0.64,0.02-0.64,0.64v12.3c0,1.62,1.25,3.3,3.34,3.3h18.3
			c0.48,0,0.63-0.45,0.63-0.61V131.76z"/>
		<path class="st0" d="M165.11,112.55c-0.61-0.38-1.35-0.56-2.21-0.56c-0.86,0-1.62,0.2-2.21,0.56c-0.58,0.37-1.04,0.85-1.74,0.85
			c-0.69,0-1.1-0.49-1.73-0.85c-0.62-0.36-1.35-0.56-2.21-0.56c-0.86,0-1.6,0.19-2.21,0.56c-0.61,0.37-0.92,0.83-0.92,1.35
			c0,0.53,0.31,0.98,0.92,1.35c0.61,0.37,1.35,0.56,2.21,0.56c0.86,0,1.61-0.18,2.16-0.52c0.55-0.34,1.15-0.89,1.77-0.89
			c0.63,0,1.19,0.5,1.74,0.85c0.56,0.35,1.35,0.56,2.21,0.56c0.89,0,1.63-0.18,2.23-0.56c0.6-0.37,0.9-0.82,0.9-1.35
			C166.02,113.38,165.72,112.93,165.11,112.55"/>
		<path d="M108,34.04c13.33,0,45.51,27.63,49.55,31.14c0.27,0.24,0.65,0.54,1.35,0.46c1.01-0.12,1.04-1.65,1.04-1.65
			s0.23-3.51,0.23-7.05c0-4.45-3.48-8.35-3.48-8.35S120.63,8.88,108,8.88c-12.63,0-48.69,39.72-48.69,39.72s-3.48,3.89-3.48,8.35
			c0,3.54,0.24,7.05,0.24,7.05s0.02,1.53,1.03,1.65c0.7,0.08,1.07-0.22,1.35-0.46C62.49,61.67,94.67,34.04,108,34.04"/>
		<path d="M108,70.59c13.33,0,45.51,27.63,49.55,31.14c0.27,0.23,0.65,0.54,1.35,0.46c1.01-0.12,1.04-1.65,1.04-1.65
			s0.23-3.51,0.23-7.04c0-4.45-3.48-8.35-3.48-8.35S120.63,45.42,108,45.42c-12.63,0-48.69,39.73-48.69,39.73s-3.48,3.89-3.48,8.35
			c0,3.53,0.24,7.04,0.24,7.04s0.02,1.54,1.03,1.65c0.7,0.08,1.07-0.23,1.35-0.46C62.49,98.22,94.67,70.59,108,70.59"/>
	</g>
	<g>
		<defs>
			<path id="SVGID_1_" d="M99.71,31.25c-12.41,0.71-27.74,10.94-28.3,11.34c-7.31,6.02-12.95,11.67-14.88,13.66
				c-0.11,2.42,0.21,7.67,0.21,7.7c0,0,0.03,1.89,1.39,0.68l1.35-1.2c14.54-13.3,29.48-24.95,41.44-30.13
				c0.85-0.37,2.25-0.62,1.52-1.53c-0.33-0.42-1.35-0.54-2.2-0.54C100.06,31.23,99.88,31.24,99.71,31.25"/>
		</defs>
		<clipPath id="SVGID_2_">
			<use xlink:href="#SVGID_1_"  style="overflow:visible;"/>
		</clipPath>
		
			<linearGradient id="SVGID_3_" gradientUnits="userSpaceOnUse" x1="3595.4482" y1="4453.2798" x2="3597.5996" y2="4453.2798" gradientTransform="matrix(47.7454 0 0 -47.7454 -171609.5938 212672.1719)">
			<stop  offset="0" style="stop-color:#B1ADB2"/>
			<stop  offset="0.0949" style="stop-color:#A9A4AA"/>
			<stop  offset="0.2566" style="stop-color:#948F94"/>
			<stop  offset="0.4645" style="stop-color:#746D73"/>
			<stop  offset="0.5" style="stop-color:#6D676C"/>
			<stop  offset="0.651" style="stop-color:#938D93"/>
			<stop  offset="0.8052" style="stop-color:#B6B2B7"/>
			<stop  offset="0.9249" style="stop-color:#CDCACD"/>
			<stop  offset="0.9944" style="stop-color:#D6D2D6"/>
			<stop  offset="1" style="stop-color:#D6D2D6"/>
		</linearGradient>
		<rect x="56.42" y="31.23" class="st1" width="46.74" height="34.61"/>
	</g>
	<g>
		<defs>
			<path id="SVGID_4_" d="M113.56,31.77c-0.73,0.91,0.67,1.16,1.52,1.53c11.97,5.18,26.9,16.83,41.45,30.13l1.35,1.2
				c1.35,1.21,1.39-0.68,1.39-0.68c0-0.03,0.32-5.28,0.21-7.7c-1.93-1.99-7.58-7.64-14.88-13.66c-0.57-0.41-15.9-10.63-28.31-11.34
				c-0.16-0.01-0.34-0.02-0.53-0.02C114.91,31.23,113.89,31.35,113.56,31.77"/>
		</defs>
		<clipPath id="SVGID_5_">
			<use xlink:href="#SVGID_4_"  style="overflow:visible;"/>
		</clipPath>
		
			<linearGradient id="SVGID_6_" gradientUnits="userSpaceOnUse" x1="3595.449" y1="4453.2842" x2="3597.6003" y2="4453.2842" gradientTransform="matrix(47.7452 0 0 -47.7452 -171609.0156 212671.4844)">
			<stop  offset="0" style="stop-color:#B1ADB2"/>
			<stop  offset="0.0949" style="stop-color:#A9A4AA"/>
			<stop  offset="0.2566" style="stop-color:#948F94"/>
			<stop  offset="0.4645" style="stop-color:#746D73"/>
			<stop  offset="0.5" style="stop-color:#6D676C"/>
			<stop  offset="0.651" style="stop-color:#938D93"/>
			<stop  offset="0.8052" style="stop-color:#B6B2B7"/>
			<stop  offset="0.9249" style="stop-color:#CDCACD"/>
			<stop  offset="0.9944" style="stop-color:#D6D2D6"/>
			<stop  offset="1" style="stop-color:#D6D2D6"/>
		</linearGradient>
		<rect x="112.84" y="31.23" class="st2" width="46.74" height="34.61"/>
	</g>
	<g>
		<defs>
			<path id="SVGID_7_" d="M99.71,67.8c-12.41,0.71-27.74,10.94-28.3,11.35C64.1,85.16,58.46,90.81,56.53,92.8
				c-0.11,2.42,0.21,7.67,0.21,7.7c0,0,0.03,1.9,1.39,0.68l1.35-1.2c14.54-13.3,29.48-24.95,41.44-30.13
				c0.85-0.37,2.25-0.62,1.52-1.53c-0.33-0.42-1.35-0.54-2.2-0.54C100.05,67.79,99.88,67.79,99.71,67.8"/>
		</defs>
		<clipPath id="SVGID_8_">
			<use xlink:href="#SVGID_7_"  style="overflow:visible;"/>
		</clipPath>
		
			<linearGradient id="SVGID_9_" gradientUnits="userSpaceOnUse" x1="3595.4482" y1="4452.8706" x2="3597.5996" y2="4452.8706" gradientTransform="matrix(47.7454 0 0 -47.7454 -171609.5938 212689.1719)">
			<stop  offset="0" style="stop-color:#B1ADB2"/>
			<stop  offset="0.0949" style="stop-color:#A9A4AA"/>
			<stop  offset="0.2566" style="stop-color:#948F94"/>
			<stop  offset="0.4645" style="stop-color:#746D73"/>
			<stop  offset="0.5" style="stop-color:#6D676C"/>
			<stop  offset="0.651" style="stop-color:#938D93"/>
			<stop  offset="0.8052" style="stop-color:#B6B2B7"/>
			<stop  offset="0.9249" style="stop-color:#CDCACD"/>
			<stop  offset="0.9944" style="stop-color:#D6D2D6"/>
			<stop  offset="1" style="stop-color:#D6D2D6"/>
		</linearGradient>
		<rect x="56.42" y="67.79" class="st3" width="46.74" height="34.61"/>
	</g>
	<g>
		<defs>
			<path id="SVGID_10_" d="M113.56,68.32c-0.73,0.92,0.67,1.16,1.52,1.53c11.97,5.18,26.9,16.83,41.45,30.13l1.35,1.2
				c1.35,1.21,1.39-0.68,1.39-0.68c0-0.03,0.32-5.27,0.21-7.7c-1.93-1.99-7.58-7.64-14.88-13.65c-0.57-0.41-15.9-10.63-28.31-11.35
				c-0.16-0.01-0.34-0.01-0.52-0.01C114.92,67.79,113.9,67.9,113.56,68.32"/>
		</defs>
		<clipPath id="SVGID_11_">
			<use xlink:href="#SVGID_10_"  style="overflow:visible;"/>
		</clipPath>
		
			<linearGradient id="SVGID_12_" gradientUnits="userSpaceOnUse" x1="3595.449" y1="4452.875" x2="3597.6003" y2="4452.875" gradientTransform="matrix(47.7452 0 0 -47.7452 -171609.0156 212688.4844)">
			<stop  offset="0" style="stop-color:#B1ADB2"/>
			<stop  offset="0.0949" style="stop-color:#A9A4AA"/>
			<stop  offset="0.2566" style="stop-color:#948F94"/>
			<stop  offset="0.4645" style="stop-color:#746D73"/>
			<stop  offset="0.5" style="stop-color:#6D676C"/>
			<stop  offset="0.651" style="stop-color:#938D93"/>
			<stop  offset="0.8052" style="stop-color:#B6B2B7"/>
			<stop  offset="0.9249" style="stop-color:#CDCACD"/>
			<stop  offset="0.9944" style="stop-color:#D6D2D6"/>
			<stop  offset="1" style="stop-color:#D6D2D6"/>
		</linearGradient>
		<rect x="112.84" y="67.79" class="st4" width="46.74" height="34.61"/>
	</g>
	<g>
		<defs>
			<path id="SVGID_13_" d="M59.8,49.04c-0.04,0.04-2.95,3.36-3.27,7.21c1.93-1.99,7.57-7.64,14.88-13.66c0,0,2.2-1.85,5.51-4.34
				C84.25,32.73,97.2,24.09,108,24.09c10.8,0,23.75,8.64,31.08,14.16c3.31,2.49,5.52,4.34,5.52,4.34
				c7.3,6.02,12.94,11.67,14.88,13.66c-0.33-3.85-3.23-7.17-3.28-7.21c-0.44-0.49-36.02-39.51-48.2-39.51
				C95.82,9.54,60.24,48.55,59.8,49.04"/>
		</defs>
		<clipPath id="SVGID_14_">
			<use xlink:href="#SVGID_13_"  style="overflow:visible;"/>
		</clipPath>
		
			<linearGradient id="SVGID_15_" gradientUnits="userSpaceOnUse" x1="3595.1919" y1="4453.7319" x2="3597.3418" y2="4453.7319" gradientTransform="matrix(47.6016 0 0 -47.6016 -171080.3594 212037.6719)">
			<stop  offset="0" style="stop-color:#6D676C"/>
			<stop  offset="0.0268" style="stop-color:#7A747A"/>
			<stop  offset="0.1116" style="stop-color:#9F9A9F"/>
			<stop  offset="0.1958" style="stop-color:#BFBBC0"/>
			<stop  offset="0.2779" style="stop-color:#D9D6DA"/>
			<stop  offset="0.3573" style="stop-color:#ECEBEC"/>
			<stop  offset="0.4327" style="stop-color:#F8F8F9"/>
			<stop  offset="0.5" style="stop-color:#FFFFFF"/>
			<stop  offset="0.5631" style="stop-color:#F8F7F8"/>
			<stop  offset="0.6393" style="stop-color:#EBE9EB"/>
			<stop  offset="0.7223" style="stop-color:#D6D3D6"/>
			<stop  offset="0.81" style="stop-color:#BAB6BA"/>
			<stop  offset="0.9015" style="stop-color:#979297"/>
			<stop  offset="0.9949" style="stop-color:#70696F"/>
			<stop  offset="1" style="stop-color:#6D676C"/>
		</linearGradient>
		<rect x="56.53" y="9.54" class="st5" width="102.94" height="46.71"/>
	</g>
	<g>
		<defs>
			<path id="SVGID_16_" d="M59.8,85.59c-0.04,0.04-2.95,3.36-3.27,7.21c1.93-1.99,7.57-7.64,14.88-13.65c0,0,2.2-1.85,5.51-4.34
				C84.25,69.28,97.2,60.64,108,60.64c10.8,0,23.75,8.64,31.08,14.16c3.31,2.49,5.52,4.34,5.52,4.34
				c7.3,6.01,12.94,11.67,14.88,13.65c-0.33-3.85-3.23-7.17-3.28-7.21c-0.44-0.48-36.02-39.5-48.2-39.5
				C95.82,46.09,60.24,85.11,59.8,85.59"/>
		</defs>
		<clipPath id="SVGID_17_">
			<use xlink:href="#SVGID_16_"  style="overflow:visible;"/>
		</clipPath>
		
			<linearGradient id="SVGID_18_" gradientUnits="userSpaceOnUse" x1="3595.1919" y1="4453.3213" x2="3597.3418" y2="4453.3213" gradientTransform="matrix(47.6016 0 0 -47.6016 -171080.3594 212054.6719)">
			<stop  offset="0" style="stop-color:#6D676C"/>
			<stop  offset="0.0268" style="stop-color:#7A747A"/>
			<stop  offset="0.1116" style="stop-color:#9F9A9F"/>
			<stop  offset="0.1958" style="stop-color:#BFBBC0"/>
			<stop  offset="0.2779" style="stop-color:#D9D6DA"/>
			<stop  offset="0.3573" style="stop-color:#ECEBEC"/>
			<stop  offset="0.4327" style="stop-color:#F8F8F9"/>
			<stop  offset="0.5" style="stop-color:#FFFFFF"/>
			<stop  offset="0.5631" style="stop-color:#F8F7F8"/>
			<stop  offset="0.6393" style="stop-color:#EBE9EB"/>
			<stop  offset="0.7223" style="stop-color:#D6D3D6"/>
			<stop  offset="0.81" style="stop-color:#BAB6BA"/>
			<stop  offset="0.9015" style="stop-color:#979297"/>
			<stop  offset="0.9949" style="stop-color:#70696F"/>
			<stop  offset="1" style="stop-color:#6D676C"/>
		</linearGradient>
		<rect x="56.53" y="46.09" class="st6" width="102.94" height="46.71"/>
	</g>
	<g>
		<defs>
			<path id="SVGID_19_" d="M107.84,11.54c-0.01,7.53,0.45,8.86,5.62,10.87c0.71,0.27,20.13,6.1,43.26,29.74l0.34,0.34l-0.32-0.97
				c-19.96-22.9-41.76-40.5-47.99-40.82c-0.02,0-0.04,0-0.06,0C107.86,10.7,107.84,11.54,107.84,11.54"/>
		</defs>
		<clipPath id="SVGID_20_">
			<use xlink:href="#SVGID_19_"  style="overflow:visible;"/>
		</clipPath>
		
			<linearGradient id="SVGID_21_" gradientUnits="userSpaceOnUse" x1="3503.7124" y1="4556.8926" x2="3505.8628" y2="4556.8926" gradientTransform="matrix(22.5099 -0.4558 -0.4558 -22.5099 -76682.9609 104204.2734)">
			<stop  offset="0" style="stop-color:#ECEBEC"/>
			<stop  offset="0.0324" style="stop-color:#D4D1D4"/>
			<stop  offset="0.0908" style="stop-color:#ADA9AE"/>
			<stop  offset="0.1466" style="stop-color:#918B91"/>
			<stop  offset="0.1984" style="stop-color:#7D777D"/>
			<stop  offset="0.2447" style="stop-color:#726B71"/>
			<stop  offset="0.2809" style="stop-color:#6D676C"/>
			<stop  offset="0.3704" style="stop-color:#736C72"/>
			<stop  offset="0.5019" style="stop-color:#817C81"/>
			<stop  offset="0.5899" style="stop-color:#8E898E"/>
			<stop  offset="1" style="stop-color:#6D676C"/>
		</linearGradient>
		<polygon class="st7" points="106.99,10.71 157.04,9.7 157.91,52.46 107.85,53.48 		"/>
	</g>
	<g>
		<defs>
			<path id="SVGID_22_" d="M107.84,48.09c-0.01,7.53,0.45,8.85,5.62,10.87c0.71,0.28,20.13,6.1,43.26,29.73l0.34,0.34l-0.32-0.96
				c-19.96-22.9-41.76-40.5-47.99-40.82c-0.02,0-0.04,0-0.06,0C107.86,47.24,107.84,48.09,107.84,48.09"/>
		</defs>
		<clipPath id="SVGID_23_">
			<use xlink:href="#SVGID_22_"  style="overflow:visible;"/>
		</clipPath>
		
			<linearGradient id="SVGID_24_" gradientUnits="userSpaceOnUse" x1="3503.6948" y1="4556.0239" x2="3505.8452" y2="4556.0239" gradientTransform="matrix(22.5099 -0.4558 -0.4558 -22.5099 -76682.9609 104221.2578)">
			<stop  offset="0" style="stop-color:#ECEBEC"/>
			<stop  offset="0.0324" style="stop-color:#D4D1D4"/>
			<stop  offset="0.0908" style="stop-color:#ADA9AE"/>
			<stop  offset="0.1466" style="stop-color:#918B91"/>
			<stop  offset="0.1984" style="stop-color:#7D777D"/>
			<stop  offset="0.2447" style="stop-color:#726B71"/>
			<stop  offset="0.2809" style="stop-color:#6D676C"/>
			<stop  offset="0.3704" style="stop-color:#736C72"/>
			<stop  offset="0.5019" style="stop-color:#817C81"/>
			<stop  offset="0.5899" style="stop-color:#8E898E"/>
			<stop  offset="1" style="stop-color:#6D676C"/>
		</linearGradient>
		<polygon class="st8" points="106.99,47.26 157.04,46.25 157.91,89.01 107.85,90.03 		"/>
	</g>
</g>
</svg>
