<?xml version="1.0" encoding="UTF-8" standalone="no"?>
<!-- Created with Inkscape (http://www.inkscape.org/) -->

<svg
   version="1.1"
   id="svg2"
   width="2560"
   height="1440"
   viewBox="0 0 2560 1440"
   sodipodi:docname="Hankooktire_Ci(whitebg).ai"
   xmlns:inkscape="http://www.inkscape.org/namespaces/inkscape"
   xmlns:sodipodi="http://sodipodi.sourceforge.net/DTD/sodipodi-0.dtd"
   xmlns="http://www.w3.org/2000/svg"
   xmlns:svg="http://www.w3.org/2000/svg">
  <defs
     id="defs6">
    <clipPath
       clipPathUnits="userSpaceOnUse"
       id="clipPath16">
      <path
         d="M 0,1080 H 1920 V 0 H 0 Z"
         id="path14" />
    </clipPath>
  </defs>
  <sodipodi:namedview
     id="namedview4"
     pagecolor="#ffffff"
     bordercolor="#000000"
     borderopacity="0.25"
     inkscape:showpageshadow="2"
     inkscape:pageopacity="0.0"
     inkscape:pagecheckerboard="0"
     inkscape:deskcolor="#d1d1d1" />
  <g
     id="g8"
     inkscape:groupmode="layer"
     inkscape:label="Hankooktire_Ci(whitebg)"
     transform="matrix(1.3333333,0,0,-1.3333333,0,1440)">
    <g
       id="g10">
      <g
         id="g12"
         clip-path="url(#clipPath16)">
        <g
           id="g18"
           transform="translate(227.3809,1021.1035)">
          <path
             d="M 0,0 H 1.396 C 2.545,0 2.77,0.308 2.77,0.946 v 0.42 C 2.77,1.967 2.402,2.26 1.569,2.26 H 0 Z m -0.533,-2.905 v 5.63 h 1.989 c 1.149,0 1.855,-0.292 1.855,-1.456 V 1.014 C 3.311,0.165 3.003,-0.27 2.26,-0.428 l 1.268,-2.477 h -0.57 l -1.254,2.44 H 0 v -2.44 z"
             style="fill:#000000;fill-opacity:1;fill-rule:nonzero;stroke:none"
             id="path20" />
        </g>
        <g
           id="g22"
           transform="translate(231.5952,1020.623)">
          <path
             d="m 0,0 v 0.781 c 0,1.764 0.833,2.5 2.478,2.5 0.502,0 0.93,-0.053 1.26,-0.18 V 2.643 C 3.453,2.74 2.928,2.808 2.462,2.808 1.021,2.808 0.533,2.065 0.533,0.781 V 0.023 c 0,-1.389 0.488,-2.05 1.967,-2.05 0.39,0 0.811,0.03 1.164,0.12 v 1.99 H 2.342 V 0.548 H 4.196 V -2.229 C 3.738,-2.432 3.063,-2.5 2.492,-2.5 0.841,-2.5 0,-1.824 0,0"
             style="fill:#000000;fill-opacity:1;fill-rule:nonzero;stroke:none"
             id="path24" />
        </g>
        <g
           id="g26"
           transform="translate(237.416,1018.6636)">
          <path
             d="M 0,0 H 1.313 C 2.372,0 2.71,0.286 2.71,0.886 v 0.458 c 0,0.533 -0.451,0.901 -1.224,0.901 H 0 Z m 0,2.703 h 1.366 c 0.676,0 1.133,0.217 1.133,0.863 v 0.36 C 2.499,4.444 2.162,4.7 1.246,4.7 H 0 Z m -0.533,-3.168 v 5.63 h 1.606 c 1.194,0 1.96,-0.232 1.96,-1.366 V 3.641 C 3.033,3.108 2.86,2.665 2.267,2.515 2.883,2.395 3.243,1.967 3.243,1.412 V 0.856 c 0,-1.043 -0.646,-1.321 -2.102,-1.321 z"
             style="fill:#000000;fill-opacity:1;fill-rule:nonzero;stroke:none"
             id="path28" />
        </g>
        <g
           id="g30"
           transform="translate(246.9507,1020.5107)">
          <path
             d="m 0,0 v 0.976 c 0,1.261 -0.473,1.907 -1.449,1.907 -0.939,0 -1.434,-0.654 -1.434,-1.907 V 0 c 0,-1.276 0.488,-1.914 1.434,-1.914 C -0.473,-1.914 0,-1.284 0,0 m -3.416,-0.015 v 0.998 c 0,1.547 0.683,2.373 1.967,2.373 1.299,0 1.982,-0.826 1.982,-2.373 v -0.998 c 0,-1.569 -0.683,-2.373 -1.982,-2.373 -1.284,0 -1.967,0.834 -1.967,2.373"
             style="fill:#000000;fill-opacity:1;fill-rule:nonzero;stroke:none"
             id="path32" />
        </g>
        <g
           id="g34"
           transform="translate(249.8564,1016.9668)">
          <path
             d="M 0,0 2.808,7.47 H 3.363 L 0.556,0 Z"
             style="fill:#000000;fill-opacity:1;fill-rule:nonzero;stroke:none"
             id="path36" />
        </g>
        <g
           id="g38"
           transform="translate(258.9956,1020.5107)">
          <path
             d="m 0,0 v 0.976 c 0,1.261 -0.473,1.907 -1.449,1.907 -0.939,0 -1.434,-0.654 -1.434,-1.907 V 0 c 0,-1.276 0.488,-1.914 1.434,-1.914 C -0.473,-1.914 0,-1.284 0,0 m -3.416,-0.015 v 0.998 c 0,1.547 0.683,2.373 1.967,2.373 1.299,0 1.982,-0.826 1.982,-2.373 v -0.998 c 0,-1.569 -0.683,-2.373 -1.982,-2.373 -1.284,0 -1.967,0.834 -1.967,2.373"
             style="fill:#000000;fill-opacity:1;fill-rule:nonzero;stroke:none"
             id="path40" />
        </g>
        <g
           id="g42"
           transform="translate(261.9009,1016.9668)">
          <path
             d="M 0,0 2.808,7.47 H 3.363 L 0.556,0 Z"
             style="fill:#000000;fill-opacity:1;fill-rule:nonzero;stroke:none"
             id="path44" />
        </g>
        <g
           id="g46"
           transform="translate(271.0396,1020.5107)">
          <path
             d="m 0,0 v 0.976 c 0,1.261 -0.473,1.907 -1.449,1.907 -0.938,0 -1.434,-0.654 -1.434,-1.907 V 0 c 0,-1.276 0.488,-1.914 1.434,-1.914 C -0.473,-1.914 0,-1.284 0,0 m -3.416,-0.015 v 0.998 c 0,1.547 0.684,2.373 1.967,2.373 1.299,0 1.982,-0.826 1.982,-2.373 v -0.998 c 0,-1.569 -0.683,-2.373 -1.982,-2.373 -1.283,0 -1.967,0.834 -1.967,2.373"
             style="fill:#000000;fill-opacity:1;fill-rule:nonzero;stroke:none"
             id="path48" />
        </g>
        <g
           id="g50"
           transform="translate(226.6377,1011.6758)">
          <path
             d="m 0,0 v 0.69 c 0,1.705 0.773,2.538 2.41,2.538 0.503,0 0.923,-0.053 1.283,-0.187 V 2.583 C 3.431,2.665 2.883,2.755 2.395,2.755 1.186,2.755 0.533,2.154 0.533,0.721 v -0.743 c 0,-1.344 0.503,-2.058 1.862,-2.058 0.397,0 0.878,0.038 1.381,0.218 V -2.32 C 3.348,-2.493 2.905,-2.553 2.417,-2.553 0.811,-2.553 0,-1.817 0,0"
             style="fill:#000000;fill-opacity:1;fill-rule:nonzero;stroke:none"
             id="path52" />
        </g>
        <g
           id="g54"
           transform="translate(231.3999,1009.1982)">
          <path
             d="M 0,0 V 5.63 H 0.781 L 2.35,1.284 C 2.433,1.051 2.523,0.69 2.59,0.421 2.643,0.69 2.733,1.051 2.808,1.276 L 4.287,5.63 H 5.075 V 0 h -0.51 v 4.167 c 0,0.277 0.007,0.72 0.044,1.103 C 4.542,4.91 4.444,4.534 4.355,4.272 L 2.891,0 H 2.268 L 0.736,4.272 c -0.105,0.3 -0.18,0.6 -0.263,0.983 0.03,-0.383 0.03,-0.803 0.03,-1.104 V 0 Z"
             style="fill:#000000;fill-opacity:1;fill-rule:nonzero;stroke:none"
             id="path56" />
        </g>
        <g
           id="g58"
           transform="translate(239.0737,1009.1982)">
          <path
             d="m 0,0 v 2.38 l -1.884,3.25 h 0.593 L -0.15,3.604 C -0.007,3.371 0.143,3.063 0.278,2.763 0.398,3.056 0.556,3.356 0.698,3.604 L 1.824,5.63 H 2.388 L 0.533,2.395 V 0 Z"
             style="fill:#000000;fill-opacity:1;fill-rule:nonzero;stroke:none"
             id="path60" />
        </g>
        <g
           id="g62"
           transform="translate(242.1851,1009.1982)">
          <path
             d="M 0,0 V 5.63 H 0.533 V 3.063 H 1.224 L 3.191,5.63 H 3.814 L 1.674,2.883 3.979,0 H 3.334 L 1.276,2.59 H 0.533 V 0 Z"
             style="fill:#000000;fill-opacity:1;fill-rule:nonzero;stroke:none"
             id="path64" />
        </g>
        <g
           id="g66"
           transform="translate(252.2231,1011.5107)">
          <path
             d="m 0,0 v 0.976 c 0,1.261 -0.473,1.907 -1.449,1.907 -0.939,0 -1.434,-0.654 -1.434,-1.907 V 0 c 0,-1.276 0.488,-1.914 1.434,-1.914 C -0.473,-1.914 0,-1.284 0,0 m -3.416,-0.015 v 0.998 c 0,1.547 0.683,2.373 1.967,2.373 1.299,0 1.982,-0.826 1.982,-2.373 v -0.998 c 0,-1.569 -0.683,-2.373 -1.982,-2.373 -1.284,0 -1.967,0.834 -1.967,2.373"
             style="fill:#000000;fill-opacity:1;fill-rule:nonzero;stroke:none"
             id="path68" />
        </g>
        <g
           id="g70"
           transform="translate(255.1289,1007.9668)">
          <path
             d="M 0,0 2.808,7.47 H 3.363 L 0.556,0 Z"
             style="fill:#000000;fill-opacity:1;fill-rule:nonzero;stroke:none"
             id="path72" />
        </g>
        <g
           id="g74"
           transform="translate(264.2681,1011.5107)">
          <path
             d="m 0,0 v 0.976 c 0,1.261 -0.473,1.907 -1.449,1.907 -0.939,0 -1.434,-0.654 -1.434,-1.907 V 0 c 0,-1.276 0.488,-1.914 1.434,-1.914 C -0.473,-1.914 0,-1.284 0,0 m -3.416,-0.015 v 0.998 c 0,1.547 0.683,2.373 1.967,2.373 1.299,0 1.982,-0.826 1.982,-2.373 v -0.998 c 0,-1.569 -0.683,-2.373 -1.982,-2.373 -1.284,0 -1.967,0.834 -1.967,2.373"
             style="fill:#000000;fill-opacity:1;fill-rule:nonzero;stroke:none"
             id="path76" />
        </g>
        <g
           id="g78"
           transform="translate(267.1733,1007.9668)">
          <path
             d="M 0,0 2.808,7.47 H 3.363 L 0.556,0 Z"
             style="fill:#000000;fill-opacity:1;fill-rule:nonzero;stroke:none"
             id="path80" />
        </g>
        <g
           id="g82"
           transform="translate(276.312,1011.5107)">
          <path
             d="m 0,0 v 0.976 c 0,1.261 -0.473,1.907 -1.449,1.907 -0.938,0 -1.434,-0.654 -1.434,-1.907 V 0 c 0,-1.276 0.488,-1.914 1.434,-1.914 C -0.473,-1.914 0,-1.284 0,0 m -3.416,-0.015 v 0.998 c 0,1.547 0.684,2.373 1.967,2.373 1.299,0 1.982,-0.826 1.982,-2.373 v -0.998 c 0,-1.569 -0.683,-2.373 -1.982,-2.373 -1.283,0 -1.967,0.834 -1.967,2.373"
             style="fill:#000000;fill-opacity:1;fill-rule:nonzero;stroke:none"
             id="path84" />
        </g>
        <g
           id="g86"
           transform="translate(279.2183,1007.9668)">
          <path
             d="M 0,0 2.808,7.47 H 3.363 L 0.556,0 Z"
             style="fill:#000000;fill-opacity:1;fill-rule:nonzero;stroke:none"
             id="path88" />
        </g>
        <g
           id="g90"
           transform="translate(285.5718,1009.1982)">
          <path
             d="m 0,0 v 0.465 h 1.336 v 4.58 L 0,4.384 V 4.895 L 1.412,5.593 H 1.87 V 0.465 H 3.063 L 3.063,0 Z"
             style="fill:#000000;fill-opacity:1;fill-rule:nonzero;stroke:none"
             id="path92" />
        </g>
        <g
           id="g94"
           transform="translate(293.0815,1011.5107)">
          <path
             d="m 0,0 v 0.976 c 0,1.261 -0.473,1.907 -1.449,1.907 -0.938,0 -1.434,-0.654 -1.434,-1.907 V 0 c 0,-1.276 0.489,-1.914 1.434,-1.914 C -0.473,-1.914 0,-1.284 0,0 m -3.415,-0.015 v 0.998 c 0,1.547 0.683,2.373 1.966,2.373 1.299,0 1.982,-0.826 1.982,-2.373 v -0.998 c 0,-1.569 -0.683,-2.373 -1.982,-2.373 -1.283,0 -1.966,0.834 -1.966,2.373"
             style="fill:#000000;fill-opacity:1;fill-rule:nonzero;stroke:none"
             id="path96" />
        </g>
        <g
           id="g98"
           transform="translate(297.8071,1011.5107)">
          <path
             d="m 0,0 v 0.976 c 0,1.261 -0.473,1.907 -1.449,1.907 -0.939,0 -1.434,-0.654 -1.434,-1.907 V 0 c 0,-1.276 0.488,-1.914 1.434,-1.914 C -0.473,-1.914 0,-1.284 0,0 m -3.416,-0.015 v 0.998 c 0,1.547 0.683,2.373 1.967,2.373 1.299,0 1.982,-0.826 1.982,-2.373 v -0.998 c 0,-1.569 -0.683,-2.373 -1.982,-2.373 -1.284,0 -1.967,0.834 -1.967,2.373"
             style="fill:#000000;fill-opacity:1;fill-rule:nonzero;stroke:none"
             id="path100" />
        </g>
        <g
           id="g102"
           transform="translate(227.3809,1003.021)">
          <path
             d="M 0,0 H 1.344 C 2.5,0 2.785,0.285 2.785,0.961 v 0.473 c 0,0.578 -0.345,0.908 -1.223,0.908 H 0 Z m -0.533,-2.823 v 5.631 h 1.944 c 1.149,0 1.907,-0.27 1.907,-1.457 v -0.3 c 0,-1.201 -0.593,-1.516 -1.989,-1.516 H 0 v -2.358 z"
             style="fill:#000000;fill-opacity:1;fill-rule:nonzero;stroke:none"
             id="path104" />
        </g>
        <g
           id="g106"
           transform="translate(233.8027,1000.9717)">
          <path
             d="m 0,0 v 1.231 h -0.713 c -1.111,0 -1.351,-0.21 -1.351,-0.863 V 0.247 c 0,-0.45 0.225,-0.638 0.623,-0.638 0.465,0 1.043,0.165 1.441,0.391 m -2.582,0.27 v 0.173 c 0,1.021 0.75,1.231 1.831,1.231 h 0.758 v 0.218 c 0,0.765 -0.15,1.111 -0.968,1.111 -0.368,0 -0.758,-0.09 -1.126,-0.218 v 0.45 c 0.435,0.136 0.781,0.211 1.231,0.211 1.224,0 1.374,-0.796 1.374,-1.509 v -2.71 H 0.052 l -0.045,0.315 c -0.285,-0.165 -0.9,-0.391 -1.441,-0.391 -0.833,0 -1.148,0.436 -1.148,1.119"
             style="fill:#000000;fill-opacity:1;fill-rule:nonzero;stroke:none"
             id="path108" />
        </g>
        <g
           id="g110"
           transform="translate(235.48,1000.1982)">
          <path
             d="M 0,0 V 4.144 H 0.436 L 0.518,3.799 c 0.428,0.255 0.999,0.42 1.494,0.42 0.773,0 1.231,-0.39 1.231,-1.156 V 0 H 2.726 v 2.853 c 0,0.593 -0.173,0.916 -0.751,0.916 -0.511,0 -0.984,-0.165 -1.457,-0.458 L 0.518,0 Z"
             style="fill:#000000;fill-opacity:1;fill-rule:nonzero;stroke:none"
             id="path112" />
        </g>
        <g
           id="g114"
           transform="translate(240.228,1001.0015)">
          <path
             d="m 0,0 v 2.883 h -0.676 v 0.45 H 0 V 4.182 L 0.518,4.407 V 3.333 H 1.591 V 2.883 H 0.518 V 0.165 c 0,-0.39 0.09,-0.593 0.39,-0.593 0.24,0 0.511,0.03 0.683,0.105 V -0.758 C 1.441,-0.833 1.156,-0.879 0.878,-0.879 0.27,-0.879 0,-0.541 0,0"
             style="fill:#000000;fill-opacity:1;fill-rule:nonzero;stroke:none"
             id="path116" />
        </g>
        <g
           id="g118"
           transform="translate(245.4429,1002)">
          <path
             d="M 0,0 V 0.556 C 0,1.502 -0.495,1.967 -1.224,1.967 -1.937,1.967 -2.44,1.502 -2.44,0.556 V 0 c 0,-0.946 0.503,-1.411 1.216,-1.411 C -0.495,-1.411 0,-0.946 0,0 m -2.958,0.03 v 0.495 c 0,1.209 0.661,1.885 1.734,1.885 1.081,0 1.742,-0.676 1.742,-1.885 V 0.03 c 0,-1.171 -0.661,-1.884 -1.742,-1.884 -1.073,0 -1.734,0.713 -1.734,1.884"
             style="fill:#000000;fill-opacity:1;fill-rule:nonzero;stroke:none"
             id="path120" />
        </g>
        <g
           id="g122"
           transform="translate(247.0146,1000.1982)">
          <path
             d="M 0,0 V 4.144 H 0.436 L 0.518,3.799 c 0.428,0.255 0.999,0.42 1.494,0.42 0.774,0 1.231,-0.39 1.231,-1.156 V 0 H 2.725 v 2.853 c 0,0.593 -0.172,0.916 -0.75,0.916 -0.511,0 -0.984,-0.165 -1.457,-0.458 L 0.518,0 Z"
             style="fill:#000000;fill-opacity:1;fill-rule:nonzero;stroke:none"
             id="path124" />
        </g>
        <g
           id="g126"
           transform="translate(251.8003,1002.6533)">
          <path
             d="M 0,0 H 2.335 V 0.03 C 2.327,0.683 2.02,1.313 1.141,1.313 0.345,1.313 0.007,0.69 0,0.03 Z m -0.525,-0.646 v 0.413 c 0,1.381 0.668,1.989 1.666,1.989 1.089,0 1.697,-0.548 1.697,-2.056 V -0.443 H 0 v -0.233 c 0,-0.743 0.172,-1.396 1.268,-1.396 0.354,0 0.781,0.045 1.149,0.173 v -0.443 c -0.323,-0.113 -0.698,-0.18 -1.096,-0.18 -1.329,0 -1.846,0.57 -1.846,1.876"
             style="fill:#000000;fill-opacity:1;fill-rule:nonzero;stroke:none"
             id="path128" />
        </g>
        <g
           id="g130"
           transform="translate(258.2432,1000.6636)">
          <path
             d="M 0,0 H 1.313 C 2.372,0 2.71,0.286 2.71,0.886 v 0.458 c 0,0.533 -0.451,0.901 -1.224,0.901 H 0 Z M 0,2.703 H 1.366 C 2.042,2.703 2.5,2.92 2.5,3.566 v 0.36 C 2.5,4.444 2.162,4.7 1.246,4.7 H 0 Z m -0.533,-3.168 v 5.63 h 1.606 c 1.194,0 1.96,-0.232 1.96,-1.366 V 3.641 C 3.033,3.108 2.86,2.665 2.267,2.515 2.883,2.395 3.243,1.967 3.243,1.412 V 0.856 c 0,-1.043 -0.646,-1.321 -2.102,-1.321 z"
             style="fill:#000000;fill-opacity:1;fill-rule:nonzero;stroke:none"
             id="path132" />
        </g>
        <g
           id="g134"
           transform="translate(262.502,1000.1982)">
          <path
             d="M 0,0 V 5.586 L 0.518,5.811 V 0 Z"
             style="fill:#000000;fill-opacity:1;fill-rule:nonzero;stroke:none"
             id="path136" />
        </g>
        <g
           id="g138"
           transform="translate(266.5469,1000.9717)">
          <path
             d="m 0,0 v 1.231 h -0.713 c -1.111,0 -1.352,-0.21 -1.352,-0.863 V 0.247 c 0,-0.45 0.226,-0.638 0.624,-0.638 0.465,0 1.043,0.165 1.441,0.391 m -2.583,0.27 v 0.173 c 0,1.021 0.751,1.231 1.832,1.231 h 0.758 v 0.218 c 0,0.765 -0.15,1.111 -0.968,1.111 -0.368,0 -0.758,-0.09 -1.126,-0.218 v 0.45 c 0.435,0.136 0.781,0.211 1.231,0.211 1.224,0 1.374,-0.796 1.374,-1.509 v -2.71 H 0.052 l -0.045,0.315 c -0.285,-0.165 -0.901,-0.391 -1.441,-0.391 -0.833,0 -1.149,0.436 -1.149,1.119"
             style="fill:#000000;fill-opacity:1;fill-rule:nonzero;stroke:none"
             id="path140" />
        </g>
        <g
           id="g142"
           transform="translate(268.0669,1002.0303)">
          <path
             d="m 0,0 v 0.405 c 0,1.389 0.668,1.974 1.824,1.974 0.421,0 0.728,-0.052 1.013,-0.149 V 1.794 C 2.597,1.876 2.192,1.937 1.809,1.937 0.803,1.937 0.518,1.231 0.518,0.548 v -0.631 c 0,-0.721 0.195,-1.366 1.276,-1.366 0.36,0 0.758,0.06 1.119,0.18 V -1.712 C 2.59,-1.832 2.229,-1.907 1.832,-1.907 0.54,-1.907 0,-1.321 0,0"
             style="fill:#000000;fill-opacity:1;fill-rule:nonzero;stroke:none"
             id="path144" />
        </g>
        <g
           id="g146"
           transform="translate(271.9893,1000.1982)">
          <path
             d="M 0,0 V 5.586 L 0.518,5.811 V 2.53 H 1.051 L 2.545,4.137 H 3.161 L 1.412,2.275 3.176,0 H 2.545 L 0.946,2.08 H 0.518 V 0 Z"
             style="fill:#000000;fill-opacity:1;fill-rule:nonzero;stroke:none"
             id="path148" />
        </g>
        <g
           id="g150"
           transform="translate(277.7417,1002.6758)">
          <path
             d="m 0,0 v 0.69 c 0,1.705 0.773,2.538 2.41,2.538 0.503,0 0.923,-0.053 1.283,-0.187 V 2.583 C 3.431,2.665 2.883,2.755 2.395,2.755 1.186,2.755 0.533,2.154 0.533,0.721 v -0.743 c 0,-1.344 0.503,-2.058 1.862,-2.058 0.397,0 0.878,0.038 1.381,0.218 V -2.32 C 3.348,-2.493 2.905,-2.553 2.417,-2.553 0.81,-2.553 0,-1.817 0,0"
             style="fill:#000000;fill-opacity:1;fill-rule:nonzero;stroke:none"
             id="path152" />
        </g>
        <g
           id="g154"
           transform="translate(228.1689,993.3003)">
          <path
             d="m 0,0 h 1.254 l 0.33,1.546 H 0.323 Z m -0.916,-2.102 0.346,1.644 H -1.704 V 0 h 1.231 l 0.33,1.546 h -1.141 v 0.458 h 1.239 L 0.286,3.528 H 0.743 L 0.421,2.004 h 1.261 l 0.33,1.524 H 2.478 L 2.155,2.004 H 3.153 V 1.546 H 2.057 L 1.727,0 H 2.725 V -0.458 H 1.629 L 1.284,-2.102 H 0.811 l 0.345,1.644 H -0.098 L -0.45,-2.102 Z"
             style="fill:#000000;fill-opacity:1;fill-rule:nonzero;stroke:none"
             id="path156" />
        </g>
        <g
           id="g158"
           transform="translate(235.3931,993.5107)">
          <path
             d="m 0,0 v 0.976 c 0,1.261 -0.473,1.907 -1.449,1.907 -0.938,0 -1.434,-0.654 -1.434,-1.907 V 0 c 0,-1.276 0.488,-1.914 1.434,-1.914 C -0.473,-1.914 0,-1.284 0,0 m -3.416,-0.015 v 0.998 c 0,1.547 0.684,2.373 1.967,2.373 1.299,0 1.982,-0.826 1.982,-2.373 v -0.998 c 0,-1.569 -0.683,-2.373 -1.982,-2.373 -1.283,0 -1.967,0.834 -1.967,2.373"
             style="fill:#000000;fill-opacity:1;fill-rule:nonzero;stroke:none"
             id="path160" />
        </g>
        <g
           id="g162"
           transform="translate(240.1187,993.5107)">
          <path
             d="m 0,0 v 0.976 c 0,1.261 -0.473,1.907 -1.449,1.907 -0.939,0 -1.434,-0.654 -1.434,-1.907 V 0 c 0,-1.276 0.488,-1.914 1.434,-1.914 C -0.473,-1.914 0,-1.284 0,0 m -3.416,-0.015 v 0.998 c 0,1.547 0.683,2.373 1.967,2.373 1.299,0 1.982,-0.826 1.982,-2.373 v -0.998 c 0,-1.569 -0.683,-2.373 -1.982,-2.373 -1.284,0 -1.967,0.834 -1.967,2.373"
             style="fill:#000000;fill-opacity:1;fill-rule:nonzero;stroke:none"
             id="path164" />
        </g>
        <g
           id="g166"
           transform="translate(244.8433,993.5107)">
          <path
             d="m 0,0 v 0.976 c 0,1.261 -0.473,1.907 -1.449,1.907 -0.939,0 -1.434,-0.654 -1.434,-1.907 V 0 c 0,-1.276 0.488,-1.914 1.434,-1.914 C -0.473,-1.914 0,-1.284 0,0 m -3.416,-0.015 v 0.998 c 0,1.547 0.683,2.373 1.967,2.373 1.299,0 1.982,-0.826 1.982,-2.373 v -0.998 c 0,-1.569 -0.683,-2.373 -1.982,-2.373 -1.284,0 -1.967,0.834 -1.967,2.373"
             style="fill:#000000;fill-opacity:1;fill-rule:nonzero;stroke:none"
             id="path168" />
        </g>
        <g
           id="g170"
           transform="translate(249.5679,993.5107)">
          <path
             d="m 0,0 v 0.976 c 0,1.261 -0.473,1.907 -1.449,1.907 -0.938,0 -1.434,-0.654 -1.434,-1.907 V 0 c 0,-1.276 0.488,-1.914 1.434,-1.914 C -0.473,-1.914 0,-1.284 0,0 m -3.416,-0.015 v 0.998 c 0,1.547 0.684,2.373 1.967,2.373 1.299,0 1.982,-0.826 1.982,-2.373 v -0.998 c 0,-1.569 -0.683,-2.373 -1.982,-2.373 -1.283,0 -1.967,0.834 -1.967,2.373"
             style="fill:#000000;fill-opacity:1;fill-rule:nonzero;stroke:none"
             id="path172" />
        </g>
        <g
           id="g174"
           transform="translate(254.2935,993.5107)">
          <path
             d="m 0,0 v 0.976 c 0,1.261 -0.473,1.907 -1.449,1.907 -0.939,0 -1.434,-0.654 -1.434,-1.907 V 0 c 0,-1.276 0.488,-1.914 1.434,-1.914 C -0.473,-1.914 0,-1.284 0,0 m -3.416,-0.015 v 0.998 c 0,1.547 0.683,2.373 1.967,2.373 1.299,0 1.982,-0.826 1.982,-2.373 v -0.998 c 0,-1.569 -0.683,-2.373 -1.982,-2.373 -1.284,0 -1.967,0.834 -1.967,2.373"
             style="fill:#000000;fill-opacity:1;fill-rule:nonzero;stroke:none"
             id="path176" />
        </g>
        <g
           id="g178"
           transform="translate(259.0181,993.5107)">
          <path
             d="m 0,0 v 0.976 c 0,1.261 -0.473,1.907 -1.449,1.907 -0.939,0 -1.434,-0.654 -1.434,-1.907 V 0 c 0,-1.276 0.488,-1.914 1.434,-1.914 C -0.473,-1.914 0,-1.284 0,0 m -3.416,-0.015 v 0.998 c 0,1.547 0.683,2.373 1.967,2.373 1.299,0 1.982,-0.826 1.982,-2.373 v -0.998 c 0,-1.569 -0.683,-2.373 -1.982,-2.373 -1.284,0 -1.967,0.834 -1.967,2.373"
             style="fill:#000000;fill-opacity:1;fill-rule:nonzero;stroke:none"
             id="path180" />
        </g>
        <g
           id="g182"
           transform="translate(365.6699,1021.1035)">
          <path
             d="M 0,0 H 1.396 C 2.545,0 2.77,0.308 2.77,0.946 v 0.42 C 2.77,1.967 2.402,2.26 1.569,2.26 H 0 Z m -0.533,-2.905 v 5.63 h 1.99 c 1.148,0 1.854,-0.292 1.854,-1.456 V 1.014 C 3.311,0.165 3.003,-0.27 2.26,-0.428 l 1.268,-2.477 h -0.57 l -1.254,2.44 H 0 v -2.44 z"
             style="fill:#000000;fill-opacity:1;fill-rule:nonzero;stroke:none"
             id="path184" />
        </g>
        <g
           id="g186"
           transform="translate(369.8843,1020.623)">
          <path
             d="m 0,0 v 0.781 c 0,1.764 0.833,2.5 2.478,2.5 0.502,0 0.93,-0.053 1.26,-0.18 V 2.643 C 3.453,2.74 2.928,2.808 2.462,2.808 1.021,2.808 0.533,2.065 0.533,0.781 V 0.023 c 0,-1.389 0.488,-2.05 1.967,-2.05 0.39,0 0.811,0.03 1.164,0.12 v 1.99 H 2.342 V 0.548 H 4.196 V -2.229 C 3.738,-2.432 3.063,-2.5 2.492,-2.5 0.841,-2.5 0,-1.824 0,0"
             style="fill:#000000;fill-opacity:1;fill-rule:nonzero;stroke:none"
             id="path188" />
        </g>
        <g
           id="g190"
           transform="translate(375.7051,1018.6636)">
          <path
             d="M 0,0 H 1.314 C 2.372,0 2.71,0.286 2.71,0.886 v 0.458 c 0,0.533 -0.451,0.901 -1.224,0.901 H 0 Z M 0,2.703 H 1.366 C 2.042,2.703 2.5,2.92 2.5,3.566 v 0.36 C 2.5,4.444 2.162,4.7 1.246,4.7 H 0 Z m -0.533,-3.168 v 5.63 h 1.606 c 1.194,0 1.96,-0.232 1.96,-1.366 V 3.641 C 3.033,3.108 2.86,2.665 2.267,2.515 2.883,2.395 3.243,1.967 3.243,1.412 V 0.856 c 0,-1.043 -0.646,-1.321 -2.102,-1.321 z"
             style="fill:#000000;fill-opacity:1;fill-rule:nonzero;stroke:none"
             id="path192" />
        </g>
        <g
           id="g194"
           transform="translate(382.4541,1018.1982)">
          <path
             d="m 0,0 v 0.465 h 1.336 v 4.58 L 0,4.384 V 4.895 L 1.412,5.593 H 1.87 V 0.465 H 3.063 L 3.063,0 Z"
             style="fill:#000000;fill-opacity:1;fill-rule:nonzero;stroke:none"
             id="path196" />
        </g>
        <g
           id="g198"
           transform="translate(386.7666,1018.416)">
          <path
             d="M 0,0 V 0.465 C 0.48,0.3 0.998,0.18 1.689,0.18 c 0.886,0 1.396,0.428 1.396,1.096 V 1.561 C 3.085,2.335 2.643,2.68 1.622,2.68 1.306,2.68 0.683,2.62 0.278,2.545 L 0.36,5.375 H 3.326 V 4.894 H 0.863 L 0.833,3.078 c 0.255,0.023 0.616,0.068 0.886,0.068 1.426,0 1.9,-0.684 1.9,-1.517 V 1.276 C 3.619,0.413 2.928,-0.293 1.689,-0.293 0.961,-0.293 0.368,-0.15 0,0"
             style="fill:#000000;fill-opacity:1;fill-rule:nonzero;stroke:none"
             id="path200" />
        </g>
        <g
           id="g202"
           transform="translate(391.6416,1020.0376)">
          <path
             d="m 0,0 h 2.245 v 3.31 z m 2.245,-1.839 v 1.374 H -0.578 V 0 l 2.56,3.753 H 2.778 V 0 H 3.656 V -0.465 H 2.778 v -1.374 z"
             style="fill:#000000;fill-opacity:1;fill-rule:nonzero;stroke:none"
             id="path204" />
        </g>
        <g
           id="g206"
           transform="translate(397.5952,1016.9668)">
          <path
             d="M 0,0 2.808,7.47 H 3.363 L 0.556,0 Z"
             style="fill:#000000;fill-opacity:1;fill-rule:nonzero;stroke:none"
             id="path208" />
        </g>
        <g
           id="g210"
           transform="translate(403.9487,1018.1982)">
          <path
             d="m 0,0 v 0.465 h 1.336 v 4.58 L 0,4.384 V 4.895 L 1.412,5.593 H 1.87 V 0.465 H 3.063 L 3.063,0 Z"
             style="fill:#000000;fill-opacity:1;fill-rule:nonzero;stroke:none"
             id="path212" />
        </g>
        <g
           id="g214"
           transform="translate(408.2612,1018.416)">
          <path
             d="M 0,0 V 0.465 C 0.48,0.3 0.999,0.18 1.689,0.18 c 0.886,0 1.396,0.428 1.396,1.096 V 1.561 C 3.085,2.335 2.643,2.68 1.622,2.68 1.306,2.68 0.683,2.62 0.278,2.545 L 0.36,5.375 H 3.326 V 4.894 H 0.863 L 0.833,3.078 c 0.255,0.023 0.616,0.068 0.886,0.068 1.426,0 1.899,-0.684 1.899,-1.517 V 1.276 C 3.618,0.413 2.928,-0.293 1.689,-0.293 0.961,-0.293 0.368,-0.15 0,0"
             style="fill:#000000;fill-opacity:1;fill-rule:nonzero;stroke:none"
             id="path216" />
        </g>
        <g
           id="g218"
           transform="translate(412.9858,1018.416)">
          <path
             d="M 0,0 V 0.465 C 0.48,0.3 0.999,0.18 1.689,0.18 c 0.886,0 1.397,0.428 1.397,1.096 V 1.561 C 3.086,2.335 2.643,2.68 1.622,2.68 1.306,2.68 0.683,2.62 0.278,2.545 L 0.36,5.375 H 3.326 V 4.894 H 0.863 L 0.833,3.078 c 0.255,0.023 0.616,0.068 0.886,0.068 1.427,0 1.899,-0.684 1.899,-1.517 V 1.276 C 3.618,0.413 2.928,-0.293 1.689,-0.293 0.961,-0.293 0.368,-0.15 0,0"
             style="fill:#000000;fill-opacity:1;fill-rule:nonzero;stroke:none"
             id="path220" />
        </g>
        <g
           id="g222"
           transform="translate(419.0898,1016.9668)">
          <path
             d="M 0,0 2.808,7.47 H 3.363 L 0.556,0 Z"
             style="fill:#000000;fill-opacity:1;fill-rule:nonzero;stroke:none"
             id="path224" />
        </g>
        <g
           id="g226"
           transform="translate(425.4434,1018.1982)">
          <path
             d="m 0,0 v 0.465 h 1.336 v 4.58 L 0,4.384 V 4.895 L 1.412,5.593 H 1.87 V 0.465 H 3.063 L 3.063,0 Z"
             style="fill:#000000;fill-opacity:1;fill-rule:nonzero;stroke:none"
             id="path228" />
        </g>
        <g
           id="g230"
           transform="translate(429.7554,1018.416)">
          <path
             d="M 0,0 V 0.465 C 0.48,0.3 0.998,0.18 1.689,0.18 c 0.886,0 1.396,0.428 1.396,1.096 V 1.561 C 3.085,2.335 2.642,2.68 1.622,2.68 1.306,2.68 0.683,2.62 0.278,2.545 L 0.36,5.375 H 3.326 V 4.894 H 0.863 L 0.833,3.078 c 0.255,0.023 0.616,0.068 0.886,0.068 1.426,0 1.899,-0.684 1.899,-1.517 V 1.276 C 3.618,0.413 2.928,-0.293 1.689,-0.293 0.961,-0.293 0.368,-0.15 0,0"
             style="fill:#000000;fill-opacity:1;fill-rule:nonzero;stroke:none"
             id="path232" />
        </g>
        <g
           id="g234"
           transform="translate(437.7085,1019.7749)">
          <path
             d="m 0,0 v 0.368 c 0,0.78 -0.653,1.036 -1.381,1.036 -0.496,0 -1.089,-0.196 -1.532,-0.601 0.008,-1.374 0.495,-1.982 1.441,-1.982 C -0.368,-1.179 0,-0.638 0,0 m -3.446,0.766 v 0.983 c 0,2.064 1.209,2.342 2.275,2.342 0.465,0 0.908,-0.105 1.209,-0.225 V 3.393 c -0.406,0.151 -0.894,0.226 -1.246,0.226 -1.052,0 -1.705,-0.346 -1.705,-2.283 0.375,0.331 0.916,0.541 1.629,0.541 0.991,0 1.817,-0.473 1.817,-1.517 V 0.023 c 0,-0.924 -0.563,-1.675 -2.027,-1.675 -1.374,0 -1.952,0.961 -1.952,2.418"
             style="fill:#000000;fill-opacity:1;fill-rule:nonzero;stroke:none"
             id="path236" />
        </g>
        <g
           id="g238"
           transform="translate(364.9268,1011.6758)">
          <path
             d="m 0,0 v 0.69 c 0,1.705 0.773,2.538 2.41,2.538 0.503,0 0.923,-0.053 1.283,-0.187 V 2.583 C 3.431,2.665 2.883,2.755 2.395,2.755 1.186,2.755 0.533,2.154 0.533,0.721 v -0.743 c 0,-1.344 0.503,-2.058 1.862,-2.058 0.397,0 0.878,0.038 1.381,0.218 V -2.32 C 3.348,-2.493 2.905,-2.553 2.417,-2.553 0.811,-2.553 0,-1.817 0,0"
             style="fill:#000000;fill-opacity:1;fill-rule:nonzero;stroke:none"
             id="path240" />
        </g>
        <g
           id="g242"
           transform="translate(369.689,1009.1982)">
          <path
             d="M 0,0 V 5.63 H 0.781 L 2.35,1.284 C 2.433,1.051 2.522,0.69 2.59,0.421 2.642,0.69 2.733,1.051 2.808,1.276 L 4.287,5.63 H 5.075 V 0 H 4.564 v 4.167 c 0,0.277 0.008,0.72 0.045,1.103 C 4.542,4.91 4.444,4.534 4.354,4.272 L 2.891,0 H 2.267 L 0.736,4.272 c -0.105,0.3 -0.18,0.6 -0.263,0.983 0.03,-0.383 0.03,-0.803 0.03,-1.104 V 0 Z"
             style="fill:#000000;fill-opacity:1;fill-rule:nonzero;stroke:none"
             id="path244" />
        </g>
        <g
           id="g246"
           transform="translate(377.3628,1009.1982)">
          <path
             d="m 0,0 v 2.38 l -1.884,3.25 h 0.593 L -0.15,3.604 C -0.007,3.371 0.143,3.063 0.278,2.763 0.398,3.056 0.556,3.356 0.698,3.604 L 1.824,5.63 H 2.388 L 0.533,2.395 V 0 Z"
             style="fill:#000000;fill-opacity:1;fill-rule:nonzero;stroke:none"
             id="path248" />
        </g>
        <g
           id="g250"
           transform="translate(380.4741,1009.1982)">
          <path
             d="M 0,0 V 5.63 H 0.533 V 3.063 H 1.224 L 3.191,5.63 H 3.814 L 1.674,2.883 3.979,0 H 3.333 L 1.276,2.59 H 0.533 V 0 Z"
             style="fill:#000000;fill-opacity:1;fill-rule:nonzero;stroke:none"
             id="path252" />
        </g>
        <g
           id="g254"
           transform="translate(390.5122,1011.5107)">
          <path
             d="m 0,0 v 0.976 c 0,1.261 -0.473,1.907 -1.449,1.907 -0.939,0 -1.434,-0.654 -1.434,-1.907 V 0 c 0,-1.276 0.488,-1.914 1.434,-1.914 C -0.473,-1.914 0,-1.284 0,0 m -3.416,-0.015 v 0.998 c 0,1.547 0.683,2.373 1.967,2.373 1.299,0 1.982,-0.826 1.982,-2.373 v -0.998 c 0,-1.569 -0.683,-2.373 -1.982,-2.373 -1.284,0 -1.967,0.834 -1.967,2.373"
             style="fill:#000000;fill-opacity:1;fill-rule:nonzero;stroke:none"
             id="path256" />
        </g>
        <g
           id="g258"
           transform="translate(393.418,1007.9668)">
          <path
             d="M 0,0 2.808,7.47 H 3.363 L 0.556,0 Z"
             style="fill:#000000;fill-opacity:1;fill-rule:nonzero;stroke:none"
             id="path260" />
        </g>
        <g
           id="g262"
           transform="translate(402.5571,1011.5107)">
          <path
             d="m 0,0 v 0.976 c 0,1.261 -0.473,1.907 -1.449,1.907 -0.939,0 -1.434,-0.654 -1.434,-1.907 V 0 c 0,-1.276 0.488,-1.914 1.434,-1.914 C -0.473,-1.914 0,-1.284 0,0 m -3.416,-0.015 v 0.998 c 0,1.547 0.683,2.373 1.967,2.373 1.299,0 1.982,-0.826 1.982,-2.373 v -0.998 c 0,-1.569 -0.683,-2.373 -1.982,-2.373 -1.284,0 -1.967,0.834 -1.967,2.373"
             style="fill:#000000;fill-opacity:1;fill-rule:nonzero;stroke:none"
             id="path264" />
        </g>
        <g
           id="g266"
           transform="translate(405.4624,1007.9668)">
          <path
             d="M 0,0 2.808,7.47 H 3.363 L 0.556,0 Z"
             style="fill:#000000;fill-opacity:1;fill-rule:nonzero;stroke:none"
             id="path268" />
        </g>
        <g
           id="g270"
           transform="translate(414.6011,1011.5107)">
          <path
             d="m 0,0 v 0.976 c 0,1.261 -0.473,1.907 -1.449,1.907 -0.938,0 -1.434,-0.654 -1.434,-1.907 V 0 c 0,-1.276 0.488,-1.914 1.434,-1.914 C -0.473,-1.914 0,-1.284 0,0 m -3.416,-0.015 v 0.998 c 0,1.547 0.684,2.373 1.967,2.373 1.299,0 1.982,-0.826 1.982,-2.373 v -0.998 c 0,-1.569 -0.683,-2.373 -1.982,-2.373 -1.283,0 -1.967,0.834 -1.967,2.373"
             style="fill:#000000;fill-opacity:1;fill-rule:nonzero;stroke:none"
             id="path272" />
        </g>
        <g
           id="g274"
           transform="translate(417.5073,1007.9668)">
          <path
             d="M 0,0 2.808,7.47 H 3.363 L 0.556,0 Z"
             style="fill:#000000;fill-opacity:1;fill-rule:nonzero;stroke:none"
             id="path276" />
        </g>
        <g
           id="g278"
           transform="translate(426.6763,1010.7749)">
          <path
             d="m 0,0 v 0.368 c 0,0.78 -0.653,1.036 -1.381,1.036 -0.496,0 -1.089,-0.196 -1.532,-0.601 0.008,-1.374 0.495,-1.982 1.441,-1.982 C -0.368,-1.179 0,-0.638 0,0 m -3.446,0.766 v 0.983 c 0,2.064 1.209,2.342 2.275,2.342 0.465,0 0.908,-0.105 1.209,-0.225 V 3.393 c -0.406,0.151 -0.894,0.226 -1.246,0.226 -1.052,0 -1.705,-0.346 -1.705,-2.283 0.375,0.331 0.916,0.541 1.629,0.541 0.991,0 1.817,-0.473 1.817,-1.517 V 0.023 c 0,-0.924 -0.563,-1.675 -2.027,-1.675 -1.374,0 -1.952,0.961 -1.952,2.418"
             style="fill:#000000;fill-opacity:1;fill-rule:nonzero;stroke:none"
             id="path280" />
        </g>
        <g
           id="g282"
           transform="translate(431.3706,1011.5107)">
          <path
             d="m 0,0 v 0.976 c 0,1.261 -0.473,1.907 -1.449,1.907 -0.938,0 -1.434,-0.654 -1.434,-1.907 V 0 c 0,-1.276 0.488,-1.914 1.434,-1.914 C -0.473,-1.914 0,-1.284 0,0 m -3.415,-0.015 v 0.998 c 0,1.547 0.683,2.373 1.966,2.373 1.299,0 1.982,-0.826 1.982,-2.373 v -0.998 c 0,-1.569 -0.683,-2.373 -1.982,-2.373 -1.283,0 -1.966,0.834 -1.966,2.373"
             style="fill:#000000;fill-opacity:1;fill-rule:nonzero;stroke:none"
             id="path284" />
        </g>
        <g
           id="g286"
           transform="translate(365.6699,1003.021)">
          <path
             d="M 0,0 H 1.344 C 2.5,0 2.785,0.285 2.785,0.961 v 0.473 c 0,0.578 -0.345,0.908 -1.224,0.908 H 0 Z m -0.533,-2.823 v 5.631 h 1.944 c 1.149,0 1.907,-0.27 1.907,-1.457 v -0.3 c 0,-1.201 -0.593,-1.516 -1.989,-1.516 H 0 v -2.358 z"
             style="fill:#000000;fill-opacity:1;fill-rule:nonzero;stroke:none"
             id="path288" />
        </g>
        <g
           id="g290"
           transform="translate(372.0918,1000.9717)">
          <path
             d="m 0,0 v 1.231 h -0.713 c -1.111,0 -1.352,-0.21 -1.352,-0.863 V 0.247 c 0,-0.45 0.226,-0.638 0.624,-0.638 0.465,0 1.043,0.165 1.441,0.391 m -2.583,0.27 v 0.173 c 0,1.021 0.751,1.231 1.832,1.231 h 0.758 v 0.218 c 0,0.765 -0.15,1.111 -0.968,1.111 -0.368,0 -0.758,-0.09 -1.126,-0.218 v 0.45 c 0.435,0.136 0.781,0.211 1.231,0.211 1.224,0 1.374,-0.796 1.374,-1.509 v -2.71 H 0.052 l -0.045,0.315 c -0.285,-0.165 -0.901,-0.391 -1.441,-0.391 -0.833,0 -1.149,0.436 -1.149,1.119"
             style="fill:#000000;fill-opacity:1;fill-rule:nonzero;stroke:none"
             id="path292" />
        </g>
        <g
           id="g294"
           transform="translate(373.769,1000.1982)">
          <path
             d="M 0,0 V 4.144 H 0.436 L 0.518,3.799 c 0.428,0.255 0.999,0.42 1.494,0.42 0.773,0 1.231,-0.39 1.231,-1.156 V 0 H 2.726 v 2.853 c 0,0.593 -0.173,0.916 -0.751,0.916 -0.511,0 -0.984,-0.165 -1.457,-0.458 L 0.518,0 Z"
             style="fill:#000000;fill-opacity:1;fill-rule:nonzero;stroke:none"
             id="path296" />
        </g>
        <g
           id="g298"
           transform="translate(378.5171,1001.0015)">
          <path
             d="m 0,0 v 2.883 h -0.676 v 0.45 H 0 V 4.182 L 0.518,4.407 V 3.333 H 1.591 V 2.883 H 0.518 V 0.165 c 0,-0.39 0.09,-0.593 0.39,-0.593 0.24,0 0.511,0.03 0.683,0.105 V -0.758 C 1.441,-0.833 1.156,-0.879 0.878,-0.879 0.27,-0.879 0,-0.541 0,0"
             style="fill:#000000;fill-opacity:1;fill-rule:nonzero;stroke:none"
             id="path300" />
        </g>
        <g
           id="g302"
           transform="translate(383.7319,1002)">
          <path
             d="M 0,0 V 0.556 C 0,1.502 -0.495,1.967 -1.224,1.967 -1.937,1.967 -2.44,1.502 -2.44,0.556 V 0 c 0,-0.946 0.503,-1.411 1.216,-1.411 C -0.495,-1.411 0,-0.946 0,0 m -2.958,0.03 v 0.495 c 0,1.209 0.661,1.885 1.734,1.885 1.081,0 1.742,-0.676 1.742,-1.885 V 0.03 c 0,-1.171 -0.661,-1.884 -1.742,-1.884 -1.073,0 -1.734,0.713 -1.734,1.884"
             style="fill:#000000;fill-opacity:1;fill-rule:nonzero;stroke:none"
             id="path304" />
        </g>
        <g
           id="g306"
           transform="translate(385.3037,1000.1982)">
          <path
             d="M 0,0 V 4.144 H 0.436 L 0.518,3.799 c 0.428,0.255 0.999,0.42 1.494,0.42 0.774,0 1.231,-0.39 1.231,-1.156 V 0 H 2.725 v 2.853 c 0,0.593 -0.172,0.916 -0.75,0.916 -0.511,0 -0.984,-0.165 -1.457,-0.458 L 0.518,0 Z"
             style="fill:#000000;fill-opacity:1;fill-rule:nonzero;stroke:none"
             id="path308" />
        </g>
        <g
           id="g310"
           transform="translate(390.0894,1002.6533)">
          <path
             d="M 0,0 H 2.334 V 0.03 C 2.327,0.683 2.02,1.313 1.141,1.313 0.345,1.313 0.007,0.69 0,0.03 Z m -0.525,-0.646 v 0.413 c 0,1.381 0.668,1.989 1.666,1.989 1.088,0 1.697,-0.548 1.697,-2.056 V -0.443 H 0 v -0.233 c 0,-0.743 0.172,-1.396 1.268,-1.396 0.353,0 0.781,0.045 1.149,0.173 v -0.443 c -0.323,-0.113 -0.698,-0.18 -1.096,-0.18 -1.329,0 -1.846,0.57 -1.846,1.876"
             style="fill:#000000;fill-opacity:1;fill-rule:nonzero;stroke:none"
             id="path312" />
        </g>
        <g
           id="g314"
           transform="translate(395.834,1002.6758)">
          <path
             d="m 0,0 v 0.69 c 0,1.705 0.773,2.538 2.41,2.538 0.503,0 0.923,-0.053 1.283,-0.187 V 2.583 C 3.431,2.665 2.883,2.755 2.394,2.755 1.186,2.755 0.533,2.154 0.533,0.721 v -0.743 c 0,-1.344 0.503,-2.058 1.861,-2.058 0.398,0 0.879,0.038 1.382,0.218 V -2.32 C 3.348,-2.493 2.905,-2.553 2.417,-2.553 0.81,-2.553 0,-1.817 0,0"
             style="fill:#000000;fill-opacity:1;fill-rule:nonzero;stroke:none"
             id="path316" />
        </g>
        <g
           id="g318"
           transform="translate(403.2842,1002)">
          <path
             d="M 0,0 V 0.556 C 0,1.502 -0.496,1.967 -1.224,1.967 -1.937,1.967 -2.44,1.502 -2.44,0.556 V 0 c 0,-0.946 0.503,-1.411 1.216,-1.411 C -0.496,-1.411 0,-0.946 0,0 m -2.957,0.03 v 0.495 c 0,1.209 0.66,1.885 1.733,1.885 1.081,0 1.742,-0.676 1.742,-1.885 V 0.03 c 0,-1.171 -0.661,-1.884 -1.742,-1.884 -1.073,0 -1.733,0.713 -1.733,1.884"
             style="fill:#000000;fill-opacity:1;fill-rule:nonzero;stroke:none"
             id="path320" />
        </g>
        <g
           id="g322"
           transform="translate(407.6191,1002)">
          <path
             d="M 0,0 V 0.556 C 0,1.502 -0.496,1.967 -1.224,1.967 -1.937,1.967 -2.44,1.502 -2.44,0.556 V 0 c 0,-0.946 0.503,-1.411 1.216,-1.411 C -0.496,-1.411 0,-0.946 0,0 m -2.957,0.03 v 0.495 c 0,1.209 0.66,1.885 1.733,1.885 1.082,0 1.742,-0.676 1.742,-1.885 V 0.03 c 0,-1.171 -0.66,-1.884 -1.742,-1.884 -1.073,0 -1.733,0.713 -1.733,1.884"
             style="fill:#000000;fill-opacity:1;fill-rule:nonzero;stroke:none"
             id="path324" />
        </g>
        <g
           id="g326"
           transform="translate(409.1909,1000.1982)">
          <path
             d="M 0,0 V 5.586 L 0.518,5.811 V 0 Z"
             style="fill:#000000;fill-opacity:1;fill-rule:nonzero;stroke:none"
             id="path328" />
        </g>
        <g
           id="g330"
           transform="translate(413.6489,1000.9341)">
          <path
             d="m 0,0 v 2.62 c -0.255,0.21 -0.653,0.413 -1.179,0.413 -0.54,0 -1.164,-0.293 -1.164,-1.216 V 0.863 c 0,-0.78 0.398,-1.186 0.931,-1.186 0.608,0 1.014,0.112 1.412,0.323 m -2.177,-2.297 v 0.443 c 0.278,-0.068 0.698,-0.105 0.991,-0.105 0.885,0 1.186,0.232 1.186,0.983 v 0.511 c -0.368,-0.203 -0.818,-0.316 -1.427,-0.316 -0.991,0 -1.433,0.736 -1.433,1.629 v 0.886 c 0,1.179 0.637,1.749 1.674,1.749 0.57,0 1.013,-0.225 1.216,-0.39 l 0.037,0.308 h 0.451 v -4.407 c 0,-0.931 -0.503,-1.404 -1.727,-1.404 -0.345,0 -0.698,0.053 -0.968,0.113"
             style="fill:#000000;fill-opacity:1;fill-rule:nonzero;stroke:none"
             id="path332" />
        </g>
        <g
           id="g334"
           transform="translate(415.3784,1000.1982)">
          <path
             d="M 0,0 V 4.137 H 0.436 L 0.496,3.746 C 0.773,3.971 1.292,4.204 1.885,4.212 V 3.739 C 1.404,3.731 0.894,3.581 0.518,3.251 V 0 Z"
             style="fill:#000000;fill-opacity:1;fill-rule:nonzero;stroke:none"
             id="path336" />
        </g>
        <g
           id="g338"
           transform="translate(420.2407,1000.9717)">
          <path
             d="m 0,0 v 1.231 h -0.713 c -1.111,0 -1.351,-0.21 -1.351,-0.863 V 0.247 c 0,-0.45 0.225,-0.638 0.623,-0.638 0.465,0 1.043,0.165 1.441,0.391 m -2.582,0.27 v 0.173 c 0,1.021 0.75,1.231 1.831,1.231 h 0.758 v 0.218 c 0,0.765 -0.15,1.111 -0.968,1.111 -0.368,0 -0.758,-0.09 -1.126,-0.218 v 0.45 c 0.435,0.136 0.781,0.211 1.231,0.211 1.224,0 1.374,-0.796 1.374,-1.509 v -2.71 H 0.053 l -0.046,0.315 c -0.285,-0.165 -0.9,-0.391 -1.441,-0.391 -0.833,0 -1.148,0.436 -1.148,1.119"
             style="fill:#000000;fill-opacity:1;fill-rule:nonzero;stroke:none"
             id="path340" />
        </g>
        <g
           id="g342"
           transform="translate(422.4365,998.5991)">
          <path
             d="m 0,0 0.593,1.599 -1.606,4.137 h 0.57 L 0.601,2.958 C 0.691,2.733 0.796,2.402 0.871,2.11 0.931,2.395 1.044,2.748 1.126,2.973 L 2.11,5.736 H 2.658 L 0.533,0 Z"
             style="fill:#000000;fill-opacity:1;fill-rule:nonzero;stroke:none"
             id="path344" />
        </g>
        <g
           id="g346"
           transform="translate(428.459,1000.1982)">
          <path
             d="M 0,0 2.568,5.12 H -0.728 V 5.593 H 3.183 V 5.165 L 0.563,0 Z"
             style="fill:#000000;fill-opacity:1;fill-rule:nonzero;stroke:none"
             id="path348" />
        </g>
        <g
           id="g350"
           transform="translate(432.4331,1002.6758)">
          <path
             d="m 0,0 v 0.69 c 0,1.705 0.773,2.538 2.41,2.538 0.503,0 0.923,-0.053 1.283,-0.187 V 2.583 C 3.431,2.665 2.883,2.755 2.395,2.755 1.186,2.755 0.533,2.154 0.533,0.721 v -0.743 c 0,-1.344 0.503,-2.058 1.862,-2.058 0.398,0 0.878,0.038 1.381,0.218 V -2.32 C 3.348,-2.493 2.905,-2.553 2.417,-2.553 0.811,-2.553 0,-1.817 0,0"
             style="fill:#000000;fill-opacity:1;fill-rule:nonzero;stroke:none"
             id="path352" />
        </g>
        <g
           id="g354"
           transform="translate(366.458,993.3003)">
          <path
             d="m 0,0 h 1.254 l 0.33,1.546 H 0.323 Z m -0.916,-2.102 0.346,1.644 H -1.704 V 0 h 1.231 l 0.33,1.546 h -1.141 v 0.458 h 1.239 L 0.286,3.528 H 0.743 L 0.42,2.004 h 1.262 l 0.33,1.524 H 2.477 L 2.155,2.004 H 3.153 V 1.546 H 2.057 L 1.727,0 H 2.725 V -0.458 H 1.629 L 1.284,-2.102 H 0.811 l 0.345,1.644 H -0.098 L -0.45,-2.102 Z"
             style="fill:#000000;fill-opacity:1;fill-rule:nonzero;stroke:none"
             id="path356" />
        </g>
        <g
           id="g358"
           transform="translate(373.6523,994.4414)">
          <path
             d="M 0,0 C 0,1.299 -0.48,1.952 -1.426,1.952 -2.53,1.952 -2.89,1.404 -2.89,0.773 V 0.405 c 0,-0.833 0.645,-1.043 1.373,-1.043 0.496,0 1.082,0.225 1.517,0.638 m -2.965,-3.101 v 0.466 c 0.413,-0.135 0.953,-0.21 1.276,-0.21 1.089,0 1.689,0.428 1.689,1.877 v 0.412 c -0.368,-0.33 -0.901,-0.563 -1.614,-0.563 -0.991,0 -1.809,0.473 -1.809,1.532 v 0.338 c 0,0.916 0.555,1.674 2.011,1.674 1.299,0 1.945,-0.841 1.945,-2.418 v -1.035 c 0,-1.968 -1.089,-2.29 -2.26,-2.29 -0.488,0 -0.938,0.112 -1.238,0.217"
             style="fill:#000000;fill-opacity:1;fill-rule:nonzero;stroke:none"
             id="path360" />
        </g>
        <g
           id="g362"
           transform="translate(377.5142,991.9717)">
          <path
             d="m 0,0 v 1.231 h -0.713 c -1.111,0 -1.352,-0.21 -1.352,-0.863 V 0.247 c 0,-0.45 0.226,-0.638 0.624,-0.638 0.465,0 1.043,0.165 1.441,0.391 m -2.583,0.27 v 0.173 c 0,1.021 0.751,1.231 1.832,1.231 h 0.758 v 0.218 c 0,0.765 -0.15,1.111 -0.968,1.111 -0.368,0 -0.758,-0.09 -1.126,-0.218 v 0.45 c 0.435,0.136 0.781,0.211 1.231,0.211 1.224,0 1.374,-0.796 1.374,-1.509 v -2.71 H 0.053 l -0.046,0.315 c -0.285,-0.165 -0.901,-0.391 -1.441,-0.391 -0.833,0 -1.149,0.436 -1.149,1.119"
             style="fill:#000000;fill-opacity:1;fill-rule:nonzero;stroke:none"
             id="path364" />
        </g>
        <g
           id="g366"
           transform="translate(382.3672,994.4414)">
          <path
             d="M 0,0 C 0,1.299 -0.48,1.952 -1.426,1.952 -2.53,1.952 -2.89,1.404 -2.89,0.773 V 0.405 c 0,-0.833 0.645,-1.043 1.373,-1.043 0.496,0 1.081,0.225 1.517,0.638 m -2.965,-3.101 v 0.466 c 0.413,-0.135 0.953,-0.21 1.276,-0.21 1.088,0 1.689,0.428 1.689,1.877 v 0.412 c -0.368,-0.33 -0.901,-0.563 -1.614,-0.563 -0.991,0 -1.809,0.473 -1.809,1.532 v 0.338 c 0,0.916 0.555,1.674 2.011,1.674 1.299,0 1.945,-0.841 1.945,-2.418 v -1.035 c 0,-1.968 -1.089,-2.29 -2.26,-2.29 -0.488,0 -0.938,0.112 -1.238,0.217"
             style="fill:#000000;fill-opacity:1;fill-rule:nonzero;stroke:none"
             id="path368" />
        </g>
        <g
           id="g370"
           transform="translate(386.7847,993.1426)">
          <path
             d="m 0,0 v 0.458 c 0,0.871 -0.271,1.366 -0.946,1.366 -0.481,0 -1.029,-0.225 -1.404,-0.45 v -2.545 c 0.315,-0.263 0.811,-0.406 1.209,-0.406 C -0.24,-1.577 0,-1.036 0,0 M -2.373,-1.659 -2.402,-1.944 H -2.868 V 3.641 L -2.35,3.866 V 1.847 c 0.323,0.173 0.856,0.428 1.456,0.428 0.946,0 1.411,-0.713 1.411,-1.599 v -0.879 c 0,-1.028 -0.419,-1.824 -1.606,-1.824 -0.383,0 -0.878,0.083 -1.284,0.368"
             style="fill:#000000;fill-opacity:1;fill-rule:nonzero;stroke:none"
             id="path372" />
        </g>
        <g
           id="g374"
           transform="translate(391.5547,994.4414)">
          <path
             d="M 0,0 C 0,1.299 -0.48,1.952 -1.426,1.952 -2.53,1.952 -2.89,1.404 -2.89,0.773 V 0.405 c 0,-0.833 0.645,-1.043 1.373,-1.043 0.496,0 1.081,0.225 1.517,0.638 m -2.965,-3.101 v 0.466 c 0.413,-0.135 0.953,-0.21 1.276,-0.21 1.088,0 1.689,0.428 1.689,1.877 v 0.412 c -0.368,-0.33 -0.901,-0.563 -1.614,-0.563 -0.991,0 -1.809,0.473 -1.809,1.532 v 0.338 c 0,0.916 0.555,1.674 2.011,1.674 1.299,0 1.945,-0.841 1.945,-2.418 v -1.035 c 0,-1.968 -1.089,-2.29 -2.26,-2.29 -0.488,0 -0.938,0.112 -1.238,0.217"
             style="fill:#000000;fill-opacity:1;fill-rule:nonzero;stroke:none"
             id="path376" />
        </g>
        <g
           id="g378"
           transform="translate(392.9458,993.0303)">
          <path
             d="m 0,0 v 0.405 c 0,1.389 0.668,1.974 1.825,1.974 0.42,0 0.728,-0.052 1.013,-0.149 V 1.794 C 2.598,1.876 2.192,1.937 1.81,1.937 0.804,1.937 0.518,1.231 0.518,0.548 v -0.631 c 0,-0.721 0.195,-1.366 1.276,-1.366 0.361,0 0.759,0.06 1.119,0.18 V -1.712 C 2.59,-1.832 2.23,-1.907 1.832,-1.907 0.541,-1.907 0,-1.321 0,0"
             style="fill:#000000;fill-opacity:1;fill-rule:nonzero;stroke:none"
             id="path380" />
        </g>
        <g
           id="g382"
           transform="translate(924.3082,512.2795)">
          <path
             d="m 0,0 c -1.213,0.78 -3.4,1.152 -4.794,1.152 -3.568,0 -6.143,-1.004 -7.348,-5.13 l -1.43,-4.943 c -0.924,-3.085 -0.14,-4.683 2.771,-4.683 2.173,0 5.095,0.706 7.397,1.895 z m -17.858,-9.219 1.643,5.613 c 1.709,5.947 5.552,8.029 11.128,8.029 1.927,0 4.92,-0.558 5.976,-1.263 l 2.348,7.953 4.388,1.117 -8.268,-28.771 h -3.691 l 0.036,1.598 c -2.635,-1.264 -4.86,-1.97 -7.648,-1.97 -5.699,0 -7.118,3.569 -5.912,7.694"
             style="fill:#9a9b9c;fill-opacity:1;fill-rule:nonzero;stroke:none"
             id="path384" />
        </g>
        <g
           id="g386"
           transform="translate(946.3319,512.9489)">
          <path
             d="m 0,0 c -2.512,-0.149 -5.429,-0.782 -7.916,-2.268 l -4.257,-14.942 h -4.1 l 5.897,20.517 h 3.649 L -6.921,1.226 c 1.553,1.04 4.532,2.527 8.018,2.527 z"
             style="fill:#9a9b9c;fill-opacity:1;fill-rule:nonzero;stroke:none"
             id="path388" />
        </g>
        <g
           id="g390"
           transform="translate(956.9418,520.0853)">
          <path
             d="m 0,0 h -4.1 l 1.165,4.126 h 4.1 z m -6.999,-24.347 h -4.1 l 5.897,20.518 h 4.1 z"
             style="fill:#9a9b9c;fill-opacity:1;fill-rule:nonzero;stroke:none"
             id="path392" />
        </g>
        <g
           id="g394"
           transform="translate(966.0556,495.7386)">
          <path
             d="m 0,0 h -4.756 l -1.73,20.518 h 4.225 L -1.634,7.88 c 0.027,-1.301 0.052,-2.639 0.129,-4.386 h 0.041 c 1.111,1.747 1.866,3.085 2.741,4.386 l 7.9,12.638 h 4.388 z"
             style="fill:#9a9b9c;fill-opacity:1;fill-rule:nonzero;stroke:none"
             id="path396" />
        </g>
        <g
           id="g398"
           transform="translate(988.1825,520.0853)">
          <path
             d="m 0,0 h -4.1 l 1.165,4.126 h 4.1 z m -6.999,-24.347 h -4.1 l 5.897,20.518 h 4.1 z"
             style="fill:#9a9b9c;fill-opacity:1;fill-rule:nonzero;stroke:none"
             id="path400" />
        </g>
        <g
           id="g402"
           transform="translate(1005.5783,495.7386)">
          <path
             d="m 0,0 h -4.1 l 3.972,13.864 c 0.711,2.417 0.605,3.754 -2.101,3.754 -1.968,0 -4.677,-0.595 -7.274,-1.895 L -13.982,0 h -4.099 l 5.897,20.518 h 3.649 L -8.57,18.92 c 2.427,1.226 5.07,2.044 7.448,2.044 4.961,0 6.415,-2.528 5.316,-6.32 z"
             style="fill:#9a9b9c;fill-opacity:1;fill-rule:nonzero;stroke:none"
             id="path404" />
        </g>
        <g
           id="g406"
           transform="translate(1030.3827,511.9071)">
          <path
             d="m 0,0 c -0.833,0.929 -3.086,1.524 -5.505,1.524 -2.747,0 -5.328,-1.077 -6.533,-5.204 l -1.318,-4.534 c -0.982,-3.309 -0.317,-4.87 2.922,-4.87 2.337,0 4.758,0.594 7.082,1.524 z m -17.638,-8.474 1.486,5.166 c 1.704,5.874 5.475,8.103 10.887,8.103 2.133,0 4.877,-0.594 6.263,-1.821 l 0.716,1.375 h 3.649 l -6.219,-21.558 c -1.48,-5.056 -4.225,-7.249 -11.482,-7.249 -1.886,0 -4.285,0.26 -5.699,0.558 l 0.93,3.159 c 1.452,-0.334 3.488,-0.521 4.923,-0.521 4.592,0 6.382,0.93 7.337,4.424 l 0.557,2.007 c -2.206,-1.004 -4.83,-1.562 -7.454,-1.562 -5.74,0 -7.158,3.57 -5.894,7.919"
             style="fill:#9a9b9c;fill-opacity:1;fill-rule:nonzero;stroke:none"
             id="path408" />
        </g>
        <g
           id="g410"
           transform="translate(1063.823,507.8189)">
          <path
             d="m 0,0 0.06,0.26 c 0.839,3.048 0.157,5.465 -3.862,5.465 -3.813,0 -6.041,-2.417 -6.88,-5.465 L -10.742,0 Z m 3.146,-2.937 h -14.76 l -0.225,-0.818 c -0.982,-3.308 -0.525,-5.463 4.846,-5.463 1.722,0 4.196,0.186 6.544,0.891 l -0.924,-3.085 c -2.064,-0.743 -4.381,-1.04 -6.268,-1.04 -7.257,0 -9.9,3.085 -8.027,9.59 l 0.661,2.305 c 1.98,6.839 6.271,9.44 11.683,9.44 5.905,0 9.059,-2.824 6.964,-10.11 z"
             style="fill:#9a9b9c;fill-opacity:1;fill-rule:nonzero;stroke:none"
             id="path412" />
        </g>
        <g
           id="g414"
           transform="translate(1099.1361,495.7386)">
          <path
             d="m 0,0 h -4.101 l 4.028,14.05 c 0.711,2.416 0.303,3.568 -2.034,3.568 -1.639,0 -3.778,-0.631 -6.289,-1.895 L -8.569,15.054 -12.875,0 h -4.1 l 4.028,14.05 c 0.711,2.416 0.303,3.568 -2.075,3.568 -1.64,0 -3.652,-0.595 -6.249,-1.895 L -25.749,0 h -4.1 l 5.897,20.518 h 3.649 l -0.035,-1.598 c 2.22,1.189 4.783,2.044 6.874,2.044 2.87,0 4.492,-0.818 5.032,-2.379 2.857,1.486 5.915,2.379 7.842,2.379 4.675,0 5.998,-2.082 4.896,-5.91 z"
             style="fill:#9a9b9c;fill-opacity:1;fill-rule:nonzero;stroke:none"
             id="path416" />
        </g>
        <g
           id="g418"
           transform="translate(1122.7839,507.3358)">
          <path
             d="M 0,0 C 1.268,4.424 -0.41,6.133 -3.854,6.133 -7.298,6.133 -9.925,4.424 -11.193,0 l -0.767,-2.602 c -1.269,-4.424 0.451,-6.133 3.813,-6.133 3.485,0 6.112,1.709 7.381,6.133 z m 3.323,-2.751 c -1.711,-5.984 -5.804,-9.218 -11.994,-9.218 -6.151,0 -9.089,3.531 -7.377,9.515 l 0.765,2.602 c 1.712,5.985 5.803,9.219 11.954,9.219 6.191,0 9.129,-3.532 7.418,-9.515 z"
             style="fill:#9a9b9c;fill-opacity:1;fill-rule:nonzero;stroke:none"
             id="path420" />
        </g>
        <g
           id="g422"
           transform="translate(1145.3409,513.0228)">
          <path
             d="m 0,0 h -5.863 l -3.311,-11.56 c -0.553,-1.933 -0.326,-2.751 1.397,-2.751 1.27,0 2.72,0.186 3.856,0.595 l -0.924,-3.085 c -1.194,-0.633 -3.096,-0.855 -4.409,-0.855 -3.607,0 -5.231,1.896 -4.294,5.166 L -9.963,0 h -3.609 l 0.976,3.233 h 3.609 l 1.213,4.238 4.389,1.116 -1.502,-5.354 h 5.863 z"
             style="fill:#9a9b9c;fill-opacity:1;fill-rule:nonzero;stroke:none"
             id="path424" />
        </g>
        <g
           id="g426"
           transform="translate(1156.1917,520.0853)">
          <path
             d="m 0,0 h -4.1 l 1.165,4.126 h 4.1 z m -7,-24.347 h -4.099 l 5.897,20.518 h 4.1 z"
             style="fill:#9a9b9c;fill-opacity:1;fill-rule:nonzero;stroke:none"
             id="path428" />
        </g>
        <g
           id="g430"
           transform="translate(1173.1295,507.3358)">
          <path
             d="M 0,0 C 1.268,4.424 -0.41,6.133 -3.854,6.133 -7.298,6.133 -9.925,4.424 -11.193,0 l -0.767,-2.602 c -1.269,-4.424 0.451,-6.133 3.813,-6.133 3.485,0 6.112,1.709 7.381,6.133 z m 3.323,-2.751 c -1.711,-5.984 -5.804,-9.218 -11.994,-9.218 -6.151,0 -9.089,3.531 -7.377,9.515 l 0.765,2.602 c 1.711,5.985 5.803,9.219 11.953,9.219 6.192,0 9.13,-3.532 7.418,-9.515 z"
             style="fill:#9a9b9c;fill-opacity:1;fill-rule:nonzero;stroke:none"
             id="path432" />
        </g>
        <g
           id="g434"
           transform="translate(1197.1613,495.7386)">
          <path
             d="m 0,0 h -4.1 l 3.972,13.864 c 0.711,2.417 0.605,3.754 -2.102,3.754 -1.968,0 -4.676,-0.595 -7.273,-1.895 L -13.982,0 h -4.099 l 5.896,20.518 h 3.65 L -8.57,18.92 c 2.427,1.226 5.07,2.044 7.448,2.044 4.961,0 6.415,-2.528 5.316,-6.32 z"
             style="fill:#9a9b9c;fill-opacity:1;fill-rule:nonzero;stroke:none"
             id="path436" />
        </g>
        <g
           id="g438"
           transform="translate(1191.2504,558.7562)">
          <path
             d="M 0,0 10.388,-24.502 H -7.116 l -9.408,25.522 -7.211,-25.522 h -16.83 l 14.691,51.113 H -9.062 L -15.523,4.444 c 0,0 10.318,5.435 18.443,22.167 H 20.711 C 12.172,8.299 0,0 0,0"
             style="fill:#000000;fill-opacity:1;fill-rule:nonzero;stroke:none"
             id="path440" />
        </g>
        <g
           id="g442"
           transform="translate(981.9843,570.7126)">
          <path
             d="m 0,0 -10.276,-36.459 h -16.822 l 9.311,33.041 c 0.778,2.842 1.313,5.116 0.188,6.188 -1.008,0.961 -2.469,1.081 -4.273,1.081 l -8.729,-0.262 -11.505,-40.048 h -16.813 l 14.632,51.096 c 1.995,0.102 16.946,0.81 31.795,1.156 5.696,0.143 9.621,-1.139 11.696,-3.803 C 1.254,9.351 1.523,5.312 0,0"
             style="fill:#000000;fill-opacity:1;fill-rule:nonzero;stroke:none"
             id="path444" />
        </g>
        <g
           id="g446"
           transform="translate(1022.0237,558.7562)">
          <path
             d="M 0,0 10.388,-24.502 H -7.116 l -9.408,25.522 -7.211,-25.522 h -16.829 l 14.69,51.113 H -9.061 L -15.523,4.444 c 0,0 10.318,5.435 18.443,22.167 H 20.711 C 12.172,8.299 0,0 0,0"
             style="fill:#000000;fill-opacity:1;fill-rule:nonzero;stroke:none"
             id="path448" />
        </g>
        <g
           id="g450"
           transform="translate(1075.4014,562.7952)">
          <path
             d="m 0,0 -1.774,-6.164 c -2.344,-8.145 -6.11,-11.618 -12.611,-11.618 -2.926,0 -4.881,0.708 -5.985,2.15 -1.425,1.872 -1.461,4.941 -0.11,9.654 l 1.774,6.172 c 2.345,8.136 6.11,11.61 12.611,11.61 2.926,0 4.881,-0.7 5.985,-2.141 C 1.315,7.782 1.351,4.713 0,0 m 15.841,17.504 c -3.146,4.149 -9.307,6.248 -18.303,6.248 -17.454,0 -28.534,-7.774 -32.924,-23.103 l -2.149,-7.462 c -2.086,-7.26 -1.672,-12.867 1.213,-16.661 3.147,-4.148 9.308,-6.248 18.304,-6.248 17.454,0 28.534,7.774 32.924,23.103 l 2.149,7.462 c 2.086,7.251 1.672,12.858 -1.214,16.661"
             style="fill:#000000;fill-opacity:1;fill-rule:nonzero;stroke:none"
             id="path452" />
        </g>
        <g
           id="g454"
           transform="translate(1134.4789,562.7952)">
          <path
             d="m 0,0 -1.774,-6.164 c -2.336,-8.145 -6.11,-11.618 -12.611,-11.618 -2.926,0 -4.881,0.708 -5.976,2.15 -1.426,1.872 -1.462,4.941 -0.119,9.654 l 1.774,6.172 c 2.345,8.136 6.119,11.61 12.611,11.61 2.926,0 4.881,-0.7 5.985,-2.141 C 1.316,7.782 1.352,4.713 0,0 m 15.842,17.504 c -3.147,4.149 -9.308,6.248 -18.304,6.248 -17.454,0 -28.534,-7.774 -32.924,-23.103 l -2.149,-7.462 c -2.078,-7.26 -1.672,-12.867 1.213,-16.661 3.147,-4.148 9.308,-6.248 18.313,-6.248 17.453,0 28.525,7.774 32.915,23.103 l 2.149,7.462 c 2.087,7.251 1.681,12.858 -1.213,16.661"
             style="fill:#000000;fill-opacity:1;fill-rule:nonzero;stroke:none"
             id="path456" />
        </g>
        <g
           id="g458"
           transform="translate(900.2149,544.6633)">
          <path
             d="m 0,0 -8.202,-0.235 c -2.059,0 -3.962,-0.089 -5.487,1.542 -1.016,1.086 -1.707,2.89 -1.323,4.709 1.096,5.182 7.05,5.952 11.966,5.952 h 6.527 z m 23.293,35.122 c -1.286,2.386 -3.651,4.089 -7.226,5.203 -2.734,0.834 -6.219,1.331 -10.38,1.475 -0.151,0 -15.072,0.237 -24.063,-1.516 L -21.24,30.14 c 9.066,1.029 17.66,1.322 21.372,1.204 4.025,-0.134 5.943,-0.657 6.839,-1.871 0.774,-1.046 0.841,-2.611 0.004,-5.38 L 6.423,22.085 H 0.049 c -17.802,0 -28.31,-2.275 -31.565,-14.248 -1.248,-4.604 -0.668,-9.424 1.94,-12.822 2.794,-3.651 6.573,-5.425 13.052,-5.425 h 30.059 l 9.713,33.399 c 1.583,5.286 1.603,9.249 0.045,12.133"
             style="fill:#000000;fill-opacity:1;fill-rule:nonzero;stroke:none"
             id="path460" />
        </g>
        <g
           id="g462"
           transform="translate(854.6061,585.3583)">
          <path
             d="m 0,0 -5.502,-19.315 h -15.06 L -15.06,0 H -31.999 L -46.63,-51.105 h 16.905 l 5.833,20.149 h 15.068 l -5.832,-20.149 H 2.308 L 16.931,0 Z"
             style="fill:#000000;fill-opacity:1;fill-rule:nonzero;stroke:none"
             id="path464" />
        </g>
        <g
           id="g466"
           transform="translate(798.0893,592.5513)">
          <path
             d="m 0,0 c -1.874,-17.925 -12.767,-33.212 -28.132,-41.38 -0.434,-0.231 -0.837,0.352 -0.459,0.664 11.89,9.862 19.666,24.386 20.425,40.716 h -15.079 c -1.858,-13.884 -10.62,-25.622 -22.778,-31.752 -0.428,-0.215 -0.813,0.349 -0.455,0.665 8.767,7.739 14.496,18.751 15.215,31.087 h -15.114 c -1.068,-6.301 -4.297,-11.762 -8.45,-16.307 -10.21,-11.175 -26.699,-12.414 -34.7,-11.789 0,0 -0.377,0.062 -0.496,-0.237 -0.128,-0.321 0.231,-0.523 0.231,-0.523 13.302,-7.467 23.889,-14.532 43.173,-28.718 4.736,-3.483 9.212,-4.49 13.914,-3.389 C -2.644,-53.918 14.847,-22.83 15.036,0 Z"
             style="fill:#ec6608;fill-opacity:1;fill-rule:nonzero;stroke:none"
             id="path468" />
        </g>
        <path
           d="M 73.73,991 H 45.497 v 48.42 H 73.73 Z"
           style="fill:#ec6608;fill-opacity:1;fill-rule:nonzero;stroke:none"
           id="path470" />
        <g
           id="g472"
           transform="translate(82.7534,1031.6201)">
          <path
             d="M 0,0 V 5.996 H 1.232 V 3.638 h 2.35 V 5.996 H 4.814 V 0 H 3.582 V 2.534 H 1.232 L 1.232,0 Z"
             style="fill:#000000;fill-opacity:1;fill-rule:nonzero;stroke:none"
             id="path474" />
        </g>
        <g
           id="g476"
           transform="translate(88.6733,1031.6201)">
          <path
             d="M 0,0 V 5.996 H 1.231 V 3.525 H 1.887 L 3.43,5.996 H 4.853 L 2.886,3.046 5.085,0 H 3.63 L 1.887,2.534 H 1.231 V 0 Z"
             style="fill:#000000;fill-opacity:1;fill-rule:nonzero;stroke:none"
             id="path478" />
        </g>
        <g
           id="g480"
           transform="translate(100.5591,1034.2344)">
          <path
             d="m 0,0 v 0.768 c 0,1.167 -0.488,1.647 -1.431,1.647 -0.943,0 -1.431,-0.472 -1.431,-1.647 V 0 c 0,-1.175 0.495,-1.647 1.431,-1.647 C -0.488,-1.647 0,-1.175 0,0 m -4.118,-0.096 v 0.959 c 0,1.72 1.015,2.623 2.687,2.623 1.678,0 2.678,-0.903 2.678,-2.623 v -0.959 c 0,-1.727 -0.991,-2.623 -2.678,-2.623 -1.679,0 -2.687,0.888 -2.687,2.623"
             style="fill:#000000;fill-opacity:1;fill-rule:nonzero;stroke:none"
             id="path482" />
        </g>
        <g
           id="g484"
           transform="translate(102.6572,1031.6201)">
          <path
             d="m 0,0 v 4.421 h 0.927 l 0.096,-0.56 c 0.352,0.336 0.856,0.632 1.6,0.664 V 3.382 C 2.103,3.366 1.559,3.23 1.199,2.95 V 0 Z"
             style="fill:#000000;fill-opacity:1;fill-rule:nonzero;stroke:none"
             id="path486" />
        </g>
        <g
           id="g488"
           transform="translate(108.3037,1032.6914)">
          <path
             d="m 0,0 v 0.896 h -0.583 c -0.6,0 -0.88,-0.121 -0.88,-0.625 V 0.176 c 0,-0.344 0.136,-0.472 0.464,-0.472 0.256,0 0.743,0.112 0.999,0.296 m -2.638,0.112 v 0.247 c 0,1.024 0.751,1.296 2.071,1.296 H 0 v 0.24 c 0,0.528 -0.128,0.696 -0.768,0.696 -0.327,0 -0.911,-0.088 -1.358,-0.265 v 0.872 c 0.463,0.16 1.079,0.256 1.519,0.256 1.407,0 1.767,-0.647 1.767,-1.6 V -1.071 H 0.232 l -0.104,0.384 c -0.32,-0.233 -0.943,-0.464 -1.503,-0.464 -0.831,0 -1.263,0.376 -1.263,1.263"
             style="fill:#000000;fill-opacity:1;fill-rule:nonzero;stroke:none"
             id="path490" />
        </g>
        <g
           id="g492"
           transform="translate(110.4092,1031.6201)">
          <path
             d="M 0,0 V 4.421 H 0.936 L 1.023,4.054 C 1.471,4.35 2.047,4.525 2.495,4.525 3.542,4.525 3.894,3.989 3.894,3.19 V 0 h -1.2 v 2.902 c 0,0.432 -0.08,0.64 -0.495,0.64 -0.296,0 -0.696,-0.104 -1,-0.32 L 1.199,0 Z"
             style="fill:#000000;fill-opacity:1;fill-rule:nonzero;stroke:none"
             id="path494" />
        </g>
        <g
           id="g496"
           transform="translate(118.0713,1032.7393)">
          <path
             d="m 0,0 v 2.175 c -0.191,0.168 -0.544,0.28 -0.879,0.28 -0.488,0 -0.832,-0.2 -0.832,-0.912 V 0.6 c 0,-0.552 0.184,-0.808 0.704,-0.808 0.367,0 0.712,0.064 1.007,0.208 m -2.095,-2.774 v 0.879 c 0.328,-0.08 0.736,-0.12 1.08,-0.12 0.759,0 1.015,0.176 1.015,0.768 v 0.384 c -0.344,-0.2 -0.815,-0.304 -1.303,-0.304 -1.176,0 -1.607,0.647 -1.607,1.535 v 1.239 c 0,1.272 0.727,1.799 1.775,1.799 0.416,0 0.927,-0.095 1.287,-0.376 L 0.24,3.302 H 1.2 v -4.438 c 0,-1.167 -0.488,-1.766 -2.127,-1.766 -0.424,0 -0.864,0.063 -1.168,0.128"
             style="fill:#000000;fill-opacity:1;fill-rule:nonzero;stroke:none"
             id="path498" />
        </g>
        <g
           id="g500"
           transform="translate(121.2964,1034.2109)">
          <path
             d="m 0,0 h 1.727 v 0.128 c 0,0.543 -0.24,0.927 -0.863,0.927 C 0.28,1.055 0,0.679 0,0.111 Z m -1.167,-0.664 v 0.536 c 0,1.471 0.895,2.063 2.015,2.063 1.215,0 2.015,-0.52 2.015,-2.167 V -0.76 H 0 v -0.12 c 0,-0.655 0.328,-0.92 1.184,-0.92 0.351,0 0.871,0.048 1.287,0.2 v -0.839 c -0.352,-0.16 -0.968,-0.24 -1.415,-0.24 -1.504,0 -2.223,0.608 -2.223,2.015"
             style="fill:#000000;fill-opacity:1;fill-rule:nonzero;stroke:none"
             id="path502" />
        </g>
        <path
           d="m 217.73,991 h -28.233 v 48.42 h 28.233 z"
           style="fill:#000000;fill-opacity:1;fill-rule:nonzero;stroke:none"
           id="path504" />
        <g
           id="g506"
           transform="translate(227.9849,1032.5156)">
          <path
             d="m 0,0 h 0.959 c 0.848,0 1.064,0.144 1.064,0.72 v 0.319 c 0,0.544 -0.232,0.735 -0.968,0.735 H 0 Z m 0,2.622 h 1.007 c 0.488,0 0.816,0.105 0.816,0.704 v 0.279 c 0,0.497 -0.216,0.6 -0.888,0.6 L 0,4.205 Z m -1.232,-3.518 v 5.997 h 2.351 c 1.184,0 1.967,-0.232 1.967,-1.32 V 3.374 C 3.086,2.902 2.926,2.454 2.334,2.255 3.022,2.118 3.294,1.711 3.294,1.159 V 0.527 c 0,-1.151 -0.688,-1.423 -2.199,-1.423 z"
             style="fill:#000000;fill-opacity:1;fill-rule:nonzero;stroke:none"
             id="path508" />
        </g>
        <g
           id="g510"
           transform="translate(232.1216,1031.6201)">
          <path
             d="m 0,0 v 5.948 l 1.199,0.24 V 0 Z"
             style="fill:#000000;fill-opacity:1;fill-rule:nonzero;stroke:none"
             id="path512" />
        </g>
        <g
           id="g514"
           transform="translate(236.7114,1032.6914)">
          <path
             d="m 0,0 v 0.896 h -0.583 c -0.6,0 -0.88,-0.121 -0.88,-0.625 V 0.176 c 0,-0.344 0.136,-0.472 0.464,-0.472 0.255,0 0.743,0.112 0.999,0.296 m -2.638,0.112 v 0.247 c 0,1.024 0.751,1.296 2.071,1.296 H 0 v 0.24 c 0,0.528 -0.128,0.696 -0.768,0.696 -0.327,0 -0.911,-0.088 -1.358,-0.265 v 0.872 c 0.463,0.16 1.079,0.256 1.519,0.256 1.407,0 1.767,-0.647 1.767,-1.6 V -1.071 H 0.232 l -0.104,0.384 c -0.32,-0.233 -0.943,-0.464 -1.503,-0.464 -0.831,0 -1.263,0.376 -1.263,1.263"
             style="fill:#000000;fill-opacity:1;fill-rule:nonzero;stroke:none"
             id="path516" />
        </g>
        <g
           id="g518"
           transform="translate(238.665,1033.5225)">
          <path
             d="m 0,0 v 0.552 c 0,1.479 0.776,2.071 2.183,2.071 0.448,0 0.96,-0.064 1.279,-0.192 V 1.567 C 3.207,1.64 2.791,1.712 2.351,1.712 c -0.895,0 -1.16,-0.393 -1.16,-1.12 v -0.56 c 0,-0.767 0.256,-1.095 1.168,-1.095 0.352,0 0.76,0.04 1.183,0.192 V -1.774 C 3.183,-1.935 2.567,-1.998 2.191,-1.998 0.704,-1.998 0,-1.407 0,0"
             style="fill:#000000;fill-opacity:1;fill-rule:nonzero;stroke:none"
             id="path520" />
        </g>
        <g
           id="g522"
           transform="translate(243.0171,1031.6201)">
          <path
             d="m 0,0 v 5.948 l 1.199,0.24 V 2.862 H 1.663 L 2.782,4.421 H 4.118 L 2.622,2.398 4.182,0 H 2.758 L 1.599,1.895 h -0.4 L 1.199,0 Z"
             style="fill:#000000;fill-opacity:1;fill-rule:nonzero;stroke:none"
             id="path524" />
        </g>
        <path
           d="m 355.73,991 h -28.233 v 48.42 h 28.233 z"
           style="fill:#9a9b9c;fill-opacity:1;fill-rule:nonzero;stroke:none"
           id="path526" />
        <g
           id="g528"
           transform="translate(364.7534,1031.6201)">
          <path
             d="M 0,0 V 5.996 H 1.232 V 3.638 h 2.35 V 5.996 H 4.814 V 0 H 3.582 V 2.534 H 1.232 L 1.232,0 Z"
             style="fill:#000000;fill-opacity:1;fill-rule:nonzero;stroke:none"
             id="path530" />
        </g>
        <g
           id="g532"
           transform="translate(370.6733,1031.6201)">
          <path
             d="M 0,0 V 5.996 H 1.232 V 3.525 H 1.887 L 3.43,5.996 H 4.853 L 2.886,3.046 5.085,0 H 3.63 L 1.887,2.534 H 1.232 V 0 Z"
             style="fill:#000000;fill-opacity:1;fill-rule:nonzero;stroke:none"
             id="path534" />
        </g>
        <g
           id="g536"
           transform="translate(378.4893,1034.1064)">
          <path
             d="M 0,0 V 0.943 C 0,2.942 0.896,3.59 2.75,3.59 3.302,3.59 3.966,3.526 4.357,3.391 V 2.398 C 3.982,2.486 3.382,2.543 2.895,2.543 1.503,2.543 1.247,2.015 1.247,1.071 V 0 c 0,-0.991 0.272,-1.527 1.679,-1.527 0.216,0 0.448,0.016 0.672,0.056 v 1.423 H 2.566 V 0.896 H 4.789 V -2.287 C 4.229,-2.503 3.446,-2.566 2.798,-2.566 0.792,-2.566 0,-1.887 0,0"
             style="fill:#000000;fill-opacity:1;fill-rule:nonzero;stroke:none"
             id="path538" />
        </g>
        <g
           id="g540"
           transform="translate(384.2334,1031.6201)">
          <path
             d="m 0,0 v 4.421 h 0.927 l 0.096,-0.56 c 0.352,0.336 0.856,0.632 1.6,0.664 V 3.382 C 2.102,3.366 1.559,3.23 1.199,2.95 V 0 Z"
             style="fill:#000000;fill-opacity:1;fill-rule:nonzero;stroke:none"
             id="path542" />
        </g>
        <g
           id="g544"
           transform="translate(389.8794,1032.6914)">
          <path
             d="m 0,0 v 0.896 h -0.583 c -0.6,0 -0.88,-0.121 -0.88,-0.625 V 0.176 c 0,-0.344 0.136,-0.472 0.463,-0.472 0.256,0 0.744,0.112 1,0.296 m -2.638,0.112 v 0.247 c 0,1.024 0.751,1.296 2.071,1.296 H 0 v 0.24 c 0,0.528 -0.128,0.696 -0.768,0.696 -0.327,0 -0.911,-0.088 -1.358,-0.265 v 0.872 c 0.463,0.16 1.079,0.256 1.519,0.256 1.407,0 1.767,-0.647 1.767,-1.6 V -1.071 H 0.232 l -0.104,0.384 c -0.32,-0.233 -0.943,-0.464 -1.503,-0.464 -0.832,0 -1.263,0.376 -1.263,1.263"
             style="fill:#000000;fill-opacity:1;fill-rule:nonzero;stroke:none"
             id="path546" />
        </g>
        <g
           id="g548"
           transform="translate(392.585,1029.917)">
          <path
             d="M 0,0 0.607,1.711 -1.047,6.124 H 0.208 L 1.023,3.63 C 1.103,3.382 1.199,2.998 1.263,2.687 1.351,3.086 1.423,3.39 1.495,3.63 L 2.287,6.124 H 3.47 L 1.247,0 Z"
             style="fill:#000000;fill-opacity:1;fill-rule:nonzero;stroke:none"
             id="path550" />
        </g>
        <g
           id="g552"
           transform="translate(396.9688,1031.6201)">
          <path
             d="m 0,0 v 0.936 h 1.335 v 3.75 L -0.048,4.037 V 5.061 L 1.775,5.956 H 2.583 V 0.936 H 3.798 V 0 Z"
             style="fill:#000000;fill-opacity:1;fill-rule:nonzero;stroke:none"
             id="path554" />
        </g>
        <g
           id="g556"
           transform="translate(83.6699,1021.1035)">
          <path
             d="M 0,0 H 1.396 C 2.545,0 2.77,0.308 2.77,0.946 v 0.42 C 2.77,1.967 2.402,2.26 1.569,2.26 H 0 Z m -0.533,-2.905 v 5.63 h 1.99 c 1.148,0 1.854,-0.292 1.854,-1.456 V 1.014 C 3.311,0.165 3.003,-0.27 2.26,-0.428 l 1.268,-2.477 h -0.57 l -1.254,2.44 H 0 v -2.44 z"
             style="fill:#000000;fill-opacity:1;fill-rule:nonzero;stroke:none"
             id="path558" />
        </g>
        <g
           id="g560"
           transform="translate(87.8843,1020.623)">
          <path
             d="m 0,0 v 0.781 c 0,1.764 0.833,2.5 2.477,2.5 0.503,0 0.931,-0.053 1.261,-0.18 V 2.643 C 3.453,2.74 2.928,2.808 2.462,2.808 1.021,2.808 0.533,2.065 0.533,0.781 V 0.023 c 0,-1.389 0.488,-2.05 1.967,-2.05 0.39,0 0.811,0.03 1.164,0.12 v 1.99 H 2.342 V 0.548 H 4.196 V -2.229 C 3.738,-2.432 3.063,-2.5 2.492,-2.5 0.841,-2.5 0,-1.824 0,0"
             style="fill:#000000;fill-opacity:1;fill-rule:nonzero;stroke:none"
             id="path562" />
        </g>
        <g
           id="g564"
           transform="translate(93.7051,1018.6636)">
          <path
             d="M 0,0 H 1.313 C 2.372,0 2.71,0.286 2.71,0.886 v 0.458 c 0,0.533 -0.451,0.901 -1.224,0.901 H 0 Z m 0,2.703 h 1.366 c 0.676,0 1.133,0.217 1.133,0.863 v 0.36 C 2.499,4.444 2.162,4.7 1.246,4.7 H 0 Z m -0.533,-3.168 v 5.63 h 1.606 c 1.194,0 1.96,-0.232 1.96,-1.366 V 3.641 C 3.033,3.108 2.86,2.665 2.267,2.515 2.883,2.395 3.243,1.967 3.243,1.412 V 0.856 c 0,-1.043 -0.646,-1.321 -2.102,-1.321 z"
             style="fill:#000000;fill-opacity:1;fill-rule:nonzero;stroke:none"
             id="path566" />
        </g>
        <g
           id="g568"
           transform="translate(99.9663,1018.1982)">
          <path
             d="M 0,0 V 0.518 L 2.109,2.53 C 2.808,3.206 3.04,3.573 3.04,4.204 v 0.038 c 0,0.645 -0.525,0.953 -1.343,0.953 -0.586,0 -1.119,-0.172 -1.532,-0.337 v 0.465 c 0.338,0.15 0.938,0.345 1.501,0.345 1.33,0 1.907,-0.57 1.907,-1.426 V 4.204 C 3.573,3.333 3.168,2.868 2.447,2.185 L 0.623,0.473 H 3.776 V 0 Z"
             style="fill:#000000;fill-opacity:1;fill-rule:nonzero;stroke:none"
             id="path570" />
        </g>
        <g
           id="g572"
           transform="translate(104.6763,1018.4233)">
          <path
             d="M 0,0 V 0.465 C 0.428,0.3 1.163,0.173 1.719,0.173 c 1.059,0 1.404,0.465 1.404,1.103 0,0.834 -0.458,1.134 -1.231,1.134 H 1.014 V 2.876 H 1.93 c 0.765,0 1.021,0.427 1.021,1.118 C 2.951,4.662 2.433,4.97 1.622,4.97 1.096,4.97 0.54,4.82 0.15,4.662 V 5.128 C 0.518,5.278 1.043,5.443 1.644,5.443 2.92,5.443 3.491,4.865 3.491,3.957 3.491,3.566 3.446,2.936 2.778,2.658 3.431,2.44 3.656,1.99 3.656,1.276 3.656,0.271 3.04,-0.3 1.712,-0.3 1.051,-0.3 0.376,-0.15 0,0"
             style="fill:#000000;fill-opacity:1;fill-rule:nonzero;stroke:none"
             id="path574" />
        </g>
        <g
           id="g576"
           transform="translate(112.7197,1019.7749)">
          <path
             d="m 0,0 v 0.368 c 0,0.78 -0.653,1.036 -1.381,1.036 -0.496,0 -1.089,-0.196 -1.532,-0.601 0.008,-1.374 0.496,-1.982 1.442,-1.982 C -0.368,-1.179 0,-0.638 0,0 m -3.446,0.766 v 0.983 c 0,2.064 1.209,2.342 2.275,2.342 0.466,0 0.908,-0.105 1.209,-0.225 V 3.393 c -0.406,0.151 -0.894,0.226 -1.246,0.226 -1.052,0 -1.705,-0.346 -1.705,-2.283 0.375,0.331 0.916,0.541 1.629,0.541 0.991,0 1.817,-0.473 1.817,-1.517 V 0.023 c 0,-0.924 -0.563,-1.675 -2.027,-1.675 -1.374,0 -1.952,0.961 -1.952,2.418"
             style="fill:#000000;fill-opacity:1;fill-rule:nonzero;stroke:none"
             id="path578" />
        </g>
        <g
           id="g580"
           transform="translate(115.5952,1016.9668)">
          <path
             d="M 0,0 2.808,7.47 H 3.363 L 0.556,0 Z"
             style="fill:#000000;fill-opacity:1;fill-rule:nonzero;stroke:none"
             id="path582" />
        </g>
        <g
           id="g584"
           transform="translate(121.9487,1018.1982)">
          <path
             d="m 0,0 v 0.465 h 1.337 v 4.58 L 0,4.384 V 4.895 L 1.412,5.593 H 1.87 V 0.465 H 3.063 L 3.063,0 Z"
             style="fill:#000000;fill-opacity:1;fill-rule:nonzero;stroke:none"
             id="path586" />
        </g>
        <g
           id="g588"
           transform="translate(129.4595,1020.5107)">
          <path
             d="m 0,0 v 0.976 c 0,1.261 -0.473,1.907 -1.449,1.907 -0.939,0 -1.434,-0.654 -1.434,-1.907 V 0 c 0,-1.276 0.488,-1.914 1.434,-1.914 C -0.473,-1.914 0,-1.284 0,0 m -3.416,-0.015 v 0.998 c 0,1.547 0.683,2.373 1.967,2.373 1.299,0 1.982,-0.826 1.982,-2.373 v -0.998 c 0,-1.569 -0.683,-2.373 -1.982,-2.373 -1.284,0 -1.967,0.834 -1.967,2.373"
             style="fill:#000000;fill-opacity:1;fill-rule:nonzero;stroke:none"
             id="path590" />
        </g>
        <g
           id="g592"
           transform="translate(130.9106,1018.1982)">
          <path
             d="M 0,0 V 0.518 L 2.109,2.53 c 0.699,0.676 0.932,1.043 0.932,1.674 v 0.038 c 0,0.645 -0.526,0.953 -1.344,0.953 -0.586,0 -1.119,-0.172 -1.532,-0.337 v 0.465 c 0.338,0.15 0.939,0.345 1.502,0.345 1.329,0 1.906,-0.57 1.906,-1.426 V 4.204 C 3.573,3.333 3.168,2.868 2.447,2.185 L 0.623,0.473 H 3.776 V 0 Z"
             style="fill:#000000;fill-opacity:1;fill-rule:nonzero;stroke:none"
             id="path594" />
        </g>
        <g
           id="g596"
           transform="translate(137.0898,1016.9668)">
          <path
             d="M 0,0 2.808,7.47 H 3.363 L 0.556,0 Z"
             style="fill:#000000;fill-opacity:1;fill-rule:nonzero;stroke:none"
             id="path598" />
        </g>
        <g
           id="g600"
           transform="translate(142.9653,1021.2314)">
          <path
             d="m 0,0 0.36,0.135 c 0.496,0.188 0.804,0.428 0.804,0.923 0,0.601 -0.398,1.104 -1.382,1.104 -0.998,0 -1.336,-0.488 -1.336,-1.096 0,-0.473 0.398,-0.766 0.953,-0.909 z m 1.321,-1.607 c 0,0.556 -0.435,0.909 -1.171,1.089 l -0.383,0.09 -0.263,-0.068 c -0.54,-0.165 -1.171,-0.48 -1.171,-1.103 0,-0.624 0.436,-1.043 1.502,-1.043 1.066,0 1.486,0.412 1.486,1.035 m -3.521,0.06 c 0,0.511 0.451,1.126 1.239,1.337 -0.676,0.187 -1.126,0.66 -1.126,1.291 0,0.931 0.608,1.554 1.9,1.554 1.26,0 1.891,-0.638 1.891,-1.569 0,-0.616 -0.413,-1.111 -1.066,-1.276 0.713,-0.188 1.224,-0.683 1.224,-1.344 0,-0.954 -0.623,-1.554 -1.997,-1.554 -1.577,0 -2.065,0.653 -2.065,1.561"
             style="fill:#000000;fill-opacity:1;fill-rule:nonzero;stroke:none"
             id="path602" />
        </g>
        <g
           id="g604"
           transform="translate(82.9268,1011.6758)">
          <path
             d="m 0,0 v 0.69 c 0,1.705 0.773,2.538 2.41,2.538 0.503,0 0.923,-0.053 1.283,-0.187 V 2.583 C 3.431,2.665 2.883,2.755 2.395,2.755 1.186,2.755 0.533,2.154 0.533,0.721 v -0.743 c 0,-1.344 0.503,-2.058 1.862,-2.058 0.397,0 0.878,0.038 1.381,0.218 V -2.32 C 3.348,-2.493 2.905,-2.553 2.417,-2.553 0.811,-2.553 0,-1.817 0,0"
             style="fill:#000000;fill-opacity:1;fill-rule:nonzero;stroke:none"
             id="path606" />
        </g>
        <g
           id="g608"
           transform="translate(87.689,1009.1982)">
          <path
             d="M 0,0 V 5.63 H 0.781 L 2.35,1.284 C 2.433,1.051 2.522,0.69 2.59,0.421 2.642,0.69 2.733,1.051 2.808,1.276 L 4.287,5.63 H 5.075 V 0 H 4.564 v 4.167 c 0,0.277 0.008,0.72 0.045,1.103 C 4.542,4.91 4.444,4.534 4.354,4.272 L 2.891,0 H 2.267 L 0.736,4.272 c -0.105,0.3 -0.18,0.6 -0.263,0.983 0.03,-0.383 0.03,-0.803 0.03,-1.104 V 0 Z"
             style="fill:#000000;fill-opacity:1;fill-rule:nonzero;stroke:none"
             id="path610" />
        </g>
        <g
           id="g612"
           transform="translate(95.3628,1009.1982)">
          <path
             d="m 0,0 v 2.38 l -1.884,3.25 h 0.593 L -0.15,3.604 C -0.007,3.371 0.143,3.063 0.278,2.763 0.398,3.056 0.556,3.356 0.698,3.604 L 1.824,5.63 H 2.388 L 0.533,2.395 V 0 Z"
             style="fill:#000000;fill-opacity:1;fill-rule:nonzero;stroke:none"
             id="path614" />
        </g>
        <g
           id="g616"
           transform="translate(98.4741,1009.1982)">
          <path
             d="M 0,0 V 5.63 H 0.533 V 3.063 H 1.224 L 3.191,5.63 H 3.814 L 1.674,2.883 3.979,0 H 3.333 L 1.276,2.59 H 0.533 V 0 Z"
             style="fill:#000000;fill-opacity:1;fill-rule:nonzero;stroke:none"
             id="path618" />
        </g>
        <g
           id="g620"
           transform="translate(108.5122,1011.5107)">
          <path
             d="m 0,0 v 0.976 c 0,1.261 -0.473,1.907 -1.449,1.907 -0.939,0 -1.434,-0.654 -1.434,-1.907 V 0 c 0,-1.276 0.488,-1.914 1.434,-1.914 C -0.473,-1.914 0,-1.284 0,0 m -3.416,-0.015 v 0.998 c 0,1.547 0.683,2.373 1.967,2.373 1.299,0 1.982,-0.826 1.982,-2.373 v -0.998 c 0,-1.569 -0.683,-2.373 -1.982,-2.373 -1.284,0 -1.967,0.834 -1.967,2.373"
             style="fill:#000000;fill-opacity:1;fill-rule:nonzero;stroke:none"
             id="path622" />
        </g>
        <g
           id="g624"
           transform="translate(111.418,1007.9668)">
          <path
             d="M 0,0 2.808,7.47 H 3.363 L 0.556,0 Z"
             style="fill:#000000;fill-opacity:1;fill-rule:nonzero;stroke:none"
             id="path626" />
        </g>
        <g
           id="g628"
           transform="translate(117.9292,1009.1982)">
          <path
             d="M 0,0 2.567,5.12 H -0.728 V 5.593 H 3.183 V 5.165 L 0.563,0 Z"
             style="fill:#000000;fill-opacity:1;fill-rule:nonzero;stroke:none"
             id="path630" />
        </g>
        <g
           id="g632"
           transform="translate(125.2817,1011.5107)">
          <path
             d="m 0,0 v 0.976 c 0,1.261 -0.473,1.907 -1.449,1.907 -0.939,0 -1.434,-0.654 -1.434,-1.907 V 0 c 0,-1.276 0.488,-1.914 1.434,-1.914 C -0.473,-1.914 0,-1.284 0,0 m -3.416,-0.015 v 0.998 c 0,1.547 0.683,2.373 1.967,2.373 1.299,0 1.982,-0.826 1.982,-2.373 v -0.998 c 0,-1.569 -0.683,-2.373 -1.982,-2.373 -1.284,0 -1.967,0.834 -1.967,2.373"
             style="fill:#000000;fill-opacity:1;fill-rule:nonzero;stroke:none"
             id="path634" />
        </g>
        <g
           id="g636"
           transform="translate(128.1875,1007.9668)">
          <path
             d="M 0,0 2.808,7.47 H 3.363 L 0.556,0 Z"
             style="fill:#000000;fill-opacity:1;fill-rule:nonzero;stroke:none"
             id="path638" />
        </g>
        <g
           id="g640"
           transform="translate(132.4712,1009.1982)">
          <path
             d="m 0,0 v 0.465 h 1.336 v 4.58 L 0,4.384 V 4.895 L 1.412,5.593 H 1.87 V 0.465 H 3.063 L 3.063,0 Z"
             style="fill:#000000;fill-opacity:1;fill-rule:nonzero;stroke:none"
             id="path642" />
        </g>
        <g
           id="g644"
           transform="translate(139.981,1011.5107)">
          <path
             d="m 0,0 v 0.976 c 0,1.261 -0.473,1.907 -1.449,1.907 -0.938,0 -1.434,-0.654 -1.434,-1.907 V 0 c 0,-1.276 0.488,-1.914 1.434,-1.914 C -0.473,-1.914 0,-1.284 0,0 m -3.416,-0.015 v 0.998 c 0,1.547 0.683,2.373 1.967,2.373 1.299,0 1.982,-0.826 1.982,-2.373 v -0.998 c 0,-1.569 -0.683,-2.373 -1.982,-2.373 -1.284,0 -1.967,0.834 -1.967,2.373"
             style="fill:#000000;fill-opacity:1;fill-rule:nonzero;stroke:none"
             id="path646" />
        </g>
        <g
           id="g648"
           transform="translate(144.7065,1011.5107)">
          <path
             d="m 0,0 v 0.976 c 0,1.261 -0.473,1.907 -1.449,1.907 -0.939,0 -1.434,-0.654 -1.434,-1.907 V 0 c 0,-1.276 0.488,-1.914 1.434,-1.914 C -0.473,-1.914 0,-1.284 0,0 m -3.416,-0.015 v 0.998 c 0,1.547 0.683,2.373 1.967,2.373 1.299,0 1.982,-0.826 1.982,-2.373 v -0.998 c 0,-1.569 -0.683,-2.373 -1.982,-2.373 -1.284,0 -1.967,0.834 -1.967,2.373"
             style="fill:#000000;fill-opacity:1;fill-rule:nonzero;stroke:none"
             id="path650" />
        </g>
        <g
           id="g652"
           transform="translate(147.6123,1007.9668)">
          <path
             d="M 0,0 2.808,7.47 H 3.363 L 0.556,0 Z"
             style="fill:#000000;fill-opacity:1;fill-rule:nonzero;stroke:none"
             id="path654" />
        </g>
        <g
           id="g656"
           transform="translate(156.7505,1011.5107)">
          <path
             d="m 0,0 v 0.976 c 0,1.261 -0.473,1.907 -1.449,1.907 -0.938,0 -1.434,-0.654 -1.434,-1.907 V 0 c 0,-1.276 0.488,-1.914 1.434,-1.914 C -0.473,-1.914 0,-1.284 0,0 m -3.415,-0.015 v 0.998 c 0,1.547 0.683,2.373 1.966,2.373 1.299,0 1.982,-0.826 1.982,-2.373 v -0.998 c 0,-1.569 -0.683,-2.373 -1.982,-2.373 -1.283,0 -1.966,0.834 -1.966,2.373"
             style="fill:#000000;fill-opacity:1;fill-rule:nonzero;stroke:none"
             id="path658" />
        </g>
        <g
           id="g660"
           transform="translate(83.6699,1003.021)">
          <path
             d="M 0,0 H 1.344 C 2.5,0 2.785,0.285 2.785,0.961 v 0.473 c 0,0.578 -0.345,0.908 -1.224,0.908 H 0 Z m -0.533,-2.823 v 5.631 h 1.944 c 1.149,0 1.907,-0.27 1.907,-1.457 v -0.3 c 0,-1.201 -0.593,-1.516 -1.989,-1.516 H 0 v -2.358 z"
             style="fill:#000000;fill-opacity:1;fill-rule:nonzero;stroke:none"
             id="path662" />
        </g>
        <g
           id="g664"
           transform="translate(90.0918,1000.9717)">
          <path
             d="m 0,0 v 1.231 h -0.713 c -1.111,0 -1.351,-0.21 -1.351,-0.863 V 0.247 c 0,-0.45 0.225,-0.638 0.623,-0.638 0.465,0 1.043,0.165 1.441,0.391 m -2.582,0.27 v 0.173 c 0,1.021 0.75,1.231 1.831,1.231 h 0.758 v 0.218 c 0,0.765 -0.15,1.111 -0.968,1.111 -0.368,0 -0.758,-0.09 -1.126,-0.218 v 0.45 c 0.435,0.136 0.781,0.211 1.231,0.211 1.224,0 1.374,-0.796 1.374,-1.509 v -2.71 H 0.052 l -0.045,0.315 c -0.285,-0.165 -0.901,-0.391 -1.441,-0.391 -0.833,0 -1.148,0.436 -1.148,1.119"
             style="fill:#000000;fill-opacity:1;fill-rule:nonzero;stroke:none"
             id="path666" />
        </g>
        <g
           id="g668"
           transform="translate(91.769,1000.1982)">
          <path
             d="M 0,0 V 4.144 H 0.436 L 0.518,3.799 c 0.428,0.255 0.999,0.42 1.494,0.42 0.773,0 1.231,-0.39 1.231,-1.156 V 0 H 2.726 v 2.853 c 0,0.593 -0.173,0.916 -0.751,0.916 -0.511,0 -0.984,-0.165 -1.457,-0.458 L 0.518,0 Z"
             style="fill:#000000;fill-opacity:1;fill-rule:nonzero;stroke:none"
             id="path670" />
        </g>
        <g
           id="g672"
           transform="translate(96.5171,1001.0015)">
          <path
             d="m 0,0 v 2.883 h -0.676 v 0.45 H 0 V 4.182 L 0.518,4.407 V 3.333 H 1.591 V 2.883 H 0.518 V 0.165 c 0,-0.39 0.09,-0.593 0.39,-0.593 0.24,0 0.511,0.03 0.683,0.105 V -0.758 C 1.441,-0.833 1.156,-0.879 0.878,-0.879 0.27,-0.879 0,-0.541 0,0"
             style="fill:#000000;fill-opacity:1;fill-rule:nonzero;stroke:none"
             id="path674" />
        </g>
        <g
           id="g676"
           transform="translate(101.7319,1002)">
          <path
             d="M 0,0 V 0.556 C 0,1.502 -0.495,1.967 -1.224,1.967 -1.936,1.967 -2.44,1.502 -2.44,0.556 V 0 c 0,-0.946 0.504,-1.411 1.216,-1.411 C -0.495,-1.411 0,-0.946 0,0 m -2.958,0.03 v 0.495 c 0,1.209 0.661,1.885 1.734,1.885 1.081,0 1.742,-0.676 1.742,-1.885 V 0.03 c 0,-1.171 -0.661,-1.884 -1.742,-1.884 -1.073,0 -1.734,0.713 -1.734,1.884"
             style="fill:#000000;fill-opacity:1;fill-rule:nonzero;stroke:none"
             id="path678" />
        </g>
        <g
           id="g680"
           transform="translate(103.3037,1000.1982)">
          <path
             d="M 0,0 V 4.144 H 0.436 L 0.518,3.799 c 0.428,0.255 0.999,0.42 1.494,0.42 0.774,0 1.231,-0.39 1.231,-1.156 V 0 H 2.725 v 2.853 c 0,0.593 -0.172,0.916 -0.75,0.916 -0.511,0 -0.984,-0.165 -1.457,-0.458 L 0.518,0 Z"
             style="fill:#000000;fill-opacity:1;fill-rule:nonzero;stroke:none"
             id="path682" />
        </g>
        <g
           id="g684"
           transform="translate(108.0894,1002.6533)">
          <path
             d="M 0,0 H 2.334 V 0.03 C 2.327,0.683 2.02,1.313 1.141,1.313 0.345,1.313 0.007,0.69 0,0.03 Z m -0.525,-0.646 v 0.413 c 0,1.381 0.668,1.989 1.666,1.989 1.088,0 1.697,-0.548 1.697,-2.056 V -0.443 H 0 v -0.233 c 0,-0.743 0.172,-1.396 1.268,-1.396 0.354,0 0.781,0.045 1.149,0.173 v -0.443 c -0.323,-0.113 -0.698,-0.18 -1.096,-0.18 -1.329,0 -1.846,0.57 -1.846,1.876"
             style="fill:#000000;fill-opacity:1;fill-rule:nonzero;stroke:none"
             id="path686" />
        </g>
        <g
           id="g688"
           transform="translate(114.4268,1000.1982)">
          <path
             d="m 0,0 v 0.465 h 1.336 v 4.58 L 0,4.384 V 4.895 L 1.412,5.593 H 1.87 V 0.465 H 3.063 L 3.063,0 Z"
             style="fill:#000000;fill-opacity:1;fill-rule:nonzero;stroke:none"
             id="path690" />
        </g>
        <g
           id="g692"
           transform="translate(121.9668,1001.7749)">
          <path
             d="m 0,0 v 0.368 c 0,0.78 -0.653,1.036 -1.381,1.036 -0.496,0 -1.089,-0.196 -1.532,-0.601 0.008,-1.374 0.496,-1.982 1.442,-1.982 C -0.368,-1.179 0,-0.638 0,0 m -3.446,0.766 v 0.983 c 0,2.064 1.209,2.342 2.275,2.342 0.465,0 0.908,-0.105 1.209,-0.225 V 3.393 c -0.406,0.151 -0.894,0.226 -1.246,0.226 -1.052,0 -1.705,-0.346 -1.705,-2.283 0.375,0.331 0.916,0.541 1.629,0.541 0.991,0 1.817,-0.473 1.817,-1.517 V 0.023 c 0,-0.924 -0.563,-1.675 -2.027,-1.675 -1.374,0 -1.952,0.961 -1.952,2.418"
             style="fill:#000000;fill-opacity:1;fill-rule:nonzero;stroke:none"
             id="path694" />
        </g>
        <g
           id="g696"
           transform="translate(123.4639,1000.416)">
          <path
             d="M 0,0 V 0.465 C 0.48,0.3 0.999,0.18 1.689,0.18 c 0.886,0 1.396,0.428 1.396,1.096 V 1.561 C 3.085,2.335 2.643,2.68 1.622,2.68 1.306,2.68 0.683,2.62 0.278,2.545 L 0.36,5.375 H 3.326 V 4.894 H 0.863 L 0.833,3.078 c 0.255,0.023 0.616,0.068 0.886,0.068 1.427,0 1.9,-0.684 1.9,-1.517 V 1.276 C 3.619,0.413 2.928,-0.293 1.689,-0.293 0.961,-0.293 0.368,-0.15 0,0"
             style="fill:#000000;fill-opacity:1;fill-rule:nonzero;stroke:none"
             id="path698" />
        </g>
        <g
           id="g700"
           transform="translate(128.1885,1000.416)">
          <path
             d="M 0,0 V 0.465 C 0.48,0.3 0.999,0.18 1.689,0.18 c 0.886,0 1.396,0.428 1.396,1.096 V 1.561 C 3.085,2.335 2.643,2.68 1.622,2.68 1.306,2.68 0.683,2.62 0.278,2.545 L 0.36,5.375 H 3.326 V 4.894 H 0.863 L 0.833,3.078 c 0.255,0.023 0.616,0.068 0.886,0.068 1.427,0 1.9,-0.684 1.9,-1.517 V 1.276 C 3.619,0.413 2.928,-0.293 1.689,-0.293 0.961,-0.293 0.368,-0.15 0,0"
             style="fill:#000000;fill-opacity:1;fill-rule:nonzero;stroke:none"
             id="path702" />
        </g>
        <g
           id="g704"
           transform="translate(132.7334,1002.6758)">
          <path
             d="m 0,0 v 0.69 c 0,1.705 0.773,2.538 2.41,2.538 0.503,0 0.923,-0.053 1.283,-0.187 V 2.583 C 3.431,2.665 2.883,2.755 2.395,2.755 1.186,2.755 0.533,2.154 0.533,0.721 v -0.743 c 0,-1.344 0.503,-2.058 1.862,-2.058 0.397,0 0.878,0.038 1.381,0.218 V -2.32 C 3.348,-2.493 2.905,-2.553 2.417,-2.553 0.811,-2.553 0,-1.817 0,0"
             style="fill:#000000;fill-opacity:1;fill-rule:nonzero;stroke:none"
             id="path706" />
        </g>
        <g
           id="g708"
           transform="translate(84.458,993.3003)">
          <path
             d="m 0,0 h 1.254 l 0.33,1.546 H 0.323 Z m -0.915,-2.102 0.345,1.644 H -1.704 V 0 h 1.231 l 0.33,1.546 h -1.141 v 0.458 h 1.239 L 0.286,3.528 H 0.743 L 0.42,2.004 h 1.262 l 0.33,1.524 H 2.477 L 2.155,2.004 H 3.153 V 1.546 H 2.057 L 1.727,0 H 2.725 V -0.458 H 1.629 L 1.284,-2.102 H 0.811 l 0.345,1.644 H -0.098 L -0.45,-2.102 Z"
             style="fill:#000000;fill-opacity:1;fill-rule:nonzero;stroke:none"
             id="path710" />
        </g>
        <g
           id="g712"
           transform="translate(88.8447,993.6533)">
          <path
             d="M 0,0 H 2.334 V 0.03 C 2.327,0.683 2.02,1.313 1.141,1.313 0.345,1.313 0.007,0.69 0,0.03 Z m -0.526,-0.646 v 0.413 c 0,1.381 0.669,1.989 1.667,1.989 1.088,0 1.696,-0.548 1.696,-2.056 V -0.443 H 0 v -0.233 c 0,-0.743 0.172,-1.396 1.269,-1.396 0.353,0 0.78,0.045 1.148,0.173 v -0.443 c -0.323,-0.113 -0.698,-0.18 -1.096,-0.18 -1.329,0 -1.847,0.57 -1.847,1.876"
             style="fill:#000000;fill-opacity:1;fill-rule:nonzero;stroke:none"
             id="path714" />
        </g>
        <g
           id="g716"
           transform="translate(92.4517,993.0303)">
          <path
             d="m 0,0 v 0.405 c 0,1.389 0.668,1.974 1.825,1.974 0.42,0 0.728,-0.052 1.013,-0.149 V 1.794 C 2.598,1.876 2.192,1.937 1.809,1.937 0.804,1.937 0.518,1.231 0.518,0.548 v -0.631 c 0,-0.721 0.195,-1.366 1.276,-1.366 0.361,0 0.759,0.06 1.119,0.18 V -1.712 C 2.59,-1.832 2.23,-1.907 1.832,-1.907 0.541,-1.907 0,-1.321 0,0"
             style="fill:#000000;fill-opacity:1;fill-rule:nonzero;stroke:none"
             id="path718" />
        </g>
        <g
           id="g720"
           transform="translate(99.6099,992.7749)">
          <path
             d="m 0,0 v 0.368 c 0,0.78 -0.653,1.036 -1.381,1.036 -0.496,0 -1.089,-0.196 -1.532,-0.601 0.008,-1.374 0.495,-1.982 1.441,-1.982 C -0.368,-1.179 0,-0.638 0,0 m -3.446,0.766 v 0.983 c 0,2.064 1.209,2.342 2.275,2.342 0.465,0 0.908,-0.105 1.209,-0.225 V 3.393 c -0.406,0.151 -0.894,0.226 -1.247,0.226 -1.051,0 -1.704,-0.346 -1.704,-2.283 0.375,0.331 0.916,0.541 1.629,0.541 0.991,0 1.817,-0.473 1.817,-1.517 V 0.023 c 0,-0.924 -0.563,-1.675 -2.027,-1.675 -1.374,0 -1.952,0.961 -1.952,2.418"
             style="fill:#000000;fill-opacity:1;fill-rule:nonzero;stroke:none"
             id="path722" />
        </g>
        <g
           id="g724"
           transform="translate(104.335,992.7749)">
          <path
             d="m 0,0 v 0.368 c 0,0.78 -0.653,1.036 -1.381,1.036 -0.496,0 -1.089,-0.196 -1.532,-0.601 0.008,-1.374 0.495,-1.982 1.442,-1.982 C -0.368,-1.179 0,-0.638 0,0 m -3.446,0.766 v 0.983 c 0,2.064 1.209,2.342 2.275,2.342 0.465,0 0.908,-0.105 1.209,-0.225 V 3.393 c -0.406,0.151 -0.894,0.226 -1.247,0.226 -1.051,0 -1.704,-0.346 -1.704,-2.283 0.375,0.331 0.916,0.541 1.629,0.541 0.991,0 1.817,-0.473 1.817,-1.517 V 0.023 c 0,-0.924 -0.563,-1.675 -2.027,-1.675 -1.374,0 -1.952,0.961 -1.952,2.418"
             style="fill:#000000;fill-opacity:1;fill-rule:nonzero;stroke:none"
             id="path726" />
        </g>
        <g
           id="g728"
           transform="translate(109.0298,993.5107)">
          <path
             d="m 0,0 v 0.976 c 0,1.261 -0.473,1.907 -1.449,1.907 -0.939,0 -1.434,-0.654 -1.434,-1.907 V 0 c 0,-1.276 0.488,-1.914 1.434,-1.914 C -0.473,-1.914 0,-1.284 0,0 m -3.416,-0.015 v 0.998 c 0,1.547 0.683,2.373 1.967,2.373 1.299,0 1.982,-0.826 1.982,-2.373 v -0.998 c 0,-1.569 -0.683,-2.373 -1.982,-2.373 -1.284,0 -1.967,0.834 -1.967,2.373"
             style="fill:#000000;fill-opacity:1;fill-rule:nonzero;stroke:none"
             id="path730" />
        </g>
        <g
           id="g732"
           transform="translate(112.561,994.2314)">
          <path
             d="m 0,0 0.36,0.135 c 0.496,0.188 0.804,0.428 0.804,0.923 0,0.601 -0.398,1.104 -1.382,1.104 -0.998,0 -1.336,-0.488 -1.336,-1.096 0,-0.473 0.398,-0.766 0.953,-0.909 z m 1.321,-1.607 c 0,0.556 -0.435,0.909 -1.171,1.089 l -0.383,0.09 -0.263,-0.068 c -0.54,-0.165 -1.171,-0.48 -1.171,-1.103 0,-0.624 0.436,-1.043 1.502,-1.043 1.066,0 1.486,0.412 1.486,1.035 m -3.521,0.06 c 0,0.511 0.451,1.126 1.239,1.337 -0.676,0.187 -1.126,0.66 -1.126,1.291 0,0.931 0.608,1.554 1.9,1.554 1.26,0 1.891,-0.638 1.891,-1.569 0,-0.616 -0.413,-1.111 -1.066,-1.276 0.713,-0.188 1.224,-0.683 1.224,-1.344 0,-0.954 -0.623,-1.554 -1.997,-1.554 -1.577,0 -2.065,0.653 -2.065,1.561"
             style="fill:#000000;fill-opacity:1;fill-rule:nonzero;stroke:none"
             id="path734" />
        </g>
      </g>
    </g>
  </g>
</svg>
