<?xml version="1.0" encoding="utf-8"?>
<!-- Generator: Adobe Illustrator 24.0.2, SVG Export Plug-In . SVG Version: 6.00 Build 0)  -->
<svg version="1.1" id="Layer_1" xmlns="http://www.w3.org/2000/svg" xmlns:xlink="http://www.w3.org/1999/xlink" x="0px" y="0px"
	 viewBox="0 0 216 144" style="enable-background:new 0 0 216 144;" xml:space="preserve">
<style type="text/css">
	.st0{fill-rule:evenodd;clip-rule:evenodd;fill:#005BAA;}
</style>
<polygon class="st0" points="6.59,90.63 14.39,90.63 14.39,99.21 28.33,99.21 28.33,90.63 36.03,90.63 36.03,114.71 28.33,114.71 
	28.33,104.57 14.29,104.57 14.29,114.61 6.59,114.61 6.59,90.63 "/>
<polygon class="st0" points="36.91,90.63 44.51,90.63 52.51,99.89 60.41,90.63 67.92,90.63 56.31,105.35 56.31,114.71 48.61,114.71 
	48.61,104.67 36.91,90.63 "/>
<path class="st0" d="M68.89,90.63h7.7v18.62h12.38c1.95,0,3.22-1.95,3.22-4V90.63h7.7v19.21c0,3.02-3.41,4.78-5.36,4.78H68.89V90.63
	L68.89,90.63z"/>
<path class="st0" d="M101.55,90.63h25.65c3.02,0,5.46,1.85,5.46,5.61v18.42l-7.7,0.05v-14.62c0-2.04-0.68-3.26-3.32-3.26h-11.6
	v17.94h-8.48V90.63L101.55,90.63z"/>
<path class="st0" d="M135,90.63h22.42c4.49,0,7.95,3.61,7.95,6.39v11.07c-0.05,1.95-2.78,6.63-6.19,6.63H135V90.63L135,90.63z
	 M142.84,109.35h11.83c1.7,0,3.02-1.27,3.02-2.83V99.5c0-1.71-1.4-2.73-3.2-2.73h-11.65V109.35L142.84,109.35z"/>
<path class="st0" d="M174.87,90.53h24.03v24.18h-8.58v-6.24h-14.77v6.24h-8.68v-15.7C166.68,93.75,171.36,90.53,174.87,90.53
	L174.87,90.53z M175.46,99.11v3.9h14.82v-6.15H177.8C176.34,96.86,175.46,97.74,175.46,99.11L175.46,99.11z"/>
<polygon class="st0" points="200.47,90.58 208.17,90.58 208.17,115.44 200.47,115.44 200.47,90.58 "/>
<path class="st0" d="M107.85,20.91c-31.96,0-57.87,12.79-57.87,28.57c0,15.78,25.91,28.57,57.87,28.57
	c31.96,0,57.87-12.79,57.87-28.57C165.72,33.7,139.81,20.91,107.85,20.91L107.85,20.91z M102.36,27.27c6.61-2.34,26.23,0,33.85,3.66
	c2.44,2.34-10.88,9.86-26.74,13.12C86.8,48.62,97.58,31.13,102.36,27.27L102.36,27.27z M63.42,61.12
	c-4.98-3.55-14.74-13.72,1.42-24.29c8.54-4.98,13.32-6.1,19.21-7.32c2.85-0.61,4.88,0.1,2.34,2.24
	c-5.39,5.59-16.57,24.09-17.59,28.16C67.99,62.65,66.37,63.36,63.42,61.12L63.42,61.12z M109.98,72.92
	c-9.56,1.01-30.8-2.14-31.21-4.88c0.41-6.61,33.75-17.59,39.75-11.49C121.06,61.33,116.18,72.61,109.98,72.92L109.98,72.92z
	 M158.57,53.7c-2.44,5.59-10.68,11.9-27.96,16.17c-2.65,0.61-3.56-1.02-1.83-2.54c2.85-1.73,16.57-24.7,18.3-29.28
	c1.02-2.34,2.95-1.42,4.17-0.51C156.75,41.09,160.91,46.89,158.57,53.7L158.57,53.7z"/>
</svg>
