<svg id="Layer_1" data-name="Layer 1" xmlns="http://www.w3.org/2000/svg" viewBox="0 0 1000 501.55"><defs><style>.cls-1{fill:#c41230;}</style></defs><title>kia-logo</title><g id="layer1"><path id="path2996" class="cls-1" d="M472.42,750.41a991,991,0,0,1-102.11-8.15c-137.82-18.54-253.31-65.8-317.6-130-27.26-27.21-44.54-57.1-50.37-87.15A109.13,109.13,0,0,1,0,500a109.13,109.13,0,0,1,2.34-25.14c3.83-19.75,12.93-40.12,26.35-59,30.36-42.69,83.62-80.69,153.5-109.53,116.47-48,269-67.09,417.49-52.11C774,271.82,917.43,335.44,974.34,420.43c26,38.85,32.39,81.05,18.47,122.3-8,23.82-23.65,47.62-45.64,69.56-60.92,60.8-168.12,106.64-296.8,126.93a975.92,975.92,0,0,1-177.95,11.19Zm76-32.08c69.78-4.32,128.7-14.58,186.13-32.4,45.56-14.14,88-33.72,120.63-55.61a249.4,249.4,0,0,0,40.72-33.26c15.31-15.34,25.19-28.8,33.23-45.28,9-18.43,12.48-32.89,12.48-51.78s-3.71-34.22-12.82-52.59c-7.88-15.89-17.94-29.48-32.89-44.47-22-22-48-40.16-82.52-57.42-64.55-32.31-145.3-53.44-235.26-61.58a907.88,907.88,0,0,0-156.42,0c-126.48,11.39-235,48.93-302.22,104.5-8.52,7.05-23.71,22.39-30.08,30.37-22.76,28.54-33.51,59.33-31.06,89C61,540.13,75.6,568.64,104,597.06c21.48,21.54,47,39.43,80.24,56.23,75.63,38.24,168.57,60.16,277.87,65.53,12.35.61,74.36.26,86.39-.49ZM193.91,626.76a7.57,7.57,0,0,1-2.18-1.67c-1.09-1.2-1.09-2.07-1.23-117.9l-.14-116.69-1.45-1.5c-1.36-1.43-1.74-1.52-6.94-1.66l-5.5-.16V372.47l39.6-.14,39.61-.14,1.68,1.41L259,375v42.07c0,46.23-.13,44.5,3.2,44.5,2.06,0,2.77-.86,14.26-17.17,30.44-43.2,47.18-66.7,48.69-68.33,3.72-4,2-3.86,40.56-3.88h34.5l1.32,1.32c1.61,1.61,2.22,3.82,1.49,5.4-.47,1-15.4,23.16-67.52,100.25-5.69,8.42-7.28,11.16-7.27,12.54s3.72,7,19.52,29.29c69.84,98.56,70.07,98.88,70.28,100.87a4,4,0,0,1-1.15,3.55L415.56,627l-36,.15c-35.52.15-36.07.13-38.68-1a14.41,14.41,0,0,1-4-2.6c-.74-.8-17.16-23.66-36.49-50.79s-35.54-49.65-36-50a3.19,3.19,0,0,0-4.59,1c-.54,1.07-.69,12.17-.69,50.79v49.44l-1.32,1.52L256.41,627l-30.71.11c-16.89.06-31.19-.09-31.79-.34Zm273.59-.25a5.19,5.19,0,0,1-2.32-2.19c-.52-1.14-.67-27.07-.67-117.57V390.64l-1.59-1.59c-1.54-1.54-1.77-1.6-6.81-1.6h-5.22V372.19h80.64l1.78,1.59,1.78,1.59V624l-1.51,1.51L532.07,627l-31.46.13c-25.2.09-31.79,0-33.11-.61Zm117.19.1a4.31,4.31,0,0,1-2.43-4.09c0-1,7.72-24.87,17.19-53.14s24.52-73.22,33.46-99.9,18.35-54.74,20.94-62.36,4.69-14.52,4.69-15.34a5.15,5.15,0,0,0-1-2.77c-.93-1.15-1.59-1.31-6.4-1.56l-5.36-.27-.16-7.49-.15-7.5h48.39c31.76,0,49.09.2,50.42.57a4.83,4.83,0,0,1,2.64,1.69c.68,1.27,6.11,17.31,31.68,93.66,41.61,124.21,51.12,152.88,51.12,154a5,5,0,0,1-2.54,4.49c-.92.42-10.59.61-31.68.61-27.83,0-30.52-.08-32.23-1a9.37,9.37,0,0,1-2.87-2.32c-.55-.75-4.78-13.14-9.4-27.52C707,459.35,708.18,463.09,707.19,462s-1.92-1.21-3.05,0c-.9,1-2.59,6.21-26.51,81.58-7,21.88-14.43,45.43-16.64,52.32s-5,15.79-6.28,19.76c-2.46,7.81-3.55,9.67-6.32,10.83-2.4,1-62,1.09-63.7.09Z" transform="translate(0 -249.23)"/></g></svg>