<svg id="Layer_1" data-name="Layer 1" xmlns="http://www.w3.org/2000/svg" xmlns:xlink="http://www.w3.org/1999/xlink" viewBox="0 0 1000 1000"><defs><style>.cls-1{fill:url(#Adsız_degrade);}.cls-2{fill:url(#Adsız_degrade_2);}.cls-3,.cls-5{opacity:0.4;}.cls-12,.cls-3,.cls-5{isolation:isolate;}.cls-3{fill:url(#Adsız_degrade_4);}.cls-4{fill:#fff;}.cls-5{fill:url(#Adsız_degrade_4-2);}.cls-6{fill:#576065;}.cls-7{fill:url(#Adsız_degrade_5);}.cls-8{fill:#a5abaf;fill-opacity:0.6;}.cls-9{fill:#343f47;}.cls-10{fill:url(#Adsız_degrade_6);}.cls-11{fill-opacity:0.8;fill:url(#Adsız_degrade_7);}.cls-12{opacity:0.8;fill:url(#Adsız_degrade_8);}.cls-13{fill:url(#Adsız_degrade_9);}.cls-14{fill:url(#Adsız_degrade_10);}.cls-15{fill:url(#Adsız_degrade_11);}.cls-16{fill:url(#Adsız_degrade_12);}.cls-17{fill:url(#Adsız_degrade_13);}.cls-18{fill:url(#Adsız_degrade_15);}.cls-19{fill:#fbfcfc;}.cls-20{fill:#344048;}</style><linearGradient id="Adsız_degrade" x1="-130.9" y1="953.17" x2="-114.38" y2="967" gradientTransform="translate(5290.69 -37003.19) scale(39.06)" gradientUnits="userSpaceOnUse"><stop offset="0" stop-color="#fff"/><stop offset="0.1" stop-color="#e7e8e6"/><stop offset="0.1" stop-color="#ced1d1"/><stop offset="0.2" stop-color="#b6bbbd"/><stop offset="0.2" stop-color="#a6acaf"/><stop offset="0.3" stop-color="#9aa2a6"/><stop offset="0.3" stop-color="#98a0a4"/><stop offset="0.4" stop-color="#828a8f"/><stop offset="0.5" stop-color="#677176"/><stop offset="0.6" stop-color="#545d64"/><stop offset="0.7" stop-color="#485259"/><stop offset="0.8" stop-color="#444e55"/><stop offset="1" stop-color="#485258"/></linearGradient><linearGradient id="Adsız_degrade_2" x1="-130.39" y1="953.57" x2="-114.91" y2="966.57" gradientTransform="translate(5290.69 -37003.19) scale(39.06)" gradientUnits="userSpaceOnUse"><stop offset="0" stop-color="#0f202a"/><stop offset="0.2" stop-color="#344048"/><stop offset="0.5" stop-color="#787f85"/><stop offset="0.5" stop-color="#81898e"/><stop offset="0.7" stop-color="#b3b8b8"/><stop offset="0.8" stop-color="#d3d6d4"/><stop offset="0.8" stop-color="#dee0dd"/><stop offset="1" stop-color="#fbfcfc"/></linearGradient><linearGradient id="Adsız_degrade_4" x1="1532.55" y1="1212.58" x2="1540.09" y2="1233.29" gradientTransform="translate(60512.29 48270.52) rotate(180) scale(39.06)" gradientUnits="userSpaceOnUse"><stop offset="0" stop-color="#e1e3e0"/><stop offset="0.1" stop-color="#c1c5c4"/><stop offset="0.3" stop-color="#9ba0a2"/><stop offset="0.5" stop-color="#7e8588"/><stop offset="0.7" stop-color="#697175" stop-opacity="0"/><stop offset="0.8" stop-color="#5c656a" stop-opacity="0"/><stop offset="1" stop-color="#576166" stop-opacity="0"/></linearGradient><linearGradient id="Adsız_degrade_4-2" x1="-127.39" y1="951.86" x2="-117.89" y2="968.3" gradientTransform="translate(5290.69 -37003.19) scale(39.06)" xlink:href="#Adsız_degrade_4"/><linearGradient id="Adsız_degrade_5" x1="-118.35" y1="962.62" x2="-118.93" y2="963.59" gradientTransform="translate(5290.69 -37003.19) scale(39.06)" gradientUnits="userSpaceOnUse"><stop offset="0" stop-color="#27353d"/><stop offset="1" stop-color="#0b1620" stop-opacity="0"/></linearGradient><linearGradient id="Adsız_degrade_6" x1="-120.03" y1="959.09" x2="-121" y2="957.54" gradientTransform="translate(5290.69 -37003.19) scale(39.06)" gradientUnits="userSpaceOnUse"><stop offset="0.1" stop-color="#0b1721"/><stop offset="0.9" stop-color="#0b1721" stop-opacity="0"/></linearGradient><linearGradient id="Adsız_degrade_7" x1="-122.65" y1="961.57" x2="-124.09" y2="961.99" gradientTransform="translate(5290.69 -37003.19) scale(39.06)" gradientUnits="userSpaceOnUse"><stop offset="0.2" stop-color="#0b1721"/><stop offset="0.9" stop-color="#0b1721" stop-opacity="0"/></linearGradient><linearGradient id="Adsız_degrade_8" x1="-126.5" y1="963.49" x2="-126.7" y2="962.97" gradientTransform="translate(5290.69 -37003.19) scale(39.06)" gradientUnits="userSpaceOnUse"><stop offset="0" stop-color="#0b1721"/><stop offset="0.1" stop-color="#0b1721"/><stop offset="1" stop-color="#0b1721" stop-opacity="0"/></linearGradient><linearGradient id="Adsız_degrade_9" x1="-121.4" y1="955" x2="-122.57" y2="955.13" gradientTransform="translate(5290.69 -37003.19) scale(39.06)" gradientUnits="userSpaceOnUse"><stop offset="0.3" stop-color="#0b1721"/><stop offset="0.8" stop-color="#0b1721" stop-opacity="0"/></linearGradient><linearGradient id="Adsız_degrade_10" x1="-121.37" y1="954.98" x2="-122.16" y2="955.08" gradientTransform="translate(5290.69 -37003.19) scale(39.06)" gradientUnits="userSpaceOnUse"><stop offset="0.4" stop-color="#27353d"/><stop offset="1" stop-color="#3c484f" stop-opacity="0"/></linearGradient><linearGradient id="Adsız_degrade_11" x1="-133.77" y1="960.37" x2="-124.18" y2="965.91" gradientTransform="translate(5290.69 -37003.19) scale(39.06)" gradientUnits="userSpaceOnUse"><stop offset="0" stop-color="#25313b" stop-opacity="0"/><stop offset="0" stop-color="#26333c" stop-opacity="0"/><stop offset="0.1" stop-color="#27353d"/></linearGradient><linearGradient id="Adsız_degrade_12" x1="-122.66" y1="961.94" x2="-122.66" y2="960.29" gradientTransform="translate(5290.69 -37003.19) scale(39.06)" gradientUnits="userSpaceOnUse"><stop offset="0.3" stop-color="#a6acb0"/><stop offset="1" stop-color="#a6acb0" stop-opacity="0"/></linearGradient><linearGradient id="Adsız_degrade_13" x1="-117.26" y1="949.86" x2="-117.26" y2="970.85" gradientTransform="translate(5290.69 -37003.19) scale(39.06)" gradientUnits="userSpaceOnUse"><stop offset="0" stop-color="#dee0dd"/><stop offset="0" stop-color="#c5c9c7"/><stop offset="0" stop-color="#9ea3a4"/><stop offset="0" stop-color="#83898c"/><stop offset="0" stop-color="#727a7e"/><stop offset="0" stop-color="#6c7479"/><stop offset="0.2" stop-color="#344048"/><stop offset="0.5" stop-color="#27353d"/><stop offset="0.8" stop-color="#344048"/><stop offset="1" stop-color="#444e55"/></linearGradient><linearGradient id="Adsız_degrade_15" x1="-113.94" y1="951.86" x2="-118.59" y2="958.67" gradientTransform="translate(5290.69 -37003.19) scale(39.06)" gradientUnits="userSpaceOnUse"><stop offset="0.7" stop-color="#27353d"/><stop offset="0.7" stop-color="#2c3840"/><stop offset="0.7" stop-color="#37434b"/><stop offset="0.7" stop-color="#4a555c"/><stop offset="0.8" stop-color="#646e74" stop-opacity="0"/><stop offset="0.8" stop-color="#868d92" stop-opacity="0"/><stop offset="0.8" stop-color="#b1b5b8" stop-opacity="0"/><stop offset="0.8" stop-color="#e1e3e4" stop-opacity="0"/><stop offset="0.8" stop-color="#fff" stop-opacity="0"/></linearGradient></defs><path id="outer" class="cls-1" d="M920.6,500c0,232.47-188.13,420.6-420.6,420.6S79.4,732.47,79.4,500,267.53,79.4,500,79.4,920.6,267.53,920.6,500ZM500,104.93A394,394,0,0,0,104.93,500c0,219,177.38,395.07,395.07,395.07,219,0,395.07-177.38,395.07-395.07A394,394,0,0,0,500,104.93Z"/><path class="cls-2" d="M500,104.93A394,394,0,0,0,104.93,500c0,219,177.38,395.07,395.07,395.07,219,0,395.07-177.38,395.07-395.07A394,394,0,0,0,500,104.93Zm0,764.61c-204.26,0-369.54-165.28-369.54-369.54S295.74,130.46,500,130.46,869.54,295.74,869.54,500,704.26,869.54,500,869.54Z"/><path class="cls-3" d="M500,920.6c232.47,0,420.6-188.13,420.6-420.6S732.47,79.4,500,79.4,79.4,267.53,79.4,500,267.53,920.6,500,920.6ZM500,70c236.51,0,430,193.5,430,430S736.51,930,500,930,70,736.51,70,500,263.49,70,500,70Z"/><path class="cls-4" d="M99.55,501.34C99.55,281,278.28,99.55,500,99.55S900.45,279.62,900.45,501.34c0,220.38-178.73,399.11-400.45,399.11S99.55,721.72,99.55,501.34Zm125-276.82C153.3,295.74,109,393.84,109,501.34A390.09,390.09,0,0,0,223.18,776.82C294.4,846.7,392.5,891,500,891s205.6-43,275.48-114.22c71.22-69.88,114.22-168,114.22-275.48s-44.35-205.6-114.22-276.82a386.13,386.13,0,0,0-551,0Z"/><path class="cls-5" d="M500,870.88c-99.44,0-192.16-39-262-108.84S129.12,599.44,129.12,500s39-192.16,108.84-262,162.6-108.84,262-108.84,192.16,39,262,108.84,108.84,162.6,108.84,262S831.91,692.16,762,762,599.44,870.88,500,870.88Zm0-10.75A359,359,0,0,0,754,755.32c68.53-68.53,104.81-158.57,104.81-254A359,359,0,0,0,754,247.37c-68.54-68.53-158.57-104.82-254-104.82A359,359,0,0,0,246,247.37C177.49,313.21,139.87,404.59,139.87,500A359,359,0,0,0,244.68,754C313.21,822.51,404.59,860.13,500,860.13Z"/><path class="cls-4" d="M826.54,674.69c-6.72-5.37-266.07-211-266.07-211L500,118.37a22.89,22.89,0,0,0-12.09,10.75l-43,335.94L177.49,670.66s-5.37,6.72-8.06,10.75c-1.34,2.69-1.34,6.72-1.34,10.75L498.66,556.44,829.23,692.16c2.68-6.72,0-13.44-2.69-17.47Z"/><path class="cls-6" d="M502.69,510.75,500,572.56,803.7,694.85c10.75,5.37,18.81,2.69,26.87-2.69L506.72,509.41C505.38,508.06,502.69,509.41,502.69,510.75Z"/><path class="cls-7" d="M502.69,510.75s17.47,30.91,37.62,52.41c28.22,30.9,65.85,52.41,65.85,52.41L803.7,694.85c10.75,5.37,18.81,2.69,26.87-2.69L506.72,509.41C505.38,508.06,502.69,509.41,502.69,510.75Z"/><path class="cls-8" d="M829.23,680.07c0-1.35-1.35-2.69-2.69-5.38L549.72,471.78,512.09,496s2.69,1.34,4,0a33.54,33.54,0,0,1,20.15,0c6.72,2.69,293,185.44,293,184.1Z"/><path class="cls-9" d="M819.82,668l-258-204.25-12.09,8.06L826.54,676c-1.34-2.69-4-5.38-6.72-8.07Z"/><path class="cls-6" d="M506.72,490.59l-1.34,1.35s0,2.68,2.68,1.34c1.35-1.34,40.32-21.5,53.75-29.56l-47-322.51c-1.34-12.09-6.72-17.47-16.12-21.5L504,493.28l2.69-2.69Z"/><path class="cls-8" d="M483.87,141.21v17.47l-29.56,297c0,4,1.35,8.06,5.38,10.75l17.47,13.43L489.25,152l1.34-25.53c-4,2.69-5.37,8.06-6.72,14.78Zm-16.12,344-16.13-13.44L178.84,669.32s-8.07,5.37-9.41,10.75l9.41-5.38L465.06,494.62c5.38-2.68,6.72-5.37,2.69-9.4Z"/><path class="cls-6" d="M496,510.75c0-1.34-1.35-2.69-2.69-1.34L168.09,693.5c8.06,5.38,16.12,6.72,26.87,2.69l303.7-122.28Z"/><path class="cls-10" d="M505.38,491.94l1.34-1.35-1.34,1.35a1.31,1.31,0,0,0,1.34,1.34h1.34c1.35-1.34,40.32-21.5,53.75-29.56l-5.37-39L514.78,141.21q0-8.07-4-12.09s20.16,271.44,20.16,301c0,39-25.53,61.82-25.53,61.82Z"/><path class="cls-11" d="M496,510.75c0-1.34-1.35-2.69-2.69-1.34L168.09,693.5c8.06,5.38,16.12,6.72,26.87,2.69l303.7-122.28Z"/><path class="cls-12" d="M195,694.85l303.7-122.29L496,513.44c-5.38,16.12-14.78,33.59-40.31,47-18.82,10.75-198.88,99.44-263.39,130.35-4,2.68-9.4,4-12.09,5.37,5.37,2.69,9.41,1.35,14.78-1.34Z"/><path class="cls-13" d="M506.72,490.59l-1.34,1.35s0,2.68,2.68,1.34c1.35-1.34,40.32-21.5,53.75-29.56l-47-322.51c-1.34-12.09-6.72-17.47-16.12-21.5L504,493.28l2.69-2.69Z"/><path class="cls-14" d="M506.72,490.59l-1.34,1.35s0,2.68,2.68,1.34c1.35-1.34,40.32-21.5,53.75-29.56l-47-322.51c-1.34-12.09-6.72-17.47-16.12-21.5L504,493.28l2.69-2.69Z"/><path class="cls-15" d="M138.52,666.63c-9.4-21.5-63.16-126.32-4-327.88H111.65c-12.1,40.31-21.5,64.5-26.88,100.78,0,0-2.69,13.44-4,28.22A306.49,306.49,0,0,0,79.4,500c0,80.63,20.15,127.66,20.15,127.66,21.5,67.19,59.13,127.66,110.19,173.35,44.35,39,112.88,68.53,169.32,79.28C369.65,879,208.4,810.41,138.52,666.63Z"/><path class="cls-16" d="M505.38,508.06h-12.1c1.34,0,2.69,0,2.69,1.35l2.69,61.81H500l2.69-61.81c0-1.35,1.34-2.69,2.69-1.35Z"/><path class="cls-17" d="M634.38,100.9c141.1,53.75,274.13,201.56,274.13,388.35C908.51,715,728.44,899.1,500,899.1v21.5c228.44,0,420.6-188.13,420.6-420.6,0-185.44-118.25-341.32-286.22-399.1Z"/><path class="cls-18" d="M860.13,341.43C766.07,125.08,553.75,113,541.66,111.65h-1.35c162.6,29.56,266.07,135.72,302.36,247.25v1.35c16.12,43,24.18,88.69,25.53,138.41,1.34,47-9.41,99.44-29.57,147.81-1.34,6.72-2.68,14.78-4,14.78h21.5C920.6,540.31,892.39,418,860.13,341.43Z"/><path class="cls-19" d="M99.55,501.34C99.55,281,278.28,99.55,500,99.55S900.45,279.62,900.45,501.34c0,220.38-178.73,399.11-400.45,399.11S99.55,721.72,99.55,501.34Zm125-276.82C153.3,295.74,109,393.84,109,501.34A390.09,390.09,0,0,0,223.18,776.82C294.4,846.7,392.5,891,500,891s205.6-43,275.48-114.22c71.22-69.88,114.22-168,114.22-275.48s-44.35-205.6-114.22-276.82a386.13,386.13,0,0,0-551,0Z"/><path class="cls-20" d="M176.15,672,450.28,474.47c14.78,8.06,39,18.81,41.66,18.81,2.68,1.34,2.68-1.34,2.68-1.34L461,463.72c-4-2.69-5.37-6.72-5.37-10.75l32.25-323.85c-1.35,1.34-1.35,4-2.69,5.37-1.35,2.69-1.35,4-1.35,6.72l-47,323.85L178.84,668c-1.35,1.35-2.69,2.69-2.69,4Z"/></svg>