<?xml version="1.0" encoding="utf-8"?>
<!-- Generator: Adobe Illustrator 23.0.1, SVG Export Plug-In . SVG Version: 6.00 Build 0)  -->
<svg version="1.1" id="Layer_1" xmlns="http://www.w3.org/2000/svg" xmlns:xlink="http://www.w3.org/1999/xlink" x="0px" y="0px"
	 viewBox="0 0 1000 1000" style="enable-background:new 0 0 1000 1000;" xml:space="preserve">
<style type="text/css">
	.st0{fill:url(#SVGID_1_);}
	.st1{fill:url(#SVGID_2_);}
	.st2{fill:url(#SVGID_3_);}
	.st3{fill:url(#SVGID_4_);}
	.st4{fill:#FFFFFF;}
	.st5{fill:url(#SVGID_5_);}
	.st6{fill:url(#SVGID_6_);}
	.st7{fill:#8C8C8C;}
	.st8{fill:#4D4D4D;}
	.st9{fill:#252525;}
	.st10{fill:url(#NISSAN_1_);}
</style>
<g>
	
		<linearGradient id="SVGID_1_" gradientUnits="userSpaceOnUse" x1="697.6006" y1="10706.6318" x2="697.5996" y2="10009.6279" gradientTransform="matrix(1 0 0 -1 -197.6 10791.1201)">
		<stop  offset="0.1944" style="stop-color:#FFFFFF"/>
		<stop  offset="0.2085" style="stop-color:#F8F8F8"/>
		<stop  offset="0.3657" style="stop-color:#AEAEAE"/>
		<stop  offset="0.5133" style="stop-color:#707070"/>
		<stop  offset="0.6468" style="stop-color:#404040"/>
		<stop  offset="0.7637" style="stop-color:#1D1D1D"/>
		<stop  offset="0.8595" style="stop-color:#080808"/>
		<stop  offset="0.9222" style="stop-color:#000000"/>
	</linearGradient>
	<path class="st0" d="M965.5,396.5c-9-2.5-19.5-4-41-6.5c-90-4-311.5-12.5-424.5-12.5S165.5,386,75.5,390c-21.5,2.5-32,4-41,6.5
		C6,403,0,413,0,433.5V572c0,20,21.5,34,36.5,36.5c15,3,24.5,4,40,5.5c80,5,266.5,15.5,423.5,15.5S843,619,923.5,614
		c15.5-1.5,25-2.5,40-5.5c15-2.5,36.5-16.5,36.5-36.5V433.5C1000,413,994,403,965.5,396.5z"/>
	
		<radialGradient id="SVGID_2_" cx="416.8805" cy="10891.4043" r="697.311" gradientTransform="matrix(1 0 0 -1 -197.6 10791.1201)" gradientUnits="userSpaceOnUse">
		<stop  offset="0.2022" style="stop-color:#FFFFFF"/>
		<stop  offset="0.3822" style="stop-color:#FDFDFD"/>
		<stop  offset="0.4874" style="stop-color:#F4F4F4"/>
		<stop  offset="0.5732" style="stop-color:#E6E6E6"/>
		<stop  offset="0.6483" style="stop-color:#D2D2D2"/>
		<stop  offset="0.6889" style="stop-color:#C4C4C4"/>
		<stop  offset="1" style="stop-color:#333333"/>
	</radialGradient>
	<path class="st1" d="M140,402c44-153.5,189-266,361.5-266c171.5,0,316.5,112,361,265c0,0.5,0,1,0.5,1.5c25.5-3,48.5-7.5,64.5-11.5
		c-0.5-1-0.5-1-0.5-2C876.5,206,705,72,501.5,72c-204,0-376,135-426,318C98,396,114.5,398.5,140,402z"/>
	
		<radialGradient id="SVGID_3_" cx="2104.439" cy="9774.498" r="1452.256" gradientTransform="matrix(1 0 0 -1 -197.6 10791.1201)" gradientUnits="userSpaceOnUse">
		<stop  offset="0.2022" style="stop-color:#FFFFFF"/>
		<stop  offset="0.368" style="stop-color:#E4E4E4"/>
		<stop  offset="0.5944" style="stop-color:#C4C4C4"/>
		<stop  offset="1" style="stop-color:#333333"/>
	</radialGradient>
	<path class="st2" d="M861.5,603c-0.5,1.5-1,3-1,3.5c-47,149.5-190,258-359,258c-170.5,0-314-110-360-261.5c-28,5-37.5,7-65,10.5
		C128,795,298.5,928,501.5,928s374-133.5,425-315C902,610.5,888,608,861.5,603z"/>
	
		<radialGradient id="SVGID_4_" cx="584.3755" cy="10094.9766" r="445.847" gradientTransform="matrix(1 0 0 -1 -197.6 10791.1201)" gradientUnits="userSpaceOnUse">
		<stop  offset="0.2022" style="stop-color:#FFFFFF"/>
		<stop  offset="0.368" style="stop-color:#E4E4E4"/>
		<stop  offset="0.5944" style="stop-color:#C4C4C4"/>
		<stop  offset="1" style="stop-color:#333333"/>
	</radialGradient>
	<path class="st3" d="M149.5,401.5c10.5-4.5,21-11.5,37-16c48-124,171-212.5,315.5-212.5c144,0,267,88,315,211.5c0,0.5,0.5,1,0.5,1
		c8.5,3,32.5,12.5,40,16c1,0,3.5,0,5.5,0c0-0.5-0.5-1-0.5-1.5C818,247,673,135,501.5,135c-172,0-317,112.5-361.5,266
		C143,402,147.5,401.5,149.5,401.5z"/>
	<path class="st4" d="M499,146c161,0,304,96,358,254.5c0,0.5,0.5,1,0.5,1.5c1,0,4,0,5.5,0c0-0.5-0.5-1-0.5-1.5
		c-44.5-153-189.5-265-361-265c-172,0-317,112.5-361.5,266c3.5,0,5,0,9-0.5C197.5,251,339,146,499,146z"/>
	
		<radialGradient id="SVGID_5_" cx="944.1605" cy="9639.083" r="845.965" gradientTransform="matrix(1 0 0 -1 -197.6 10791.1201)" gradientUnits="userSpaceOnUse">
		<stop  offset="0.2022" style="stop-color:#FFFFFF"/>
		<stop  offset="0.368" style="stop-color:#E4E4E4"/>
		<stop  offset="0.5944" style="stop-color:#C4C4C4"/>
		<stop  offset="1" style="stop-color:#333333"/>
	</radialGradient>
	<path class="st5" d="M852.5,603.5C841,610,826.5,616,815,620c0,0.5-1,2-1,2.5c-50,120-171,205-312.5,205c-142.5,0-264-86-313.5-207
		c-13.5-3.5-33-12.5-40.5-16.5c-3,0-4.5,0-6-0.5c46,151,189.5,261.5,360,261.5c169.5,0,313-109,359-259c0-0.5,0.5-2,0.5-2
		C859,603,854.5,603.5,852.5,603.5z"/>
	
		<radialGradient id="SVGID_6_" cx="690.8989" cy="10631.0586" r="672.258" gradientTransform="matrix(1 0 0 -1 -197.6 10791.1201)" gradientUnits="userSpaceOnUse">
		<stop  offset="0.2022" style="stop-color:#FFFFFF"/>
		<stop  offset="0.3966" style="stop-color:#FDFDFD"/>
		<stop  offset="0.5101" style="stop-color:#F4F4F4"/>
		<stop  offset="0.6029" style="stop-color:#E6E6E6"/>
		<stop  offset="0.6839" style="stop-color:#D2D2D2"/>
		<stop  offset="0.7278" style="stop-color:#C4C4C4"/>
		<stop  offset="1" style="stop-color:#4D4D4D"/>
	</radialGradient>
	<path class="st6" d="M957.5,406.5c-24-3-40-2.5-98-4.5c-2.5,0-5.5,0-8-0.5C746.5,398,589,393,500,393s-247,5-351.5,8.5
		c-2.5,0-5.5,0-8,0.5c-58,2-74,1.5-98,4.5c-24,3-42.5,13-42.5,31V566c0,17.5,22.5,32,42.5,32c0,0,253.5,15.5,457.5,16
		c204,0,457.5-16,457.5-16c20,0,42.5-14.5,42.5-32V437.5C1000,419.5,981.5,409.5,957.5,406.5z"/>
	<path class="st4" d="M852.5,603.5c-50,147.5-190,250.5-348,250.5c-160,0-301.5-94.5-356.5-250.5c-2,0-4,0-6-0.5
		c46,151,189.5,261.5,360,261.5S816,754,862,603C858.5,603,855.5,603.5,852.5,603.5z"/>
	<path class="st7" d="M852.5,603.5L852.5,603.5c-12,6.5-26.5,12.5-38,16.5c0,0.5-1,2-1,2.5c-16,38-38.5,72.5-67,102
		C791.5,691.5,827.5,650.5,852.5,603.5z"/>
	<path class="st8" d="M266,733.5c-33.5-32-60-70.5-77.5-113.5c-13.5-3.5-33-12.5-40.5-16.5c8,17,17.5,32.5,28,47.5
		c22,28.5,49,54.5,79,76C258.5,729,262.5,731.5,266,733.5z"/>
	<path class="st9" d="M141.5,603L141.5,603L141.5,603c-28,5-37.5,7-65,10.5c2,8,4.5,15.5,7.5,23.5L141.5,603z"/>
	
		<radialGradient id="NISSAN_1_" cx="706.475" cy="10563.7285" r="452.798" gradientTransform="matrix(1 0 0 -1 -197.6 10791.1201)" gradientUnits="userSpaceOnUse">
		<stop  offset="0.1111" style="stop-color:#4D4D4D"/>
		<stop  offset="0.248" style="stop-color:#494949"/>
		<stop  offset="0.3546" style="stop-color:#404040"/>
		<stop  offset="0.451" style="stop-color:#2F2F2F"/>
		<stop  offset="0.5409" style="stop-color:#181818"/>
		<stop  offset="0.6111" style="stop-color:#000000"/>
	</radialGradient>
	<path id="NISSAN" class="st10" d="M703,463c-8.5-18.5-5.5-16.5-23.5-17c-1.5-0.5-5.5-0.5-11-0.5s-6.5,0-11,0.5c-17,0-14-1-20,11.5
		c0,0-29.5,66-42,93.5l-0.5,1c-2.5,5-1,5,3,5h26.5c2,0,3-1,3.5-2c0,0,4-8.5,9-20h64.5c5,11.5,8.5,19.5,8.5,20c0.5,1.5,2,2,3.5,2H741
		c4,0,5,0.5,3.5-3C739.5,542,707.5,473.5,703,463L703,463z M647,511.5c8.5-19.5,16.5-38.5,16.5-39c0.5-1,1.5-1.5,3-1.5
		c0.5-0.5,2-0.5,3.5-0.5c1,0,2.5,0,3,0.5c1,0,2,0.5,2.5,2c2,5.5,9.5,22,16,38.5L647,511.5L647,511.5z M293.5,444.5c2.5,0,3,1,3,3
		v105c0,2.5-0.5,3.5-3.5,3.5h-25.5c-3,0-3.5-0.5-3.5-3.5v-105c0-2,0.5-3,2.5-3H293.5L293.5,444.5z M239,445.5c3,0,3.5,1,3.5,3.5
		v104.5c0,3-0.5,3.5-3.5,3.5h-30c-17.5,0-19,0-25-10c-12-19-49-75.5-49-75.5v82c0,3-0.5,3.5-3.5,3.5h-22c-3,0-3.5-0.5-3.5-3.5V449
		c0-2.5,0.5-3.5,3.5-3.5c0,0,6,0,25.5,0c19,0,21.5-0.5,28.5,9.5c5.5,9,50,77.5,50,77.5V449c0-2.5,0.5-3.5,3.5-3.5L239,445.5
		L239,445.5z M894,445.5c3,0,3.5,1,3.5,3.5v104.5c0,3-0.5,3.5-3.5,3.5h-30c-17.5,0-19,0-25-10c-12.5-19-49-75.5-49-75.5v82
		c0,3-0.5,3.5-3.5,3.5h-22c-3,0-3.5-0.5-3.5-3.5V449c0-2.5,0.5-3.5,3.5-3.5c0,0,6,0,25.5,0c19,0,21.5-0.5,28.5,9.5
		c6,9,50,77.5,50,77.5V449c0-2.5,0.5-3.5,3.5-3.5L894,445.5L894,445.5z M406,488c19.5,2,34,5.5,38,24c0,1.5,0.5,6.5,0.5,12
		c0,3.5,0,8-1,12c-3.5,17.5-16.5,21-37.5,21h-82.5c-3,0-3.5-0.5-3.5-3.5V536c0-3,0.5-3.5,3.5-3.5c0,0,82,0,83.5,0c3.5,0,4.5-1,5-3.5
		c0-2,0-3,0-4.5s0-2.5,0-3c-0.5-2-1-5-5.5-5.5c-9.5-0.5-37-3-55.5-5c-24-2.5-30-12.5-31-21.5c-0.5-3-0.5-7-0.5-10.5
		c0-3,0-7.5,0.5-11c3.5-15.5,15-23,36-23h80c3,0,4,0.5,4,3v18c0,2.5-1,3.5-4,3c0,0-76.5,0-78.5,0c-3.5,0-5,1.5-5.5,5c0,0.5,0,1,0,2
		c0,1,0,1.5,0,2.5c0,2.5,1.5,4.5,5,5C366,485,395,487,406,488L406,488z M547.5,488c19.5,2,34,5.5,38,24c0,1.5,0.5,6.5,0.5,12
		c0,3.5,0,8-1,12c-3.5,17.5-16.5,21-37.5,21h-82c-3,0-3.5-0.5-3.5-3.5V536c0-3,0.5-3.5,3.5-3.5c0,0,82,0,83.5,0c3.5,0,4.5-1,5-3.5
		c0-2,0-3,0-4.5s0-2.5,0-3c-0.5-2-1.5-5-5.5-5.5c-9.5-0.5-37-3-55.5-5c-24-2.5-29.5-12.5-31-21.5c-0.5-3-0.5-7-0.5-10.5
		c0-3,0-7.5,0.5-11c3.5-15.5,15-23,36-23h80c3,0,4,0.5,4,3v18c0,2.5-1,3.5-4,3c0,0-76.5,0-78.5,0c-3.5,0-5,1.5-5.5,5c0,0.5,0,1,0,2
		c0,1,0,1.5,0,2.5c0,2.5,1,4.5,5,5C508,485,537,487,547.5,488L547.5,488z"/>
</g>
</svg>
