<?xml version="1.0" encoding="utf-8"?>
<!-- Generator: Adobe Illustrator 24.0.2, SVG Export Plug-In . SVG Version: 6.00 Build 0)  -->
<svg version="1.1" id="Layer_1" xmlns="http://www.w3.org/2000/svg" xmlns:xlink="http://www.w3.org/1999/xlink" x="0px" y="0px"
	 viewBox="0 0 216 144" style="enable-background:new 0 0 216 144;" xml:space="preserve">
<style type="text/css">
	.st0{fill:url(#SVGID_1_);}
	.st1{fill:url(#SVGID_2_);}
	.st2{fill:url(#SVGID_3_);}
	.st3{fill:url(#SVGID_4_);}
	.st4{fill:url(#SVGID_5_);}
	.st5{fill:url(#SVGID_6_);}
	.st6{opacity:0.85;fill:url(#SVGID_7_);}
	.st7{opacity:0.85;fill:url(#SVGID_8_);}
	.st8{opacity:0.85;fill:url(#SVGID_9_);}
	.st9{fill:url(#SVGID_10_);}
	.st10{fill:#7F7F7E;}
	.st11{fill:url(#SVGID_11_);}
	.st12{fill:url(#SVGID_12_);}
	.st13{fill:url(#SVGID_13_);}
	.st14{fill:url(#SVGID_14_);}
	.st15{fill:url(#SVGID_15_);}
	.st16{fill:url(#SVGID_16_);}
	.st17{fill:url(#SVGID_17_);}
	.st18{fill:url(#SVGID_18_);}
	.st19{fill:url(#SVGID_19_);}
	.st20{fill:url(#SVGID_20_);}
	.st21{fill:url(#SVGID_21_);}
	.st22{fill:url(#SVGID_22_);}
	.st23{fill:url(#SVGID_23_);}
	.st24{fill:url(#SVGID_24_);}
	.st25{fill:url(#SVGID_25_);}
	.st26{fill:url(#SVGID_26_);}
	.st27{fill:url(#SVGID_27_);}
	.st28{fill:#192753;}
</style>
<g>
	<g>
		<g>
			<g>
				<g>
					<g>
						<path d="M144.28,91.4c-1.62-4.84-8.15-16.97-13.29-23.8c-1.11-1.49-0.7-2.25-0.1-2.73c0.59-0.48,2.5-2.13,4.76-4.72
							c2.29-2.61,2.84-5.57,1.22-9.84c-1.61-4.23-6.92-14.3-8.04-17.63c-1.28-3.85-1.41-5.56-0.64-7.65
							c0.91-2.47,2.23-2.57,3.24-2.55c0.54,0.01,0.93,0.58,0.94,0.83c0.03,1.09,0.08,2.43,1.14,5.24c1.7,4.47,6.04,7.39,7.41,7.98
							c0.96,0.41,1.13-0.33,1.04-0.68c-0.09-0.35-1.5-5.9-2.56-10.06c-1.11-4.37-1.67-5.32-2.66-6.24
							c-1.58-1.49-3.96-2.29-5.99-2.22c-4.51,0.18-6.51,4.54-6.75,4.94c-0.21,0.36-0.3,0.62-0.76,0.3c-1.29-0.9-5.06-4.05-5.4-6.02
							c-0.2-1.16-0.41-1.33-1.57-1.78c-4.53-1.77-8.45-3.32-12.79-4.09c-1.74-0.31-1.83-0.46-3.87-0.08
							c-3.45,0.64-5.56,1.44-8.16,2.8c-1.43,0.76-1.59,1.26-1.87,1.63c-0.22,0.28-0.45,0.62-0.96,0.79
							c-0.86,0.28-4.06,1.47-5.16,2.11c-0.68,0.4-1.06,0.82-0.71,1.59c0.61,1.37,2.46,4.21,3.26,4.92c0.49,0.43,1.71,0.73,2,0.79
							c0.29,0.07,0.49,0.16,0.6-0.06c0.12-0.24,0.16-0.59,0.73-0.99c0.86-0.6,2.46-1.02,3.31-1.1c0.65-0.05,1.05-0.08,1.38,0.17
							c0.33,0.25,1.1,1.07,1.37,1.89c0.27,0.83,0.1,1.14-0.36,1.33c-0.46,0.19-1.85,0.51-3.46,0.64c-1.6,0.13-2.06-0.31-2.17-0.42
							c-0.09-0.09-0.3-0.23-0.46-0.01c-0.27,0.37-0.68,0.62-1.3,0.93c-0.36,0.17-0.55,0.55-0.21,1.14c1.02,1.76,2.37,3.75,3.62,4.12
							c0.99,0.31,1.52-0.02,2.64-0.81c1-0.72,1.65-0.72,1.93-0.51c0.3,0.23,0.9,0.73,0.75,1.24c-0.27,0.89-2.05,3-2.4,3.44
							c-0.32,0.41-0.63,0.63-1.2,0.36c-0.84-0.4-13.67-7.06-15.38-7.73c-1.87-0.72-3.09-0.89-4.93-0.98
							c-1.49-0.07-3.47,0.08-4.71,0.3c-0.91,0.17-1.42,0.59-2.27,1.37c-1.16,1.07-2.39,2.45-2.5,3.59c-0.08,0.82,0.83,2.5,0.93,2.62
							c0.1,0.13,0.27,0.36,0.77,0.3c0.51-0.06,1.78-0.72,3.29-0.45c1.37,0.24,1.51,1.31,1.58,2.14c0.01,0.14,0.18,0.46,0.57,0.46
							c0.55-0.01,1.4,0.01,2.39,0.48c1.22,0.58,3.63,2.44,4,2.86c0.3,0.34,0.28,0.64-0.29,0.7c-3.06,0.27-7.71,1.18-9.86,1.89
							c-1.53,0.5-3.33,1.19-3.97,2.29c-0.72,1.25-1.63,3.27-1.89,4.7c-0.26,1.43,1.27,3.2,1.68,3.6c0.28,0.27,0.46,0.43,0.95,0.17
							c0.75-0.43,2.56-1.54,4.29-1.65c1.05-0.06,1.47,0.93,1.72,1.29c0.25,0.36,0.5,0.11,1.44-0.15c1.67-0.45,10.97-0.28,14.26-0.12
							c1.5,0.06,3.59,0.29,5.13,1.14c1.53,0.84,4.3,3.45,4.3,3.45s-3.68,6.16-5.66,9.82c-1.83,3.38-3.17,5.91-3.83,7.38
							c-0.61,1.34-1.1,3.25-0.99,4.75c0.17,2.19,0.22,3.32,0.2,4.32c-0.02,0.87-0.84,0.97-2,1.25c-1.59,0.41-4.77,0.7-7.35,1.33
							c-2.34,0.58-3.21,1.13-3.64,2.94c-0.33,1.41-0.81,4.91-0.87,6.53c-0.03,0.66-0.04,0.98,0.79,0.81
							c0.48-0.09,1.86-0.29,3.61-0.42c2.17-0.17,4.53-0.13,6.35-0.14c3.34-0.02,13.23,0.56,13.89,0.62
							c0.85,0.08,1.01-0.02,0.96-0.61c-0.08-0.78-0.22-3.26-0.26-4.74c-0.04-1.48-0.27-2.99,1.08-4.44
							c1.33-1.45,11.4-12.68,11.96-13.25c0.49-0.49,0.81-1.01,1.56-0.32c0.75,0.69,9.04,6.67,10.72,7.89
							c1.69,1.22,3.25,1.64,5.17,1.66c1.37,0.02,1.75,2.41,0.58,2.63c-1.19,0.23-3.01,0.6-4.28,0.89c-1.96,0.46-2.56,1.1-3.15,2.42
							c-0.5,1.12-1.06,6.6-1.08,7.08c-0.02,0.34-0.04,0.84,0.5,0.72c2.42-0.49,6.26-0.63,10.35-0.5c4.71,0.14,9.28,0.53,9.93,0.57
							c0.69,0.05,0.76-0.06,1.11-0.6c0.59-0.93,2.37-2.98,3.91-4.24C144.59,92.61,144.6,92.35,144.28,91.4z M126.2,58.24
							c-1.2,0.39-1.97,0.05-2.55-0.5c-0.58-0.56-5.34-6.27-6.86-8.02c-0.77-0.88-1.35-2.89,0.97-3.75c1.9-0.69,5.31-1.79,6.26-2.28
							c0.94-0.5,1.44-1.01,1.53-1.98c0.07-0.98,0.08-2.07,0.09-2.43c0.01-0.37,0.48-0.66,0.73-0.23c0.17,0.3,1.02,1.97,2.06,3.89
							c1.55,2.89,3.51,6.5,4.16,8.05c0.6,1.49,0.31,2.62-0.62,3.75C130.71,56.28,127.07,57.95,126.2,58.24z"/>
					</g>
				</g>
				<linearGradient id="SVGID_1_" gradientUnits="userSpaceOnUse" x1="142.8702" y1="22.1966" x2="116.7015" y2="62.2769">
					<stop  offset="0.2033" style="stop-color:#B5B3B3"/>
					<stop  offset="0.219" style="stop-color:#9A9696"/>
					<stop  offset="0.2517" style="stop-color:#6D6969"/>
					<stop  offset="0.2838" style="stop-color:#4F4C4C"/>
					<stop  offset="0.3144" style="stop-color:#3C3A3A"/>
					<stop  offset="0.3432" style="stop-color:#31302F"/>
					<stop  offset="0.3681" style="stop-color:#2E2C2C"/>
					<stop  offset="0.4428" style="stop-color:#323130"/>
					<stop  offset="0.542" style="stop-color:#3F3D3D"/>
					<stop  offset="0.6549" style="stop-color:#565453"/>
					<stop  offset="0.7772" style="stop-color:#7B7878"/>
					<stop  offset="0.8132" style="stop-color:#898686"/>
					<stop  offset="1" style="stop-color:#000000"/>
				</linearGradient>
				<path class="st0" d="M131.1,18.21c-0.01,0-0.02,0-0.04,0c-3.71-0.02-7.46,4.28-6.75,10.69c0.45,3.92,1.04,5.71,2.21,8.24
					c0.58,1.25,6.91,13.3,7.2,14.58c0.39,1.82,0.04,2.96-1.36,4.24c-1.54,1.4-4.11,2.99-5.83,3.58c-0.41,0.14-0.78,0.21-1.13,0.21
					c-0.39,0-1.37-0.13-3.22-2.41l8.18,10.91c-1.04-1.39-1.58-2.45-1.39-3.38c0.19-0.91,1.67-1.9,3.39-3.25
					c1.72-1.34,3.62-3.02,4.49-5.3c0.25-0.65,0.36-1.32,0.36-2.03c0-2.18-1.05-4.64-2.32-7.31c-1.63-3.47-6.27-11.03-7.68-16.33
					c-0.35-1.3-0.5-2.47-0.5-3.51c0-3,1.28-4.91,2.84-5.56c0.75-0.3,1.42-0.41,1.98-0.41c0.86,0,1.45,0.24,1.7,0.37
					c0.44,0.25,0.5,0.77,0.5,1.18c0,0.03,0,0.06,0,0.09c0,0.1-0.02,0.32-0.02,0.65c0,1.24,0.17,3.95,1.61,6.59
					c1.82,3.35,4.87,5.22,6.07,5.72c0.1,0.04-2.81-10.75-3.33-12.78C137.45,20.63,135.78,18.25,131.1,18.21z"/>
				<linearGradient id="SVGID_2_" gradientUnits="userSpaceOnUse" x1="69.3688" y1="51.2917" x2="74.1107" y2="40.4313">
					<stop  offset="0.031" style="stop-color:#8C8888"/>
					<stop  offset="0.2" style="stop-color:#8C8888"/>
					<stop  offset="0.9897" style="stop-color:#403E3D"/>
				</linearGradient>
				<path class="st1" d="M80.17,42.18c0.71,0.71-0.53,0.67-4.3,1c-3.84,0.33-7.7,1.11-9.73,1.87c-1.48,0.56-2.38,0.95-2.97,2.31
					c0,0-1.23,2.67-1.39,3.73c-0.08,0.5-0.05,0.79,0.21,1.21c0.15,0.22,0.5-6.97,9.78-7.44c8.21-0.42,10.23-1.28,8.63-2.85
					L80.17,42.18z"/>
				<linearGradient id="SVGID_3_" gradientUnits="userSpaceOnUse" x1="134.1154" y1="25.2057" x2="128.2743" y2="24.6531">
					<stop  offset="0.1966" style="stop-color:#2E2C2C"/>
					<stop  offset="0.261" style="stop-color:#2F2E2D"/>
					<stop  offset="0.2843" style="stop-color:#343332"/>
					<stop  offset="0.3008" style="stop-color:#3E3C3B"/>
					<stop  offset="0.3142" style="stop-color:#4B4948"/>
					<stop  offset="0.3257" style="stop-color:#5E5C5B"/>
					<stop  offset="0.3358" style="stop-color:#797676"/>
					<stop  offset="0.345" style="stop-color:#9E9B9B"/>
					<stop  offset="0.3532" style="stop-color:#CDCBCB"/>
					<stop  offset="0.3586" style="stop-color:#FFFFFF"/>
					<stop  offset="0.8241" style="stop-color:#2E2C2C"/>
					<stop  offset="1" style="stop-color:#1A1A1A"/>
				</linearGradient>
				<path class="st2" d="M127.17,27.43c0,0,0.18-1.88,0.51-2.76c0.83-2.39,2.36-2.89,3.41-2.89c0.71,0,1.03,0.17,1.33,0.49
					c0.23,0.26,0.38,0.49,0.42,0.85c0.03,1.07,0.07,2.3,1.11,5.07c0.06,0.17,0.13,0.34,0.2,0.5c-0.88-2.24-0.99-4.31-0.99-5.37
					c0-0.34,0.01-0.73,0.01-0.73c0-0.81-0.89-1.05-1.69-1.05c-0.5,0-1.11,0.09-1.79,0.37c-1.3,0.52-2.48,2.15-2.54,4.91
					L127.17,27.43z"/>
				<linearGradient id="SVGID_4_" gradientUnits="userSpaceOnUse" x1="81.5644" y1="57.0275" x2="86.3701" y2="46.0209">
					<stop  offset="0" style="stop-color:#B5B3B3"/>
					<stop  offset="0.1072" style="stop-color:#A29F9F"/>
					<stop  offset="0.2468" style="stop-color:#918E8E"/>
					<stop  offset="0.3681" style="stop-color:#8C8888"/>
					<stop  offset="0.9897" style="stop-color:#000000"/>
				</linearGradient>
				<path class="st3" d="M80.49,42.49c0.28,0.76-0.83,0.58-4.6,0.91c-3.84,0.33-7.71,1.08-9.73,1.84c-1.48,0.56-2.37,0.95-2.97,2.31
					c0,0-1.23,2.67-1.4,3.73c-0.08,0.5,0.05,0.79,0.31,1.2c0.39,0.62,0.65,0.76,1.22,0.43c0.47-0.27,2.52-1.43,3.86-1.46
					c1.23-0.03,1.77,0.72,1.95,1.36c0.11,0.4,0.65,0.19,0.74,0.17c0.54-0.14,1.06-0.3,2.98-0.44c2.28-0.17,11.17-0.09,14.43-0.02
					c2.94,0.07,14.5,9.14,14.67,9.18l0.58-1.17C98.62,57.3,84.02,45.73,80.5,42.28L80.49,42.49z"/>
				<linearGradient id="SVGID_5_" gradientUnits="userSpaceOnUse" x1="128.3134" y1="108.9115" x2="42.4662" y2="21.5775">
					<stop  offset="0.0769" style="stop-color:#676464"/>
					<stop  offset="0.1209" style="stop-color:#73706F"/>
					<stop  offset="0.1703" style="stop-color:#53504F"/>
					<stop  offset="0.3077" style="stop-color:#676464"/>
					<stop  offset="0.4725" style="stop-color:#E6E5E5"/>
					<stop  offset="0.6978" style="stop-color:#E6E5E5"/>
					<stop  offset="0.723" style="stop-color:#CFCDCD"/>
					<stop  offset="0.7716" style="stop-color:#9C9898"/>
					<stop  offset="0.8384" style="stop-color:#595655"/>
					<stop  offset="0.8407" style="stop-color:#575453"/>
					<stop  offset="0.9615" style="stop-color:#2E2C2C"/>
				</linearGradient>
				<path class="st4" d="M113.81,49.66c1.76,2.11,7,8.48,11.49,14.23c6.99,8.96,11.32,15.98,15.86,26.32
					c0.45,1.03,0.11,1.14-0.61,1.73c-1.39,1.13-1.1,1.59-2.13,3.37c-0.12,0.2-0.38,0.54-0.71,0.51c-0.96-0.08-8.4-0.71-13.29-0.53
					c-2.9,0.1-3.66,0.31-4.3,0.46c-0.52,0.13-0.7,0.07-0.68-0.6c0.01-0.26,0.56-3.32,0.98-4.44c0.42-1.12,1.07-1.56,2.05-1.83
					c0.97-0.27,3.73-0.78,4.84-1.06c1.12-0.28,1.17-1.34,1.07-2.14c-0.11-0.8-0.74-1.88-1.47-2.01c-0.97-0.17-1.63-0.31-2.71-0.78
					c-1.06-0.48-16.25-12.71-17.64-13.84c-0.35-0.29-0.63-0.5-0.74-0.37c-0.11,0.13,0.18,0.49,0.31,0.64
					c0.26,0.27,2.55,2.64,3.06,3.12c0.36,0.35,0.17,0.53-0.01,0.7c-0.27,0.25-7.46,7.33-10.44,10.42c-2.97,3.08-5.12,4.89-5.09,7.35
					c0.03,2.47,0.13,4.39,0.14,4.82c0,0.37-0.38,0.37-0.7,0.34c-0.92-0.08-8.06-0.79-12.06-0.87c-4-0.08-6.9,0.3-8.79,0.78
					c-0.44,0.11-0.58-0.15-0.55-0.54c0.04-0.62,0.48-3.16,1.03-4.81c0.38-1.14,1.2-1.59,2.19-1.83c1.3-0.32,6.43-1.24,8.73-1.6
					c1.26-0.2,1.52-0.63,1.5-1.68c-0.02-1.08-0.14-3.38-0.2-4.53c-0.06-1.15,0.31-2.42,0.74-3.43c1.82-4.27,6.29-13.26,10.17-18.63
					c0.45-0.62,0.9-0.73,1.33-0.62c0.51,0.13,2.84,1.96,3.03,2.05c0.41,0.21,0.95,0.02,0.7-0.23c-1.36-1.36-5.46-3.86-7.96-5.85
					c-4.95-3.95-10.11-9.68-14.26-13.51c-2.14-1.97-4.44-3.43-6.15-3.8c-0.61-0.13-1.17-0.13-1.7-0.21c-0.25-0.04-0.3-0.26-0.3-0.38
					c-0.02-0.26,0.02-0.77-0.51-1.38c-0.4-0.45-1.25-0.6-1.85-0.61c-0.84-0.03-2.22,0.15-3,0.37c-0.38,0.1-0.56,0.03-0.7-0.14
					c-0.13-0.15-0.35-0.65-0.42-1.12c-0.05-0.33,0.05-0.59,0.24-0.95c0.51-0.97,1.81-1.92,2.56-2.61c0.76-0.71,1.26-0.75,1.98-0.84
					c1.75-0.21,4.06-0.35,6.42,0.18c1.72,0.39,3.08,1.07,4.77,1.9c1.68,0.84,11.44,5.83,12.69,6.43L113.81,49.66z"/>
				<radialGradient id="SVGID_6_" cx="91.1652" cy="32.9722" r="19.5776" gradientUnits="userSpaceOnUse">
					<stop  offset="0.0357" style="stop-color:#FFFFFF"/>
					<stop  offset="0.467" style="stop-color:#FFFFFF"/>
					<stop  offset="0.5207" style="stop-color:#F3F3F2"/>
					<stop  offset="0.5763" style="stop-color:#DEDDDC"/>
					<stop  offset="0.6328" style="stop-color:#C1BEBE"/>
					<stop  offset="0.69" style="stop-color:#9C9999"/>
					<stop  offset="0.7473" style="stop-color:#73706F"/>
					<stop  offset="0.8462" style="stop-color:#53504F"/>
					<stop  offset="1" style="stop-color:#2E2C2C"/>
				</radialGradient>
				<path class="st5" d="M97.59,31.89c0.19,1.21-0.59,2.01-1.06,2.76c-0.46,0.73-1.42,1.83-1.91,2.44
					c-0.62,0.79-1.81,0.55-1.81,0.55s5.62,2.86,8.86,4.48c1.28,0.65,3.29,0.05,4.66-2.51c0.32-0.59,2.34-4.87,2.85-6.15
					c0.51-1.27,1.23-2.68,0.07-5.11c-1.16-2.42-4.75-6.89-6.18-8.61c-0.75-0.9-1.63-1.44-3.53-1.55c-1.87-0.1-4.19,0.18-7.18,0.98
					c-3.04,0.82-6.92,2.4-7.06,2.48c-0.08,0.05-0.07,0.13-0.03,0.22c0.04,0.08,0.44,0.79,0.44,0.79s0.21,0.48,0.79,0.81
					c0.58,0.33,1.15,0.47,1.3,0.5c0.15,0.03,0.22-0.03,0.27-0.11c0.05-0.07,0.62-1.16,2.72-1.71c1.14-0.29,1.86-0.32,2.21-0.32
					c0.55,0.01,1.4,0.28,1.87,0.74c0.77,0.76,1.44,2.01,1.56,2.62c0.12,0.58,0.03,1.31-0.56,1.61c-0.58,0.3-2.28,0.7-3.34,0.81
					c-1.11,0.11-2.18,0.05-2.81-0.31c-0.1-0.06-0.18-0.06-0.27,0.01c-0.24,0.2-0.38,0.36-0.86,0.64c-0.1,0.06-0.17,0.19-0.07,0.4
					c0.1,0.2,1.43,2.41,2.24,3.01c0.8,0.6,1.23,0.33,2.19-0.2c0.96-0.53,1.61-1.18,2.61-1.15C96.57,30.03,97.43,30.89,97.59,31.89z"
					/>
				
					<radialGradient id="SVGID_7_" cx="95.5588" cy="43.2697" r="6.9122" gradientTransform="matrix(1 0 0 0.9636 0 -12.6735)" gradientUnits="userSpaceOnUse">
					<stop  offset="0.0357" style="stop-color:#FFFFFF"/>
					<stop  offset="0.2276" style="stop-color:#FFFFFF"/>
					<stop  offset="0.2984" style="stop-color:#EAE8E8"/>
					<stop  offset="0.416" style="stop-color:#C4C2C2"/>
					<stop  offset="0.5658" style="stop-color:#918E8D"/>
					<stop  offset="0.7421" style="stop-color:#565453"/>
					<stop  offset="0.9385" style="stop-color:#1B1B1B"/>
					<stop  offset="1" style="stop-color:#000000"/>
				</radialGradient>
				<path class="st6" d="M95.79,27.02c-0.57,0.28-2.24,0.65-3.28,0.74c-1.08,0.1-2.14,0.05-2.76-0.29c-0.1-0.05-0.17-0.06-0.27,0.01
					c-0.24,0.18-0.38,0.34-0.84,0.59c-0.1,0.06-0.17,0.18-0.07,0.37c0.1,0.19,1.3,2.21,2.12,2.79c0.82,0.59,1.25,0.33,2.23-0.2
					c0.98-0.52,1.64-1.16,2.66-1.13L95.79,27.02z"/>
				<radialGradient id="SVGID_8_" cx="91.237" cy="18.168" r="8.1286" gradientUnits="userSpaceOnUse">
					<stop  offset="0.2308" style="stop-color:#FFFFFF"/>
					<stop  offset="0.5714" style="stop-color:#EAE9E8"/>
					<stop  offset="0.8626" style="stop-color:#000000"/>
				</radialGradient>
				<path class="st7" d="M92.2,19.51c-2.89,0.74-6.57,2.18-6.71,2.25c-0.08,0.05-0.06,0.21-0.03,0.29c0.04,0.07,0.42,0.71,0.42,0.71
					s0.19,0.43,0.75,0.73c0.55,0.3,1.01,0.44,1.16,0.48c0.15,0.03,0.22-0.03,0.27-0.11c0.05-0.07,0.62-1.16,2.72-1.71
					c1.14-0.29,1.86-0.32,2.21-0.32L92.2,19.51z"/>
				<radialGradient id="SVGID_9_" cx="104.8603" cy="34.0293" r="27.3844" gradientUnits="userSpaceOnUse">
					<stop  offset="0.0357" style="stop-color:#FFFFFF"/>
					<stop  offset="0.2527" style="stop-color:#FFFFFF"/>
					<stop  offset="0.2718" style="stop-color:#F3F3F2"/>
					<stop  offset="0.2915" style="stop-color:#DEDDDC"/>
					<stop  offset="0.3115" style="stop-color:#C1BEBE"/>
					<stop  offset="0.3316" style="stop-color:#9C9999"/>
					<stop  offset="0.3462" style="stop-color:#7F7C7C"/>
					<stop  offset="0.4121" style="stop-color:#53504F"/>
					<stop  offset="0.4725" style="stop-color:#2E2C2C"/>
					<stop  offset="0.8571" style="stop-color:#2E2C2C"/>
				</radialGradient>
				<path class="st8" d="M97.61,32.06c0.19,1.22-0.59,2.1-1.06,2.84c-0.47,0.74-1.42,1.83-1.91,2.45c-0.62,0.79-1.53,0.44-1.53,0.44
					s5.32,2.71,8.56,4.33c1.28,0.65,3.22,0.21,4.58-2.35c0.32-0.59,2.35-4.87,2.85-6.15L97.61,32.06z"/>
				<g>
					<linearGradient id="SVGID_10_" gradientUnits="userSpaceOnUse" x1="85.7314" y1="49.608" x2="72.325" y2="52.9597">
						<stop  offset="0" style="stop-color:#E6E5E5"/>
						<stop  offset="0.0624" style="stop-color:#D0CECE"/>
						<stop  offset="0.2582" style="stop-color:#999696"/>
						<stop  offset="0.2882" style="stop-color:#A9A6A6"/>
						<stop  offset="0.3483" style="stop-color:#C2C0C0"/>
						<stop  offset="0.4172" style="stop-color:#D6D4D4"/>
						<stop  offset="0.5019" style="stop-color:#E2E1E1"/>
						<stop  offset="0.6484" style="stop-color:#E6E5E5"/>
						<stop  offset="0.8956" style="stop-color:#FFFFFF"/>
					</linearGradient>
					<path class="st9" d="M71.11,52.08c-0.25-0.1-0.25-0.39,0.08-0.74c0.19-0.2,1.66-1.4,2.55-1.61c0.92-0.21,4.11-0.5,5.47-0.58
						c0.39-0.02,5.33-0.46,5.79-0.44c0.45,0.02,1.58,1.78,2.91,3.23c-0.16,0.01-4.46-0.08-8.12-0.07c-3.46,0.01-6.51,0.1-7.63,0.2
						C71.79,52.09,71.32,52.17,71.11,52.08z"/>
					<path class="st10" d="M71.09,52.14l0.02-0.06L71.09,52.14c-0.14-0.05-0.22-0.17-0.22-0.31l0,0c0-0.16,0.09-0.34,0.28-0.53l0,0
						c0.21-0.22,1.66-1.41,2.58-1.63l0,0c0.92-0.21,4.12-0.5,5.48-0.58l0,0c0.37-0.02,5.1-0.44,5.75-0.44l0,0c0.01,0,0.03,0,0.04,0
						l0,0c0.15,0.01,0.31,0.14,0.51,0.33l0,0c0.19,0.19,0.42,0.46,0.67,0.78l0,0c0.51,0.63,1.12,1.43,1.78,2.15l0,0l0.1,0.1
						l-0.14,0.01c-0.01,0-0.03,0-0.07,0l0,0c-0.56,0-4.24-0.08-7.56-0.08l0,0c-0.17,0-0.33,0-0.49,0l0,0
						c-3.46,0.01-6.51,0.1-7.62,0.19l0,0c-0.24,0.02-0.53,0.06-0.77,0.06l0,0C71.28,52.19,71.18,52.18,71.09,52.14L71.09,52.14z
						 M71.41,52.05c0.22,0,0.5-0.04,0.76-0.06l0,0c1.13-0.1,4.17-0.19,7.63-0.2l0,0c0.16,0,0.32,0,0.49,0l0,0
						c3.19,0,6.71,0.07,7.48,0.08l0,0c-0.96-1.06-1.81-2.26-2.35-2.81l0,0c-0.18-0.19-0.34-0.29-0.41-0.29l0,0
						c-0.01,0-0.02,0-0.03,0l0,0c-0.63,0-5.37,0.42-5.75,0.44l0,0c-1.35,0.08-4.56,0.37-5.46,0.58l0,0
						c-0.86,0.19-2.34,1.4-2.52,1.59l0,0C71.07,51.57,71,51.72,71,51.83l0,0c0,0.09,0.04,0.15,0.14,0.19l0,0l0,0
						C71.2,52.04,71.29,52.05,71.41,52.05L71.41,52.05z"/>
				</g>
				<g>
					<g>
						
							<linearGradient id="SVGID_11_" gradientUnits="userSpaceOnUse" x1="946.4092" y1="400.0028" x2="1086.5083" y2="570.6945" gradientTransform="matrix(0.4383 0 0 0.4383 -329.7418 -159.4146)">
							<stop  offset="0" style="stop-color:#FFFFFF"/>
							<stop  offset="0.069" style="stop-color:#CBC9C9"/>
							<stop  offset="0.1565" style="stop-color:#FFFFFF"/>
							<stop  offset="0.2033" style="stop-color:#FFFFFF"/>
							<stop  offset="0.2737" style="stop-color:#CDCBCB"/>
							<stop  offset="0.3297" style="stop-color:#B5B3B3"/>
							<stop  offset="0.3301" style="stop-color:#B6B3B3"/>
							<stop  offset="0.3601" style="stop-color:#D1CFCF"/>
							<stop  offset="0.394" style="stop-color:#E7E6E5"/>
							<stop  offset="0.435" style="stop-color:#F7F7F7"/>
							<stop  offset="0.502" style="stop-color:#FFFFFF"/>
							<stop  offset="0.8852" style="stop-color:#FFFFFF"/>
							<stop  offset="0.9797" style="stop-color:#969393"/>
						</linearGradient>
						<path class="st11" d="M142.36,90.62c-1.5-3.77-5.72-11.94-11.51-20.44c-5.68-8.36-15.3-19.68-16.63-21.56
							c-1.3-1.84-1.81-3.92,0.9-4.77c1.77-0.56,6.04-1.45,7.78-1.93c1.7-0.47,1.82-1.02,1.96-2.33c0.15-1.42-0.24-8.32-1.1-12.43
							c-0.18-0.85-0.75-1.56-1.44-2.05c-0.6-0.42-2.95-2.47-4.25-3.95c-1.49-1.7-2.16-3.3-2.4-4.53c0,0-0.04-0.26-0.32-0.53
							c-0.12-0.12-0.2-0.18-0.39-0.29c-2.55-1.57-11.57-4.04-13.41-4.19c-1.26-0.11-5.72,0.46-9.79,2.9
							c-1.2,0.72-1.25,1.61-2.08,2.1c-0.83,0.49-2.75,0.92-4.76,1.82c-1.11,0.49-1.11,0.58-0.85,1.2c0.11,0.26,0.83,1.58,1.19,1.58
							c0.36,0.01,0.8-0.18,1.25-0.36c0.59-0.23,4.56-1.77,7.7-2.44c3.51-0.75,7.27-0.81,8.61,0.6c2.04,2.15,5.61,6.99,6.69,9.08
							c1.06,2.07,0.96,3.08,0.25,5.21c-0.65,1.96-3.12,7.07-3.85,8.13c-0.73,1.06-1.61,1.65-3.73,0.78
							c-2.27-0.93-10.61-5.21-12.43-6.13c-1.23-0.62-6.39-3.23-10.29-5.19c-1.44-0.72-2.63-1.25-3.93-1.58
							c-2.87-0.73-5.95-0.4-7.38-0.17c-0.65,0.11-1.05,1.15-1.02,1.57c0.04,0.53,1.56,0.15,2.81,0.24c1.02,0.07,4.5,0.45,6.51,1.26
							c2.12,0.86,12.73,6.58,15.42,8.02c20.42,11.11,29.16,18.26,44.94,44.79c0.7,1.18,1.04,2.64-0.07,2.97
							c-1.62,0.47-8.35,1.75-10.39,2.42c-1.71,0.57-1.94,0.7-2.19,1.55c-0.28,0.97-0.71,2.88-0.61,3.27
							c0.05,0.16-0.09,0.36,0.26,0.36c1.89,0,8.69,0.01,13.92,0.5c0.63,0.06,0.66,0.05,1.06-0.55c0.46-0.7,2.27-2.78,3.46-3.65
							C142.78,91.54,142.45,90.85,142.36,90.62z"/>
					</g>
				</g>
				<linearGradient id="SVGID_12_" gradientUnits="userSpaceOnUse" x1="69.4878" y1="30.426" x2="132.2459" y2="90.0331">
					<stop  offset="0" style="stop-color:#C5C2C2"/>
					<stop  offset="0.011" style="stop-color:#BEBBBB"/>
					<stop  offset="0.133" style="stop-color:#807D7D"/>
					<stop  offset="0.2476" style="stop-color:#595655"/>
					<stop  offset="0.3516" style="stop-color:#403E3E"/>
					<stop  offset="0.4414" style="stop-color:#323130"/>
					<stop  offset="0.5069" style="stop-color:#2E2C2C"/>
					<stop  offset="0.5767" style="stop-color:#31302F"/>
					<stop  offset="0.6595" style="stop-color:#3D3B3A"/>
					<stop  offset="0.7489" style="stop-color:#504E4D"/>
					<stop  offset="0.8431" style="stop-color:#6F6C6C"/>
					<stop  offset="0.94" style="stop-color:#9E9B9B"/>
					<stop  offset="1" style="stop-color:#C5C2C2"/>
				</linearGradient>
				<path class="st12" d="M137.56,86.7c-0.11-1.08-1.1-2.68-2.85-5.43c-1.77-2.77-3.99-6.55-6.94-10.74
					c-5.25-7.43-10.41-13.23-16.83-18.31c-4.74-3.75-9.72-6.76-13.36-8.89c-3.65-2.14-19.06-10.56-21.44-11.31
					c-2.17-0.68-3.9-0.9-5.44-1.06c-1.05-0.11-1.93-0.03-2.86-0.03c-0.88,0-0.57-0.72-0.45-1c-0.09,0.2-0.62,1.19,0.25,1.19
					c0.63,0,2.1-0.05,3.1,0.06c1.9,0.21,4.3,0.73,5.81,1.32c2.14,0.83,12.2,6.83,14.8,8.28c7.83,4.44,13.79,8.52,19.38,13.02
					c8.54,6.88,15.92,14.86,25.17,31.06c0.37,0.63,0.56,1.11,0.56,1.7c0.03,0.91-0.75,1.23-1.01,1.3
					c-1.59,0.48-8.12,1.95-10.05,2.61c-1.64,0.58-1.94,0.94-2.18,1.7c-0.09,0.32-0.36,1.86-0.69,2.27
					c-0.32,0.42-1.08,0.51-1.88,0.51c-0.49,0-0.74,0.03-0.69-0.52c0.04-0.55,0.37-2.03,0.56-2.88c0.19-0.86,0.54-1.5,1.32-1.97
					c0.78-0.47,3.49-0.91,5.01-1.29c1.52-0.37,1.6-1.08,1.58-2.23c0,1.22-0.42,1.51-1.95,1.86c-1.55,0.34-4.16,0.68-5.02,1.26
					c-0.83,0.57-1.15,1.36-1.3,1.99c-0.52,2.16-0.88,3.75-0.82,4.28c0.05,0.47,0.24,0.54,0.76,0.48c0.52-0.06,1.84-0.25,3.81-0.32
					c0.58,0,0.54-0.71,0.53-1.49c0-0.28,0.01-1.13,0.16-1.54c0.14-0.41,0.46-0.79,0.96-0.94c1.09-0.34,7.16-1.98,10.24-2.89
					C137.12,88.36,137.68,87.93,137.56,86.7z"/>
				<linearGradient id="SVGID_13_" gradientUnits="userSpaceOnUse" x1="99.7329" y1="59.271" x2="75.2783" y2="95.8306">
					<stop  offset="0" style="stop-color:#A7A4A4"/>
					<stop  offset="0.1" style="stop-color:#FFFFFF"/>
					<stop  offset="0.3492" style="stop-color:#DFDDDD"/>
					<stop  offset="0.4136" style="stop-color:#EAE9E8"/>
					<stop  offset="0.5385" style="stop-color:#FFFFFF"/>
					<stop  offset="0.5709" style="stop-color:#AAA7A7"/>
					<stop  offset="0.6069" style="stop-color:#6E6A6A"/>
					<stop  offset="0.6405" style="stop-color:#474545"/>
					<stop  offset="0.6706" style="stop-color:#2F2E2D"/>
					<stop  offset="0.6962" style="stop-color:#201F1F"/>
					<stop  offset="0.7143" style="stop-color:#1A1A1A"/>
					<stop  offset="0.7166" style="stop-color:#202020"/>
					<stop  offset="0.7344" style="stop-color:#4B4848"/>
					<stop  offset="0.7525" style="stop-color:#747171"/>
					<stop  offset="0.7705" style="stop-color:#9D9A9A"/>
					<stop  offset="0.7885" style="stop-color:#C2BFBF"/>
					<stop  offset="0.8063" style="stop-color:#DFDDDD"/>
					<stop  offset="0.824" style="stop-color:#F4F3F3"/>
					<stop  offset="0.8414" style="stop-color:#FFFFFF"/>
					<stop  offset="0.8505" style="stop-color:#F2F2F1"/>
					<stop  offset="0.8608" style="stop-color:#DCDADA"/>
					<stop  offset="0.8717" style="stop-color:#BCBABA"/>
					<stop  offset="0.8829" style="stop-color:#959292"/>
					<stop  offset="0.8944" style="stop-color:#6A6666"/>
					<stop  offset="0.9061" style="stop-color:#3F3D3C"/>
					<stop  offset="0.9103" style="stop-color:#2F2E2D"/>
					<stop  offset="0.9451" style="stop-color:#2F2E2D"/>
					<stop  offset="1" style="stop-color:#5D5A59"/>
				</linearGradient>
				<path class="st13" d="M97.08,58.27c0.42,0.13,1.18,0.68,1.79,1.12c0.48,0.35,0.87,0.64,0.87,0.64
					c-4.09,5.11-10.14,13.92-12.09,17.65c-1.01,1.94-0.99,2.74-0.96,4.53c0.03,1.71,0.23,3.82,0.12,4.81
					c-0.11,0.99-0.74,1.42-1.74,1.69c-0.99,0.27-6.87,1.22-8.17,1.6c-1.3,0.38-1.59,1.11-1.81,2.05c-0.22,0.94-0.29,1.55-0.4,1.91
					c-0.12,0.4-0.04,0.69-0.42,0.71c-0.37,0.03-1.27,0.11-1.69,0.17c-0.43,0.06-0.49-0.03-0.47-0.49c0.02-0.47,0.44-2.51,0.73-3.59
					c0.28-1.08,0.75-1.81,2.22-2.17c1.47-0.36,7.45-1.36,8.57-1.56c1.33-0.24,1.65-0.8,1.59-2.08c-0.07-1.33-0.26-3.18-0.29-4.31
					c-0.04-1.15,0.03-2.08,0.41-3.1c0.42-1.12,2.54-5.72,4.32-8.97c2.45-4.48,5.47-9.28,6.06-10C96.17,58.32,96.5,58.09,97.08,58.27
					z"/>
				<linearGradient id="SVGID_14_" gradientUnits="userSpaceOnUse" x1="97.0032" y1="78.3138" x2="103.4584" y2="82.1161">
					<stop  offset="0.2" style="stop-color:#FFFFFF"/>
					<stop  offset="0.3237" style="stop-color:#F7F7F7"/>
					<stop  offset="0.3966" style="stop-color:#E7E6E6"/>
					<stop  offset="0.4564" style="stop-color:#D2D0D0"/>
					<stop  offset="0.5088" style="stop-color:#B7B4B4"/>
					<stop  offset="0.5207" style="stop-color:#AFADAD"/>
					<stop  offset="0.8352" style="stop-color:#2E2C2C"/>
					<stop  offset="0.9482" style="stop-color:#212120"/>
					<stop  offset="1" style="stop-color:#1A1A1A"/>
				</linearGradient>
				<path class="st14" d="M93.63,91.08c-0.05-1.06,0.34-2.03,1.01-2.99c0.9-1.3,2.3-2.63,4.01-4.4c3-3.11,10.31-10.26,10.57-10.53
					c0.17-0.16,0.36-0.39-0.04-0.78c-0.73-0.7-1.11-1.14-2.25-2.29c-0.7-0.7-1.18-1.12-1.16-1.36c0-0.03-8.16,9.15-10.84,15.94
					c-1.1,2.42-1.41,3.8-1.41,5.01C93.52,90.72,93.63,91.08,93.63,91.08z"/>
				<linearGradient id="SVGID_15_" gradientUnits="userSpaceOnUse" x1="100.6245" y1="60.8328" x2="107.4141" y2="52.704">
					<stop  offset="0.022" style="stop-color:#FFFFFF"/>
					<stop  offset="0.1828" style="stop-color:#FFFFFF"/>
					<stop  offset="0.2088" style="stop-color:#FFFFFF"/>
					<stop  offset="0.3109" style="stop-color:#ECEBEB"/>
					<stop  offset="0.4672" style="stop-color:#CCCACA"/>
					<stop  offset="0.5" style="stop-color:#C5C2C2"/>
					<stop  offset="0.5655" style="stop-color:#B5B2B2"/>
					<stop  offset="0.8161" style="stop-color:#848080"/>
					<stop  offset="0.9451" style="stop-color:#73706F"/>
					<stop  offset="1" style="stop-color:#6C6969"/>
				</linearGradient>
				<path class="st15" d="M67.73,31.12c1.14-0.01,2.2-0.04,3.18,0.08c1.94,0.24,4.31,0.75,5.81,1.38c0.78,0.33,2.62,1.33,4.78,2.55
					c3.73,2.11,8.4,4.86,10.05,5.79c5.77,3.28,10.53,6.37,14.87,9.59c1.57,1.16,3.07,2.36,4.55,3.55
					c8.57,6.92,15.61,14.59,25.01,31.01c0.36,0.64,0.47,1.14,0.43,1.7c-0.03,0.49-0.46,0.99-1.14,1.14L67.73,31.12z"/>
				<linearGradient id="SVGID_16_" gradientUnits="userSpaceOnUse" x1="115.6111" y1="15.4664" x2="124.4556" y2="24.5142">
					<stop  offset="0" style="stop-color:#000000"/>
					<stop  offset="0.0449" style="stop-color:#030303"/>
					<stop  offset="0.0706" style="stop-color:#0E0E0D"/>
					<stop  offset="0.0915" style="stop-color:#1C1B1B"/>
					<stop  offset="0.1098" style="stop-color:#2C2B2B"/>
					<stop  offset="0.1264" style="stop-color:#413E3E"/>
					<stop  offset="0.1417" style="stop-color:#5B5858"/>
					<stop  offset="0.1562" style="stop-color:#817D7D"/>
					<stop  offset="0.1695" style="stop-color:#B3B0B0"/>
					<stop  offset="0.1793" style="stop-color:#E6E5E5"/>
					<stop  offset="0.2297" style="stop-color:#A8A6A5"/>
					<stop  offset="0.2857" style="stop-color:#787575"/>
					<stop  offset="0.3428" style="stop-color:#565453"/>
					<stop  offset="0.4004" style="stop-color:#403E3D"/>
					<stop  offset="0.4586" style="stop-color:#312F2F"/>
					<stop  offset="0.5177" style="stop-color:#272626"/>
					<stop  offset="0.5793" style="stop-color:#242323"/>
					<stop  offset="0.7233" style="stop-color:#1E1D1D"/>
					<stop  offset="0.9352" style="stop-color:#0A0A09"/>
					<stop  offset="1" style="stop-color:#000000"/>
				</linearGradient>
				<path class="st16" d="M123.7,23.42h-0.01h-0.02c-0.33,0-0.56-0.14-0.75-0.28c-1.36-1.01-5.15-3.96-5.7-6.47
					c-0.34-1.17,0.09-0.64-1.13-1.25c-0.34-0.13-0.67-0.27-1.01-0.39c0.12,0.06,0.22,0.12,0.33,0.18c0.18,0.11,0.35,0.22,0.48,0.35
					c0.46,0.42,0.55,0.85,0.57,0.94c0.22,1.11,0.84,2.6,2.24,4.2c1.22,1.4,3.72,3.47,4.25,3.84c0.33,0.22,0.66,0.45,0.94,0.76
					c0.16-0.84,0.42-1.77,0.8-2.67c-0.06,0.1-0.12,0.23-0.23,0.37C124.32,23.18,124.07,23.4,123.7,23.42z"/>
				<linearGradient id="SVGID_17_" gradientUnits="userSpaceOnUse" x1="116.6709" y1="53.0611" x2="126.7357" y2="46.4529">
					<stop  offset="0" style="stop-color:#000000"/>
					<stop  offset="0.0449" style="stop-color:#030303"/>
					<stop  offset="0.0706" style="stop-color:#0E0E0D"/>
					<stop  offset="0.0915" style="stop-color:#1C1B1B"/>
					<stop  offset="0.1098" style="stop-color:#2C2B2B"/>
					<stop  offset="0.1264" style="stop-color:#413E3E"/>
					<stop  offset="0.1417" style="stop-color:#5B5858"/>
					<stop  offset="0.1562" style="stop-color:#817D7D"/>
					<stop  offset="0.1695" style="stop-color:#B3B0B0"/>
					<stop  offset="0.1793" style="stop-color:#E6E5E5"/>
					<stop  offset="0.2297" style="stop-color:#A8A6A5"/>
					<stop  offset="0.2857" style="stop-color:#787575"/>
					<stop  offset="0.3428" style="stop-color:#565453"/>
					<stop  offset="0.4004" style="stop-color:#403E3D"/>
					<stop  offset="0.4586" style="stop-color:#312F2F"/>
					<stop  offset="0.5177" style="stop-color:#272626"/>
					<stop  offset="0.5793" style="stop-color:#242323"/>
					<stop  offset="0.7233" style="stop-color:#1E1D1D"/>
					<stop  offset="0.9352" style="stop-color:#0A0A09"/>
					<stop  offset="1" style="stop-color:#000000"/>
				</linearGradient>
				<path class="st17" d="M115.41,44.54c-1.26,0.46-1.43,0.86-1.47,1.49v0.01c0,0.58,0.27,1.5,0.83,2.28
					c0.66,0.94,3.84,4.56,7.39,9.02c0.41,0.5,0.58,0.69,0.91,1.03c-0.13-0.17-5.14-6.51-6.68-8.26c-0.44-0.51-0.94-1.2-0.95-2.11
					c0-0.9,0.69-2.19,2.12-2.68c1.91-0.7,5.37-1.82,6.16-2.25c0.77-0.44,1-0.63,1.11-1.16c-0.4,0.32-0.91,0.53-1.56,0.71
					C121.51,43.11,117.11,44.01,115.41,44.54z"/>
				<g>
					<linearGradient id="SVGID_18_" gradientUnits="userSpaceOnUse" x1="124.7479" y1="20.9334" x2="137.9642" y2="20.9334">
						<stop  offset="0" style="stop-color:#403E3D"/>
						<stop  offset="0.2857" style="stop-color:#B5B3B3"/>
						<stop  offset="0.3396" style="stop-color:#858181"/>
						<stop  offset="0.3928" style="stop-color:#636160"/>
						<stop  offset="0.4437" style="stop-color:#4F4C4C"/>
						<stop  offset="0.4915" style="stop-color:#434141"/>
						<stop  offset="0.533" style="stop-color:#403E3D"/>
						<stop  offset="0.7582" style="stop-color:#1A1A1A"/>
						<stop  offset="1" style="stop-color:#000000"/>
					</linearGradient>
					<path class="st18" d="M124.75,23.76c0.69-2.4,2.87-5.24,6.34-5.24c4.42,0,6.26,1.67,6.87,4.15c-0.79-3.53-3.88-4.63-6.88-4.55
						C127.69,18.19,125.41,21.07,124.75,23.76z"/>
				</g>
				<linearGradient id="SVGID_19_" gradientUnits="userSpaceOnUse" x1="70.8083" y1="89.6575" x2="101.283" y2="89.6575">
					<stop  offset="0" style="stop-color:#000000"/>
					<stop  offset="0.0528" style="stop-color:#030303"/>
					<stop  offset="0.0831" style="stop-color:#0E0E0D"/>
					<stop  offset="0.1077" style="stop-color:#1C1B1B"/>
					<stop  offset="0.1292" style="stop-color:#2C2B2B"/>
					<stop  offset="0.1487" style="stop-color:#413E3E"/>
					<stop  offset="0.1665" style="stop-color:#5B5857"/>
					<stop  offset="0.1793" style="stop-color:#757272"/>
					<stop  offset="0.2534" style="stop-color:#565353"/>
					<stop  offset="0.3324" style="stop-color:#403E3D"/>
					<stop  offset="0.4126" style="stop-color:#312F2F"/>
					<stop  offset="0.4943" style="stop-color:#272626"/>
					<stop  offset="0.5793" style="stop-color:#242323"/>
					<stop  offset="0.7233" style="stop-color:#1E1D1D"/>
					<stop  offset="0.9352" style="stop-color:#0A0A09"/>
					<stop  offset="1" style="stop-color:#000000"/>
				</linearGradient>
				<path class="st19" d="M95.99,87.8c0.59-0.64,2.87-3.17,5.29-5.86c-0.79,0.8-1.51,1.53-2.07,2.11c-3.42,3.5-4.97,4.59-4.9,6.76
					c0.04,1.28,0.14,4.44,0.15,4.91c0,0.32,0.03,0.63-0.51,0.91c-0.27,0.14-0.72,0.14-0.96,0.14c-0.93,0-9.95-0.88-13.11-0.88
					c-3.17,0-5.88,0.35-7.51,0.76c-0.27,0.06-0.95,0.02-1.23-0.39c-0.14-0.21-0.19-0.43-0.2-0.62c-0.07,0.62-0.13,1.34-0.13,1.65
					c0.57-0.11,1.91-0.3,3.64-0.43c2.22-0.17,4.72-0.14,6.39-0.14c1.67,0,14.08,0.64,14.13,0.64c-0.08-0.95-0.2-3.22-0.24-4.64
					c-0.01-0.36-0.01-0.36-0.04-1.37C94.69,90.25,94.9,88.96,95.99,87.8z"/>
				<linearGradient id="SVGID_20_" gradientUnits="userSpaceOnUse" x1="109.5829" y1="77.9625" x2="123.2131" y2="77.9625">
					<stop  offset="0" style="stop-color:#000000"/>
					<stop  offset="0.0528" style="stop-color:#030303"/>
					<stop  offset="0.0831" style="stop-color:#0E0E0D"/>
					<stop  offset="0.1077" style="stop-color:#1C1B1B"/>
					<stop  offset="0.1292" style="stop-color:#2C2B2B"/>
					<stop  offset="0.1487" style="stop-color:#413E3E"/>
					<stop  offset="0.1665" style="stop-color:#5B5857"/>
					<stop  offset="0.1793" style="stop-color:#757272"/>
					<stop  offset="0.2534" style="stop-color:#565353"/>
					<stop  offset="0.3324" style="stop-color:#403E3D"/>
					<stop  offset="0.4126" style="stop-color:#312F2F"/>
					<stop  offset="0.4943" style="stop-color:#272626"/>
					<stop  offset="0.5793" style="stop-color:#242323"/>
					<stop  offset="0.7233" style="stop-color:#1E1D1D"/>
					<stop  offset="0.9352" style="stop-color:#0A0A09"/>
					<stop  offset="1" style="stop-color:#000000"/>
				</linearGradient>
				<path class="st20" d="M121.18,82.03c0.7,0.5,1.36,0.86,2.04,1.09c-0.57-0.4-1.41-1.04-2.5-1.88c-1.6-1.24-3.64-2.85-5.69-4.47
					c-1.73-1.38-3.47-2.77-4.95-3.96c-0.03,0.52-0.35,0.8-0.48,0.88c0.35,0.05,0.65,0.25,0.93,0.5
					C111.15,74.78,119.51,80.83,121.18,82.03z"/>
				<linearGradient id="SVGID_21_" gradientUnits="userSpaceOnUse" x1="118.709" y1="79.7939" x2="143.744" y2="79.7939">
					<stop  offset="0" style="stop-color:#000000"/>
					<stop  offset="0.0528" style="stop-color:#030303"/>
					<stop  offset="0.0831" style="stop-color:#0E0E0D"/>
					<stop  offset="0.1077" style="stop-color:#1C1B1B"/>
					<stop  offset="0.1292" style="stop-color:#2C2B2B"/>
					<stop  offset="0.1487" style="stop-color:#413E3E"/>
					<stop  offset="0.1665" style="stop-color:#5B5857"/>
					<stop  offset="0.1793" style="stop-color:#757272"/>
					<stop  offset="0.2534" style="stop-color:#565353"/>
					<stop  offset="0.3324" style="stop-color:#403E3D"/>
					<stop  offset="0.4126" style="stop-color:#312F2F"/>
					<stop  offset="0.4943" style="stop-color:#272626"/>
					<stop  offset="0.5793" style="stop-color:#242323"/>
					<stop  offset="0.7233" style="stop-color:#1E1D1D"/>
					<stop  offset="0.9352" style="stop-color:#0A0A09"/>
					<stop  offset="1" style="stop-color:#000000"/>
				</linearGradient>
				<path class="st21" d="M143.35,92.69c0.29-0.23,0.4-0.21,0.4-0.43c0-0.16-0.09-0.44-0.22-0.83c-1.69-4.83-8.12-16.76-13.13-23.39
					c-0.47-0.63-0.8-1.48-0.8-2.07c0-0.77,0.4-1.33,0.81-1.64c0.35-0.28,1.19-1.01,2.31-2.12c-1.73,1.29-2.94,2.33-3.08,2.79
					c-0.09,0.22-0.2,0.51-0.2,0.93c0,0.52,0.17,1.24,0.84,2.2c0.4,0.56,0.79,1.12,1.16,1.66c5.81,8.55,9.86,16.82,11.39,20.68
					c0.33,0.94,0.27,1.39-0.04,1.82c0,0-3.02,3.09-3.39,3.67c-0.16,0.23-0.27,0.43-0.48,0.61c-0.2,0.19-0.74,0.31-1.25,0.27
					c-4.47-0.42-9.32-0.6-11.75-0.6c-3.16,0-5.01,0.3-6.06,0.33c-0.57,0.02-0.97-0.12-1.04-0.21c0-0.01-0.01-0.03-0.03-0.04
					c-0.05,0.44-0.07,0.78-0.08,0.93c1.92-0.35,4.5-0.49,7.36-0.49c0.91,0,1.84,0.02,2.81,0.04c4.72,0.15,10.2,0.58,10.21,0.58
					C139.1,97.37,141.72,94.04,143.35,92.69z"/>
				<linearGradient id="SVGID_22_" gradientUnits="userSpaceOnUse" x1="69.4703" y1="55.3454" x2="95.5653" y2="55.3454">
					<stop  offset="0" style="stop-color:#53504F"/>
					<stop  offset="0.0586" style="stop-color:#555251"/>
					<stop  offset="0.0922" style="stop-color:#5C5959"/>
					<stop  offset="0.1194" style="stop-color:#696666"/>
					<stop  offset="0.1433" style="stop-color:#7D7A7A"/>
					<stop  offset="0.1647" style="stop-color:#9A9797"/>
					<stop  offset="0.1793" style="stop-color:#B5B3B3"/>
					<stop  offset="0.2826" style="stop-color:#807D7D"/>
					<stop  offset="0.3976" style="stop-color:#575454"/>
					<stop  offset="0.5148" style="stop-color:#3A3838"/>
					<stop  offset="0.633" style="stop-color:#242423"/>
					<stop  offset="0.7524" style="stop-color:#131312"/>
					<stop  offset="0.8737" style="stop-color:#050505"/>
					<stop  offset="1" style="stop-color:#000000"/>
				</linearGradient>
				<path class="st22" d="M95.57,57.75c-1.42-1-2.92-2.01-4.28-2.85c-1.79-1.12-3.5-1.9-4.01-1.89c-5.45-0.08-5.45-0.08-8.67-0.08
					c-2.5,0-4.88,0.09-5.82,0.16c-1.9,0.14-2.83,0.37-3.01,0.41c-0.19,0.04-0.3,0.03-0.31,0.03c0.05,0.07,0.12,0.22,0.15,0.28
					c0.05-0.02,0.13-0.05,0.27-0.09c1.14-0.33,3.7-0.48,6.89-0.49c3.04,0,6.36,0.02,8.07,0.1c1.54,0.08,3.71,0.28,5.45,1.23
					C91.9,55.47,95.4,57.9,95.57,57.75z"/>
				<linearGradient id="SVGID_23_" gradientUnits="userSpaceOnUse" x1="70.0472" y1="39.4648" x2="79.3339" y2="39.4648">
					<stop  offset="0" style="stop-color:#242323"/>
					<stop  offset="0.0505" style="stop-color:#262525"/>
					<stop  offset="0.0794" style="stop-color:#2D2C2B"/>
					<stop  offset="0.1029" style="stop-color:#383635"/>
					<stop  offset="0.1234" style="stop-color:#484545"/>
					<stop  offset="0.142" style="stop-color:#5E5B5A"/>
					<stop  offset="0.1593" style="stop-color:#7D7A7A"/>
					<stop  offset="0.1752" style="stop-color:#A8A5A5"/>
					<stop  offset="0.1793" style="stop-color:#B5B3B3"/>
					<stop  offset="0.2826" style="stop-color:#807D7D"/>
					<stop  offset="0.3976" style="stop-color:#575454"/>
					<stop  offset="0.5148" style="stop-color:#3A3838"/>
					<stop  offset="0.633" style="stop-color:#242423"/>
					<stop  offset="0.7524" style="stop-color:#131312"/>
					<stop  offset="0.8737" style="stop-color:#050505"/>
					<stop  offset="1" style="stop-color:#000000"/>
				</linearGradient>
				<path class="st23" d="M79.11,41.92c-2.07-1.92-5.2-4.14-6.67-4.44c-0.52-0.12-1.25-0.18-1.84-0.2
					c-0.45-0.03-0.42-0.55-0.55-0.65c0.01,0.09,0.04,0.89,0.32,0.91c0.37,0.03,1.52-0.13,2.54,0.35c1.39,0.68,4.92,3.29,5.46,3.86
					C79.03,42.51,79.7,42.43,79.11,41.92z"/>
				<linearGradient id="SVGID_24_" gradientUnits="userSpaceOnUse" x1="62.1126" y1="53.0087" x2="68.2249" y2="53.0087">
					<stop  offset="0" style="stop-color:#53504F"/>
					<stop  offset="0.064" style="stop-color:#555251"/>
					<stop  offset="0.1007" style="stop-color:#5C5959"/>
					<stop  offset="0.1305" style="stop-color:#696666"/>
					<stop  offset="0.1564" style="stop-color:#7D7A7A"/>
					<stop  offset="0.1793" style="stop-color:#999696"/>
					<stop  offset="0.2797" style="stop-color:#787474"/>
					<stop  offset="0.4188" style="stop-color:#565453"/>
					<stop  offset="0.5603" style="stop-color:#403E3D"/>
					<stop  offset="0.7032" style="stop-color:#312F2F"/>
					<stop  offset="0.8486" style="stop-color:#272626"/>
					<stop  offset="1" style="stop-color:#242323"/>
				</linearGradient>
				<path class="st24" d="M67.33,52.36c0.43,0,0.56,0.01,0.89,0.15c-0.21-0.36-0.44-0.52-1.11-0.51c-0.98,0.02-3.44,1.25-3.82,1.5
					c-0.58,0.32-0.82,0.33-1.18-0.06c0.16,0.4,0.44,0.64,0.7,0.55C63.06,53.91,66.02,52.36,67.33,52.36z"/>
				<linearGradient id="SVGID_25_" gradientUnits="userSpaceOnUse" x1="94.2555" y1="15.1174" x2="94.9267" y2="16.5939">
					<stop  offset="0" style="stop-color:#FFFFFF"/>
					<stop  offset="0.1154" style="stop-color:#DCDADA"/>
					<stop  offset="0.9066" style="stop-color:#373534"/>
				</linearGradient>
				<path class="st25" d="M96.05,14.79c0.45-0.07,0.84-0.17,0.88,0.2c0.02,0.18,0,0.41-0.07,0.58c-0.04,0.11-0.13,0.21-0.33,0.28
					c-0.47,0.15-3.13,1.13-3.59,1.31c-0.33,0.14-0.55-0.02-0.61-0.23c-0.07-0.21,0-0.74,0.15-0.99c0.15-0.25,0.27-0.32,0.51-0.4
					C93.23,15.48,95.37,14.9,96.05,14.79z"/>
				<path d="M95.97,15.02c0.3-0.06,0.44-0.03,0.46,0.14c0.01,0.17,0,0.27-0.01,0.34c-0.01,0.09-0.05,0.14-0.2,0.2
					c-0.3,0.11-2.25,0.8-2.72,1c-0.43,0.18-0.64,0.08-0.69-0.1c-0.04-0.18,0.03-0.47,0.11-0.6c0.07-0.13,0.19-0.22,0.35-0.27
					C93.62,15.6,95.42,15.12,95.97,15.02z"/>
				<linearGradient id="SVGID_26_" gradientUnits="userSpaceOnUse" x1="85.8527" y1="30.324" x2="110.5446" y2="30.324">
					<stop  offset="0.6868" style="stop-color:#FFFFFF"/>
					<stop  offset="0.7177" style="stop-color:#F1F0F0"/>
					<stop  offset="0.7562" style="stop-color:#D8D6D6"/>
					<stop  offset="0.7989" style="stop-color:#B5B2B2"/>
					<stop  offset="0.8446" style="stop-color:#8A8787"/>
					<stop  offset="0.8926" style="stop-color:#5C5958"/>
					<stop  offset="0.9418" style="stop-color:#2F2D2D"/>
					<stop  offset="0.9797" style="stop-color:#000000"/>
				</linearGradient>
				<path class="st26" d="M106.84,40.42c0.33-0.59,2.48-5.14,2.99-6.46c0.33-0.82,0.71-1.64,0.71-2.69c0-0.69-0.19-1.74-0.66-2.72
					c-1.19-2.5-4.94-7.25-6.44-9.04c-1.27-1.5-2.41-1.73-4.58-1.68c-5.51,0.15-10.32,2.48-13.02,3.58c1.92-0.66,6.6-2.57,11.81-2.89
					c2.86-0.17,4.01,0.07,5.06,1.25c1.52,1.68,5.07,6.44,6.33,8.86c0.5,0.96,0.72,1.82,0.65,2.55c-0.1,1.11-0.5,1.92-0.81,2.66
					c-0.55,1.26-2.58,5.38-2.93,5.98c-1.48,2.56-2.89,2.47-4.4,2.12c0.08,0.04,0.77,0.37,1.4,0.63
					C104.73,43.3,105.84,42.3,106.84,40.42z"/>
				<linearGradient id="SVGID_27_" gradientUnits="userSpaceOnUse" x1="84.2316" y1="91.449" x2="93.3856" y2="59.075">
					<stop  offset="0" style="stop-color:#D5D3D3"/>
					<stop  offset="0.0659" style="stop-color:#373534"/>
					<stop  offset="0.2502" style="stop-color:#585554"/>
					<stop  offset="0.3517" style="stop-color:#676464"/>
					<stop  offset="0.4798" style="stop-color:#7E7B7B"/>
					<stop  offset="0.6044" style="stop-color:#918E8E"/>
					<stop  offset="0.7098" style="stop-color:#757171"/>
					<stop  offset="0.8713" style="stop-color:#545151"/>
					<stop  offset="0.9586" style="stop-color:#494646"/>
					<stop  offset="1" style="stop-color:#8C8888"/>
				</linearGradient>
				<path class="st27" d="M100.19,60.35c-0.06-0.03-0.32-0.22-0.67-0.48c-0.83,0.93-4.55,5.58-7.14,9.72
					c-1.96,3.11-4.78,7.76-5.22,8.79c-0.41,0.94-0.54,1.79-0.55,2.9c0,0.01,0.16,5.03,0.16,5.06c0,0.62-0.09,1.13-0.42,1.52
					c-0.34,0.39-0.85,0.58-1.56,0.68c-1.16,0.17-6.64,1.02-8.14,1.32c-1.46,0.32-2.07,0.99-2.39,1.96c-0.24,0.7-0.51,1.88-0.51,2.4
					c0,0-0.02,0.29,0,0.29c-0.04,0.56,0.16,0.52,0.16,0.52s6.34-0.49,10.12-0.26c3.78,0.22,8.99,0.71,8.99,0.71
					s-5.48-1.03-9.21-1.26c-3.73-0.22-8.67,0.18-8.72-0.04c-0.03-0.16-0.12-0.39-0.09-0.85c0.06-0.29,0.14-0.64,0.24-0.99
					c0.24-0.93,0.68-1.75,2.12-2.08c1.38-0.35,6.71-1.23,7.72-1.48c1-0.25,1.64-0.62,1.78-1.44c0.04-0.25,0.07-0.81,0.07-1.33
					c0-1.07-0.19-3.91-0.18-4.09c0.04-1.75,0.11-2.67,1.25-4.56c1.77-2.94,8.43-13.07,11.75-16.59c0.21-0.22,0.3-0.41,0.67-0.35
					C100.33,60.4,100.26,60.38,100.19,60.35z"/>
			</g>
		</g>
		<g>
			<path class="st28" d="M20.51,118.38v14.79h4.07v-4.55h3.65c7.82,0,11.8-2.51,11.8-5.28c0-2.98-4.28-4.95-11.45-4.95H20.51z
				 M24.58,127.02v-6.99h3.2c3.31,0,7.67,0.56,7.67,3.3c0,1.86-1.42,3.69-8.2,3.69H24.58z"/>
			<path class="st28" d="M63.25,133.17v-1.86H53.21c-2.15,0-2.78-0.97-2.78-2.63v-2.16h11.78v-1.86H50.44v-4.42h12.31v-1.86H46.37
				v10.38c0,2.78,1.15,4.4,4.9,4.4H63.25z"/>
			<path class="st28" d="M89.3,118.38h-4.07v12.48c-1.12,0.39-2.62,0.74-4.81,0.74c-3.13,0-6.23-0.8-6.23-3.54v-9.68h-4.07v9.97
				c0,4.07,4.07,5.28,8.55,5.28c4.28,0,7.76-0.89,10.62-2.09V118.38z"/>
			<path class="st28" d="M100.62,125.81c0-4.1,3.49-6.02,7.73-6.02c3.48,0,6.17,1,8.71,1.86v-2.48c-2.69-0.79-5.23-1.24-8.71-1.24
				c-6.81,0-12.36,3.13-12.36,7.88c0,5.02,5.55,7.82,12.36,7.82c3.4,0,6.96-0.7,9.15-1.26v-5.86h-4.02v4.38
				c-1.48,0.5-2.54,0.89-4.84,0.89C104.02,131.78,100.62,129.48,100.62,125.81"/>
			<path class="st28" d="M141.81,133.17v-1.86h-10.04c-2.15,0-2.77-0.97-2.77-2.63v-2.16h11.78v-1.86H129v-4.42h12.31v-1.86h-16.38
				v10.38c0,2.78,1.15,4.4,4.9,4.4H141.81z"/>
			<path class="st28" d="M159.47,117.93c-6.82,0-12.39,3.19-12.39,7.96c0,5,5.57,7.74,12.39,7.74c6.82,0,12.37-2.74,12.37-7.74
				C171.84,121.12,166.29,117.93,159.47,117.93 M159.47,131.98c-4.63,0-7.76-2.39-7.76-6.09c0-4.06,3.48-6.1,7.76-6.1
				c4.25,0,7.73,2.04,7.73,6.1C167.21,129.59,164.08,131.98,159.47,131.98"/>
			<polygon class="st28" points="175.18,120.5 183.3,120.5 183.3,133.17 187.37,133.17 187.37,120.5 195.49,120.5 195.49,118.38 
				175.18,118.38 			"/>
		</g>
	</g>
</g>
</svg>
