<?xml version="1.0" encoding="utf-8"?>
<!-- Generator: Adobe Illustrator 23.0.1, SVG Export Plug-In . SVG Version: 6.00 Build 0)  -->
<svg version="1.1" id="Layer_1" xmlns="http://www.w3.org/2000/svg" xmlns:xlink="http://www.w3.org/1999/xlink" x="0px" y="0px"
	 viewBox="0 0 300 280" style="enable-background:new 0 0 300 280;" xml:space="preserve">
<style type="text/css">
	.st0{clip-path:url(#SVGID_2_);}
	.st1{fill:url(#SVGID_3_);}
	.st2{clip-path:url(#SVGID_5_);}
	.st3{clip-path:url(#SVGID_7_);}
	.st4{fill:url(#SVGID_8_);}
	.st5{clip-path:url(#SVGID_10_);}
	.st6{fill:url(#SVGID_11_);}
	.st7{clip-path:url(#SVGID_13_);}
	.st8{fill:url(#SVGID_14_);}
	.st9{clip-path:url(#SVGID_16_);}
	.st10{fill:url(#SVGID_17_);}
	.st11{clip-path:url(#SVGID_19_);}
	.st12{fill:url(#SVGID_20_);}
	.st13{clip-path:url(#SVGID_22_);}
	.st14{fill:url(#SVGID_23_);}
	.st15{clip-path:url(#SVGID_25_);}
	.st16{fill:url(#SVGID_26_);}
	.st17{clip-path:url(#SVGID_28_);}
	.st18{fill:url(#SVGID_29_);}
	.st19{clip-path:url(#SVGID_31_);}
	.st20{fill:url(#SVGID_32_);}
	.st21{clip-path:url(#SVGID_34_);}
	.st22{fill:url(#SVGID_35_);}
	.st23{clip-path:url(#SVGID_37_);}
	.st24{fill:url(#SVGID_38_);}
	.st25{clip-path:url(#SVGID_40_);}
	.st26{fill:url(#SVGID_41_);}
	.st27{clip-path:url(#SVGID_43_);}
	.st28{fill:url(#SVGID_44_);}
	.st29{clip-path:url(#SVGID_46_);}
	.st30{fill:url(#SVGID_47_);}
	.st31{clip-path:url(#SVGID_49_);}
	.st32{clip-path:url(#SVGID_51_);}
	.st33{clip-path:url(#SVGID_53_);}
	.st34{fill:url(#SVGID_54_);}
</style>
<g>
	<g>
		<defs>
			<path id="SVGID_1_" d="M144.6,137.6c-6.7-13-11.4-21.9-17.7-36.3c-0.5-1-0.9-2.1-0.9-3.3c0.1-1.1,0.4-2.2,0.9-3.2
				c6.4-14.4,11-23.3,17.7-36.3c0.4-0.8,0.7-1.2,1.1-1.2l0,0c0.5,0,0.8,0.5,1.2,1.2c6.8,13,11.3,21.9,17.7,36.3
				c0.5,1,0.9,2.1,0.9,3.3c-0.1,1.1-0.4,2.2-0.9,3.2c-6.4,14.4-11,23.4-17.7,36.3c-0.4,0.8-0.7,1.2-1.2,1.3
				C145.3,138.9,145,138.4,144.6,137.6 M127.3,17.6c-0.4,0-0.8,0.1-1.1,0.3c-0.5,0.3-0.9,0.6-1.1,1.1C123.6,21.1,108.6,46,99,63.4
				c-6.8,12.4-13.5,25.5-16.4,31.5c-1.2,1.9-1.2,4.4,0,6.3c2.9,6,9.6,19.1,16.4,31.5c9.6,17.4,24.6,42.2,26.1,44.3
				c0.2,0.3,0.4,0.6,0.7,0.8c0.3,0.3,0.6,0.6,1,0.7c0.6,0.1,1.2,0.1,1.8,0c0.4,0,0.7,0,1.1,0c3.9,0.1,9.8,0.3,16.1,0.3
				c7.8,0,16.8-0.2,18.3-0.4h0.2c0.3,0,0.7-0.1,1-0.2c0.3-0.1,0.6-0.4,1.2-1.3c1.5-2.1,16.5-26.8,26-44.1
				c6.8-12.4,13.5-25.5,16.4-31.5c0.5-1,0.8-2.2,0.9-3.4c-0.1-1-0.4-2-0.9-2.9c-2.9-6.1-9.6-19.1-16.4-31.5
				c-9.6-17.4-24.6-42.2-26.1-44.3c-0.3-0.4-0.7-0.9-1.1-1.2c-0.2-0.1-0.4-0.2-0.6-0.3c-0.6-0.1-1.2-0.1-1.8,0c-0.4,0-0.7,0-1.1,0
				c-3.2-0.1-9.6-0.3-16-0.3c-7.8,0-17.2,0.3-18.4,0.4"/>
		</defs>
		<clipPath id="SVGID_2_">
			<use xlink:href="#SVGID_1_"  style="overflow:visible;"/>
		</clipPath>
		<g class="st0">
			
				<linearGradient id="SVGID_3_" gradientUnits="userSpaceOnUse" x1="-386.3422" y1="119.4381" x2="-382.6221" y2="119.4381" gradientTransform="matrix(0 -43.28 43.28 0 -5023.5679 -16541.1602)">
				<stop  offset="0" style="stop-color:#E5E5E8"/>
				<stop  offset="0.69" style="stop-color:#FFFFFF"/>
				<stop  offset="0.99" style="stop-color:#A5A8AF"/>
				<stop  offset="1" style="stop-color:#A2A5AC"/>
			</linearGradient>
			<rect x="81.8" y="17.3" class="st1" width="127.9" height="161.5"/>
		</g>
	</g>
	<g>
		<g>
			<defs>
				<rect id="SVGID_4_" x="81.8" y="17.3" width="127.9" height="161.5"/>
			</defs>
			<clipPath id="SVGID_5_">
				<use xlink:href="#SVGID_4_"  style="overflow:visible;"/>
			</clipPath>
			<g class="st2">
				<g>
					<defs>
						<path id="SVGID_6_" d="M145.8,57.2c0.5,0,0.8,0.5,1.2,1.2c6.8,13,11.3,21.9,17.7,36.3c0.5,1,0.9,2.1,0.9,3.3
							c-0.1,1.1-0.4,2.2-0.9,3.2c-6.4,14.4-11,23.4-17.7,36.3c-0.4,0.8-0.7,1.2-1.2,1.3c-0.4,0-0.8-0.5-1.2-1.3
							c-6.8-13-11.5-21.9-17.8-36.3c-0.5-1-0.9-2.1-0.9-3.3c0.1-1.1,0.4-2.2,0.9-3.2c6.4-14.4,11-23.3,17.7-36.3
							C145,57.7,145.3,57.2,145.8,57.2L145.8,57.2z M127.3,17.6c-0.4,0-0.8,0.1-1.1,0.3c-0.5,0.3-0.9,0.6-1.1,1.1
							C123.6,21.1,108.6,46,99,63.4c-6.8,12.4-13.5,25.5-16.4,31.5c-1.2,1.9-1.2,4.4,0,6.3c2.9,6,9.6,19.1,16.4,31.5
							c9.6,17.4,24.6,42.2,26.1,44.3c0.2,0.3,0.4,0.6,0.7,0.8c0.3,0.3,0.6,0.6,1,0.7c0.6,0.1,1.2,0.1,1.8,0c0.4,0,0.7,0,1.1,0
							c3.8,0.1,9.6,0.3,15.8,0.3h0.3c7.8,0,16.8-0.2,18.3-0.4h0.2c0.3,0,0.7-0.1,1-0.2c0.3-0.1,0.6-0.4,1.2-1.3
							c1.5-2.1,16.5-26.8,26-44.1c6.8-12.4,13.5-25.5,16.4-31.5c0.5-1,0.8-2.2,0.9-3.4c-0.1-1-0.4-2-0.9-2.9
							c-2.9-6.1-9.6-19.1-16.4-31.5c-9.6-17.4-24.6-42.2-26.1-44.3c-0.3-0.4-0.7-0.9-1.1-1.2c-0.2-0.1-0.4-0.2-0.6-0.3
							c-0.6-0.1-1.2-0.1-1.8,0c-0.4,0-0.7,0-1.1,0c-3.2-0.1-9.6-0.3-16-0.3c-7.8,0-17.2,0.3-18.4,0.4"/>
					</defs>
					<clipPath id="SVGID_7_">
						<use xlink:href="#SVGID_6_"  style="overflow:visible;"/>
					</clipPath>
					<g class="st3">
						
							<radialGradient id="SVGID_8_" cx="-377.2514" cy="141.4709" r="3.7411" gradientTransform="matrix(21.58 0 0 21.66 8278.0498 -3006.0422)" gradientUnits="userSpaceOnUse">
							<stop  offset="0" style="stop-color:#FFFFFF"/>
							<stop  offset="0.4" style="stop-color:#FFFFFF"/>
							<stop  offset="0.98" style="stop-color:#A5A8AF"/>
							<stop  offset="1" style="stop-color:#A2A5AC"/>
						</radialGradient>
						<rect x="81.8" y="17.3" class="st4" width="127.9" height="161.5"/>
					</g>
				</g>
			</g>
		</g>
	</g>
	<g>
		<defs>
			<path id="SVGID_9_" d="M119.6,97.9c-1.1,0.8-2.5,1.2-3.9,1H87.2c-1.3,0-2.9,0-2.9,1.9c0.6,2.7,1.6,5.2,3.1,7.6
				c11.3,22.1,23.9,44.1,37.3,65.8c0,0,2.1,3.3,2.3,3.6c0.2,0.3,0.6,0.4,1,0.4c5.7-10.6,10.9-21.5,15.4-32.7
				c-7.7-14.2-14.7-28.2-21.4-42.2c-0.9-1.5-1.5-3.2-2-4.9c0-0.1,0-0.3,0-0.4c0-0.2,0-0.2,0-0.2S119.8,97.8,119.6,97.9"/>
		</defs>
		<clipPath id="SVGID_10_">
			<use xlink:href="#SVGID_9_"  style="overflow:visible;"/>
		</clipPath>
		<g class="st5">
			
				<linearGradient id="SVGID_11_" gradientUnits="userSpaceOnUse" x1="-399.0309" y1="116.8179" x2="-395.2898" y2="116.8179" gradientTransform="matrix(0 -21.32 21.32 0 -2376.78 -8328.6602)">
				<stop  offset="0" style="stop-color:#E5E5E8"/>
				<stop  offset="1.000000e-02" style="stop-color:#E5E5E8"/>
				<stop  offset="0.34" style="stop-color:#B1B5BB"/>
				<stop  offset="0.54" style="stop-color:#7F8288"/>
				<stop  offset="0.69" style="stop-color:#55585E"/>
				<stop  offset="0.85" style="stop-color:#3C3E42"/>
				<stop  offset="0.9" style="stop-color:#313337"/>
				<stop  offset="0.95" style="stop-color:#242529"/>
				<stop  offset="0.96" style="stop-color:#27292D"/>
				<stop  offset="0.97" style="stop-color:#323438"/>
				<stop  offset="0.98" style="stop-color:#44464B"/>
				<stop  offset="0.99" style="stop-color:#5D6065"/>
				<stop  offset="1" style="stop-color:#7D8187"/>
				<stop  offset="1" style="stop-color:#81858B"/>
			</linearGradient>
			<rect x="84.2" y="97.7" class="st6" width="59.1" height="80.5"/>
		</g>
	</g>
	<g>
		<defs>
			<path id="SVGID_12_" d="M208.1,98.2c-0.9,0.6-2,0.9-3.1,0.8h-23.5c-10.8,0-9.7-0.3-12.5,5.4c-1.2,2.5-2.5,5.5-3.8,7.9
				c-9.4,19.7-32.3,59.3-35.4,64.2c-1.2,1.8-1.3,2-0.5,2c0,0,7.8,0.3,16.4,0.3c13.5,0,18.4-0.4,18.4-0.4c7.9-12.2,26.6-43.2,39.9-70
				c3.1-6.2,4.6-8.9,4.5-10.2c0,0,0-0.1-0.1-0.1C208.3,98.1,208.2,98.1,208.1,98.2"/>
		</defs>
		<clipPath id="SVGID_13_">
			<use xlink:href="#SVGID_12_"  style="overflow:visible;"/>
		</clipPath>
		<g class="st7">
			
				<linearGradient id="SVGID_14_" gradientUnits="userSpaceOnUse" x1="-399.0243" y1="118.7247" x2="-395.2833" y2="118.7247" gradientTransform="matrix(0 -21.34 21.34 0 -2365.0576 -8335.8398)">
				<stop  offset="0" style="stop-color:#E5E5E8"/>
				<stop  offset="1.000000e-02" style="stop-color:#E5E5E8"/>
				<stop  offset="0.34" style="stop-color:#B1B5BB"/>
				<stop  offset="0.54" style="stop-color:#7F8288"/>
				<stop  offset="0.69" style="stop-color:#55585E"/>
				<stop  offset="0.85" style="stop-color:#3C3E42"/>
				<stop  offset="0.9" style="stop-color:#313337"/>
				<stop  offset="0.95" style="stop-color:#242529"/>
				<stop  offset="0.96" style="stop-color:#27292D"/>
				<stop  offset="0.97" style="stop-color:#323438"/>
				<stop  offset="0.98" style="stop-color:#44464B"/>
				<stop  offset="0.99" style="stop-color:#5D6065"/>
				<stop  offset="1" style="stop-color:#7D8187"/>
				<stop  offset="1" style="stop-color:#81858B"/>
			</linearGradient>
			<rect x="128.4" y="98" class="st8" width="80.2" height="80.7"/>
		</g>
	</g>
	<g>
		<defs>
			<path id="SVGID_15_" d="M163.4,17.9c-0.5,0-1,0.4-1.7,1.6C155,29.8,132.1,73,122.8,93.1c-0.9,1.5-1.5,3.2-1.7,4.9h4.9
				c0.1-1.1,0.4-2.2,0.9-3.2c6.4-14.4,11-23.3,17.7-36.3c0.4-0.8,0.7-1.2,1.1-1.2l1.9-5.5C154.2,35.1,163.5,17.8,163.4,17.9
				L163.4,17.9"/>
		</defs>
		<clipPath id="SVGID_16_">
			<use xlink:href="#SVGID_15_"  style="overflow:visible;"/>
		</clipPath>
		<g class="st9">
			
				<linearGradient id="SVGID_17_" gradientUnits="userSpaceOnUse" x1="-396.1096" y1="117.8579" x2="-392.3896" y2="117.8579" gradientTransform="matrix(0 -21.48 21.48 0 -2389.3318 -8409.6396)">
				<stop  offset="0" style="stop-color:#55585E"/>
				<stop  offset="1.000000e-02" style="stop-color:#494B50"/>
				<stop  offset="2.000000e-02" style="stop-color:#3F4146"/>
				<stop  offset="4.000000e-02" style="stop-color:#3C3E42"/>
				<stop  offset="0.11" style="stop-color:#3A3C3F"/>
				<stop  offset="0.16" style="stop-color:#323337"/>
				<stop  offset="0.19" style="stop-color:#242528"/>
				<stop  offset="0.23" style="stop-color:#111213"/>
				<stop  offset="0.25" style="stop-color:#000000"/>
				<stop  offset="1" style="stop-color:#000000"/>
			</linearGradient>
			<rect x="121" y="17.9" class="st10" width="42.4" height="80.1"/>
		</g>
	</g>
	<g>
		<defs>
			<path id="SVGID_18_" d="M145.8,57.2L145.8,57.2c0.5,0,0.8,0.5,1.2,1.2c6.8,13,11.3,21.9,17.7,36.3c0.5,1,0.9,2.1,0.9,3.3h4.9
				c-0.2-1.7-0.8-3.3-1.7-4.8c-6.5-13.7-13.2-27.1-21-41.6L145.8,57.2z"/>
		</defs>
		<clipPath id="SVGID_19_">
			<use xlink:href="#SVGID_18_"  style="overflow:visible;"/>
		</clipPath>
		<g class="st11">
			
				<linearGradient id="SVGID_20_" gradientUnits="userSpaceOnUse" x1="-412.1153" y1="116.3741" x2="-408.3953" y2="116.3741" gradientTransform="matrix(0 -12.43 12.43 0 -1288.4801 -5026.1001)">
				<stop  offset="0" style="stop-color:#8B8E94"/>
				<stop  offset="0.16" style="stop-color:#86898F"/>
				<stop  offset="0.35" style="stop-color:#797B81"/>
				<stop  offset="0.55" style="stop-color:#626569"/>
				<stop  offset="0.76" style="stop-color:#434549"/>
				<stop  offset="0.8" style="stop-color:#3C3E42"/>
				<stop  offset="0.83" style="stop-color:#383A3E"/>
				<stop  offset="0.86" style="stop-color:#2D2E31"/>
				<stop  offset="0.89" style="stop-color:#1A1B1D"/>
				<stop  offset="0.92" style="stop-color:#000000"/>
				<stop  offset="1" style="stop-color:#000000"/>
			</linearGradient>
			<rect x="145.7" y="51.7" class="st12" width="24.7" height="46.4"/>
		</g>
	</g>
	<g>
		<defs>
			<path id="SVGID_21_" d="M122.7,102.9c6.5,13.7,13.2,27.1,21,41.5l1.9-5.5c-0.4,0-0.8-0.5-1.2-1.3c-6.7-13-11.3-21.9-17.6-36.3
				c-0.5-1-0.9-2.1-0.9-3.3h-4.9c0.2,1.7,0.8,3.4,1.7,4.9"/>
		</defs>
		<clipPath id="SVGID_22_">
			<use xlink:href="#SVGID_21_"  style="overflow:visible;"/>
		</clipPath>
		<g class="st13">
			
				<linearGradient id="SVGID_23_" gradientUnits="userSpaceOnUse" x1="-414.9106" y1="115.0566" x2="-411.1696" y2="115.0566" gradientTransform="matrix(0 -12.44 12.44 0 -1297.9386 -5016.5503)">
				<stop  offset="0" style="stop-color:#C6C8CC"/>
				<stop  offset="0.36" style="stop-color:#C6C8CC"/>
				<stop  offset="0.49" style="stop-color:#C1C3C8"/>
				<stop  offset="0.65" style="stop-color:#B4B6BB"/>
				<stop  offset="0.81" style="stop-color:#9DA0A5"/>
				<stop  offset="0.96" style="stop-color:#81858B"/>
				<stop  offset="1" style="stop-color:#55585E"/>
			</linearGradient>
			<rect x="121" y="98" class="st14" width="24.7" height="46.4"/>
		</g>
	</g>
	<g>
		<defs>
			<path id="SVGID_24_" d="M122.7,102.9c6.5,13.7,13.2,27.1,21,41.5l1.9-5.5c-0.4,0-0.8-0.5-1.2-1.3c-6.7-13-11.3-21.9-17.6-36.3
				c-0.5-1-0.9-2.1-0.9-3.3h-4.9c0.2,1.7,0.8,3.4,1.7,4.9"/>
		</defs>
		<clipPath id="SVGID_25_">
			<use xlink:href="#SVGID_24_"  style="overflow:visible;"/>
		</clipPath>
		<g class="st15">
			<g>
				
					<linearGradient id="SVGID_26_" gradientUnits="userSpaceOnUse" x1="-386.0155" y1="82.2497" x2="-382.2954" y2="82.2497" gradientTransform="matrix(-11.3123 -5.1029 5.1029 -11.3123 -4636.4155 -910.6653)">
					<stop  offset="0" style="stop-color:#F1F2F1"/>
					<stop  offset="1.000000e-02" style="stop-color:#F1F2F1"/>
					<stop  offset="0.11" style="stop-color:#EEEDEE"/>
					<stop  offset="1" style="stop-color:#EEEDEE"/>
				</linearGradient>
				<polygon class="st16" points="103.6,136.6 125.2,88.7 163.1,105.8 141.5,153.7 				"/>
			</g>
		</g>
	</g>
	<g>
		<defs>
			<path id="SVGID_27_" d="M165.5,98c-0.1,1.1-0.4,2.2-0.9,3.2c-6.4,14.4-11,23.4-17.7,36.3c-0.4,0.8-0.7,1.2-1.2,1.3l-1.9,5.5
				c-4.7,11.5-10,22.8-15.9,33.8c0.5,0,1.2-0.6,1.9-1.8c0.2-0.3,0.5-0.7,0.8-1.3c5-8.5,29.1-53,38-72.2c0.9-1.5,1.5-3.2,1.7-4.9
				L165.5,98"/>
		</defs>
		<clipPath id="SVGID_28_">
			<use xlink:href="#SVGID_27_"  style="overflow:visible;"/>
		</clipPath>
		<g class="st17">
			
				<linearGradient id="SVGID_29_" gradientUnits="userSpaceOnUse" x1="-398.8041" y1="118.0079" x2="-395.063" y2="118.0079" gradientTransform="matrix(0 -21.48 21.48 0 -2385.6716 -8389.0693)">
				<stop  offset="0" style="stop-color:#FFFFFF"/>
				<stop  offset="0.23" style="stop-color:#F9F9FA"/>
				<stop  offset="0.55" style="stop-color:#E8E9EA"/>
				<stop  offset="0.91" style="stop-color:#CCCED1"/>
				<stop  offset="0.97" style="stop-color:#C6C8CC"/>
				<stop  offset="0.99" style="stop-color:#8B8E94"/>
				<stop  offset="1" style="stop-color:#8B8E94"/>
			</linearGradient>
			<rect x="127.9" y="98" class="st18" width="42.5" height="80.2"/>
		</g>
	</g>
	<g>
		<defs>
			<path id="SVGID_30_" d="M78.5,98c0.1,1.6,0.5,3.1,1.2,4.5c2.2,4.8,8.4,17.1,16.5,31.7c8.7,15.9,24.6,42.3,26.3,44.7
				c0.5,0.8,1.2,1.4,1.9,2l1.3-3c-0.2-0.3-0.5-0.5-0.7-0.8c-1.5-2.1-16.5-26.9-26.1-44.3c-6.8-12.4-13.5-25.5-16.4-31.5
				c-0.5-1-0.8-2-0.9-3.2L78.5,98z"/>
		</defs>
		<clipPath id="SVGID_31_">
			<use xlink:href="#SVGID_30_"  style="overflow:visible;"/>
		</clipPath>
		<g class="st19">
			
				<linearGradient id="SVGID_32_" gradientUnits="userSpaceOnUse" x1="-398.1194" y1="116.595" x2="-394.3994" y2="116.595" gradientTransform="matrix(0 -22.2 22.2 0 -2486.2229 -8657.0303)">
				<stop  offset="0" style="stop-color:#81858B"/>
				<stop  offset="0.12" style="stop-color:#7D8086"/>
				<stop  offset="0.56" style="stop-color:#707379"/>
				<stop  offset="0.97" style="stop-color:#6C6F75"/>
				<stop  offset="0.99" style="stop-color:#8E9197"/>
				<stop  offset="1" style="stop-color:#9EA2A8"/>
			</linearGradient>
			<rect x="78.6" y="98" class="st20" width="47.2" height="82.8"/>
		</g>
	</g>
	<g>
		<defs>
			<path id="SVGID_33_" d="M124.5,180.8c0.8,0.4,1.7,0.7,2.6,0.7c2.4,0.2,12.6,0.4,18.6,0.4s17.1-0.3,18.6-0.4
				c0.7,0,1.4-0.2,2.1-0.4l-1.3-2.9c-0.3,0.1-0.6,0.2-1,0.2H164c-1.4,0.2-10.5,0.4-18.3,0.4c-6.3,0-12.2-0.1-16.1-0.3
				c-0.4,0-0.7,0-1.1,0c-0.6,0.1-1.2,0.1-1.8,0c-0.4-0.1-0.7-0.4-1-0.7L124.5,180.8z"/>
		</defs>
		<clipPath id="SVGID_34_">
			<use xlink:href="#SVGID_33_"  style="overflow:visible;"/>
		</clipPath>
		<g class="st21">
			
				<linearGradient id="SVGID_35_" gradientUnits="userSpaceOnUse" x1="-353.994" y1="170.8562" x2="-350.2529" y2="170.8562" gradientTransform="matrix(8.5869 4.935 -4.935 8.5869 4014.5469 449.8054)">
				<stop  offset="0" style="stop-color:#81858B"/>
				<stop  offset="2.000000e-02" style="stop-color:#81858B"/>
				<stop  offset="4.000000e-02" style="stop-color:#6E7277"/>
				<stop  offset="6.000000e-02" style="stop-color:#595C61"/>
				<stop  offset="8.000000e-02" style="stop-color:#4C4F54"/>
				<stop  offset="0.1" style="stop-color:#484A4F"/>
				<stop  offset="1" style="stop-color:#484A4F"/>
			</linearGradient>
			<polygon class="st22" points="124.1,179.8 136.3,158.5 169.7,177.6 157.4,199 			"/>
		</g>
	</g>
	<g>
		<defs>
			<path id="SVGID_36_" d="M165.2,17.8c0.4,0.3,0.8,0.7,1.1,1.2c1.6,2.1,16.5,26.9,26.1,44.3c6.8,12.4,13.5,25.5,16.4,31.5
				c0.5,0.9,0.8,1.9,0.9,2.9l3.2,0.2l0,0c0-1.6-0.5-3.1-1.2-4.5c-2.4-5-10-20-16.4-31.7c-8.6-15.6-24.5-42.2-26.3-44.7
				c-0.6-0.9-1.4-1.7-2.4-2.2L165.2,17.8z"/>
		</defs>
		<clipPath id="SVGID_37_">
			<use xlink:href="#SVGID_36_"  style="overflow:visible;"/>
		</clipPath>
		<g class="st23">
			
				<linearGradient id="SVGID_38_" gradientUnits="userSpaceOnUse" x1="-366.7436" y1="139.5854" x2="-363.0236" y2="139.5854" gradientTransform="matrix(18.9464 10.3728 -10.3728 18.9464 8551.7334 1197.5786)">
				<stop  offset="0" style="stop-color:#787A80"/>
				<stop  offset="1" style="stop-color:#8B8E94"/>
			</linearGradient>
			<polygon class="st24" points="130.2,78.9 176.2,-5.1 247.8,34.1 201.9,118.1 			"/>
		</g>
	</g>
	<g>
		<defs>
			<path id="SVGID_39_" d="M126.9,14.5c-0.7,0-1.3,0.2-2,0.4l1.3,3c0.3-0.2,0.7-0.3,1.1-0.3c1.2,0,10.5-0.4,18.4-0.4
				c6.3,0,12.8,0.1,16,0.3c0.4,0,0.7,0,1.1,0c0.6-0.1,1.2-0.1,1.8,0c0.2,0.1,0.4,0.2,0.6,0.3l1.2-2.9c-0.7-0.3-1.4-0.4-2.1-0.4
				c-2.5-0.2-13-0.4-18.5-0.4C140.9,14.2,129.6,14.3,126.9,14.5"/>
		</defs>
		<clipPath id="SVGID_40_">
			<use xlink:href="#SVGID_39_"  style="overflow:visible;"/>
		</clipPath>
		<g class="st25">
			
				<linearGradient id="SVGID_41_" gradientUnits="userSpaceOnUse" x1="-380.3575" y1="82.0075" x2="-376.6374" y2="82.0075" gradientTransform="matrix(-10.2663 -2.9438 2.9438 -10.2663 -3980.7231 -256.084)">
				<stop  offset="0" style="stop-color:#787A80"/>
				<stop  offset="1.000000e-02" style="stop-color:#787A80"/>
				<stop  offset="2.000000e-02" style="stop-color:#85888E"/>
				<stop  offset="4.000000e-02" style="stop-color:#9DA1A7"/>
				<stop  offset="6.000000e-02" style="stop-color:#ACB0B6"/>
				<stop  offset="7.000000e-02" style="stop-color:#B1B5BB"/>
				<stop  offset="0.5" style="stop-color:#C4C8CB"/>
				<stop  offset="1" style="stop-color:#C6C8CC"/>
			</linearGradient>
			<polygon class="st26" points="123.9,17.6 128.1,3.1 167.4,14.4 163.3,28.9 			"/>
		</g>
	</g>
	<g>
		<defs>
			<path id="SVGID_42_" d="M122.5,17.3c-1.8,2.4-17.7,29.2-26.2,44.5c-6,10.8-15.6,29.6-16.5,31.7c-0.7,1.4-1.1,2.9-1.2,4.5h3.2
				c0.1-1.1,0.4-2.2,0.9-3.2c2.9-6.1,9.6-19.1,16.4-31.5c9.6-17.4,24.6-42.2,26.1-44.3c0.3-0.5,0.7-0.8,1.1-1.1l-1.3-3
				C123.9,15.5,123.1,16.3,122.5,17.3"/>
		</defs>
		<clipPath id="SVGID_43_">
			<use xlink:href="#SVGID_42_"  style="overflow:visible;"/>
		</clipPath>
		<g class="st27">
			
				<linearGradient id="SVGID_44_" gradientUnits="userSpaceOnUse" x1="-388.0948" y1="140.393" x2="-384.3747" y2="140.393" gradientTransform="matrix(18.3075 -7.0276 7.0276 18.3075 6184.5215 -5227.2202)">
				<stop  offset="0" style="stop-color:#9EA2A8"/>
				<stop  offset="0.99" style="stop-color:#8B8E94"/>
				<stop  offset="1" style="stop-color:#C6C8CC"/>
			</linearGradient>
			<polygon class="st28" points="50.8,25.6 120.1,-1 154,87.3 84.7,113.9 			"/>
		</g>
	</g>
	<g>
		<defs>
			<path id="SVGID_45_" d="M165.2,178.2L165.2,178.2 M208.8,101.2c-2.9,6-9.6,19.1-16.4,31.5c-9.6,17.4-24.5,42-26,44.1
				c-0.7,0.9-0.9,1.1-1.2,1.3l1.3,2.9c1-0.5,1.9-1.3,2.5-2.2c1.7-2.4,18.8-30.9,26.3-44.7c7.6-13.8,15.6-29.7,16.4-31.7
				c0.7-1.4,1.1-2.9,1.2-4.5l-3.2-0.2C209.7,98.9,209.4,100.1,208.8,101.2"/>
		</defs>
		<clipPath id="SVGID_46_">
			<use xlink:href="#SVGID_45_"  style="overflow:visible;"/>
		</clipPath>
		<g class="st29">
			
				<linearGradient id="SVGID_47_" gradientUnits="userSpaceOnUse" x1="-397.9871" y1="119.4215" x2="-394.246" y2="119.4215" gradientTransform="matrix(0 -22.32 22.32 0 -2476.4998 -8702.3398)">
				<stop  offset="0" style="stop-color:#484A4F"/>
				<stop  offset="2.000000e-02" style="stop-color:#484A4F"/>
				<stop  offset="0.24" style="stop-color:#52555A"/>
				<stop  offset="0.6" style="stop-color:#5D6165"/>
				<stop  offset="0.97" style="stop-color:#616569"/>
				<stop  offset="0.99" style="stop-color:#7A7D82"/>
				<stop  offset="1" style="stop-color:#8B8E94"/>
			</linearGradient>
			<rect x="165.2" y="97.8" class="st30" width="47.7" height="83.3"/>
		</g>
	</g>
	<g>
		<defs>
			<path id="SVGID_48_" d="M146.2,59c0.6,1.1,5.3,10.2,9.6,18.9c4,8.3,7.6,16.3,8,17.1c0.5,0.9,0.8,1.9,0.8,2.9
				c-0.1,1-0.3,2-0.8,2.8l0,0c0,0-3.7,8.4-8,17.2c-3.8,7.8-8,15.8-9.6,18.9v0.1c-0.2,0.3-0.3,0.5-0.4,0.5s-0.2-0.2-0.4-0.5l-0.2-0.5
				c-4.5-8.6-7.6-14.9-9.5-18.6c-4.2-8.4-7.7-16.6-8-17.2l0,0c-0.5-0.9-0.8-1.8-0.9-2.8c0.1-1,0.4-2,0.8-2.9
				c0.1-0.2,0.1-0.3,0.2-0.5c2.6-5.9,5.2-11.5,7.8-16.7c3.7-7.5,7.9-15.6,9.3-18.2c-21.5,13.9-27.7,42.6-13.8,64.1
				c8.5,13.2,23.1,21.1,38.8,21.2c7.9,0,15.7-2,22.6-5.9c1-1.8,1.9-3.4,2.7-4.9c7.4-13.4,15.5-29.6,16.5-31.7c1.6-2.8,1.6-6.2,0-9
				c-2.4-5.1-10-20-16.5-31.7c-0.5-0.9-1-1.8-1.6-2.8C179.1,50.1,160.8,50.1,146.2,59"/>
		</defs>
		<clipPath id="SVGID_49_">
			<use xlink:href="#SVGID_48_"  style="overflow:visible;"/>
		</clipPath>
		<g class="st31">
			<g>
				<g>
					<defs>
						<rect id="SVGID_50_" x="123.9" y="52.4" width="92.6" height="92.6"/>
					</defs>
					<clipPath id="SVGID_51_">
						<use xlink:href="#SVGID_50_"  style="overflow:visible;"/>
					</clipPath>
					<g class="st32">
						<g>
							<defs>
								<path id="SVGID_52_" d="M123.9,98.7c0,25.5,20.7,46.2,46.2,46.2s46.2-20.7,46.2-46.2s-20.7-46.2-46.2-46.2
									S123.9,73.2,123.9,98.7"/>
							</defs>
							<clipPath id="SVGID_53_">
								<use xlink:href="#SVGID_52_"  style="overflow:visible;"/>
							</clipPath>
							<g class="st33">
								<g>
									
										<radialGradient id="SVGID_54_" cx="-377.7806" cy="159.0252" r="3.7411" gradientTransform="matrix(12.42 0 0 12.42 4860.48 -1879.4512)" gradientUnits="userSpaceOnUse">
										<stop  offset="0" style="stop-color:#FFFFFF"/>
										<stop  offset="0.59" style="stop-color:#FFFFFF"/>
										<stop  offset="1" style="stop-color:#FFFFFF"/>
									</radialGradient>
									<rect x="123.9" y="52.4" class="st34" width="92.6" height="92.6"/>
								</g>
							</g>
						</g>
					</g>
				</g>
			</g>
		</g>
	</g>
	<path d="M164.6,94.7c-0.3-0.6-3.9-8.7-8-17.2c-4.5-9.2-9.5-18.8-9.7-19.1c-0.4-0.8-0.7-1.2-1.2-1.2s-0.7,0.4-1.1,1.2
		c-0.2,0.4-5.4,10.3-9.8,19.1s-7.8,16.7-8,17.2c-0.5,1-0.8,2.1-0.9,3.2c0.1,1.2,0.4,2.3,0.9,3.3c0.3,0.6,3.9,8.8,8,17.2
		c4.5,9.2,9.5,18.7,9.7,19.1c0.4,0.8,0.7,1.3,1.2,1.3s0.8-0.5,1.2-1.3c0.2-0.4,5.2-9.9,9.7-19.1c4.2-8.4,7.8-16.6,8-17.2
		c0.5-1,0.9-2.1,0.9-3.2C165.5,96.9,165.1,95.8,164.6,94.7 M163.8,100.9L163.8,100.9c0,0-3.7,8.4-8,17.2c-3.8,7.8-8,15.8-9.6,18.9
		v0.1c-0.2,0.3-0.3,0.5-0.4,0.5s-0.2-0.2-0.4-0.5l-0.2-0.5c-4.5-8.6-7.6-14.9-9.5-18.6c-4.2-8.4-7.7-16.6-8-17.2l0,0
		c-0.5-0.9-0.8-1.9-0.9-2.9c0.1-1,0.4-2,0.8-2.9c0.1-0.2,0.1-0.3,0.2-0.5c2.6-5.9,5.2-11.5,7.8-16.7c4.5-9.1,9.7-19,9.7-19.1
		c0-0.1,0.3-0.5,0.4-0.5c0.1,0,0.2,0.3,0.4,0.5c0.1,0.3,5.1,9.7,9.7,19.1c4,8.3,7.6,16.3,8,17.1C164.9,96.8,164.9,99,163.8,100.9"/>
	<path d="M211.7,93.5c-2.4-5.1-10-20-16.5-31.7c-8.8-16-24.5-42.3-26.3-44.7c-0.9-1.6-2.5-2.6-4.4-2.6h-0.3
		c-2.4-0.3-12.5-0.4-18.5-0.4c-5.2,0-16.2,0.1-18.8,0.4c-1.9,0.1-3.6,1.1-4.5,2.8c-1.9,2.5-17.9,29.5-26.2,44.6
		c-6,10.9-15.6,29.7-16.5,31.7c-0.7,1.4-1.1,2.9-1.2,4.5c0.1,1.6,0.4,3.1,1.2,4.5c2.1,4.3,8,16.4,16.5,31.7
		c8.8,16,24.7,42.4,26.3,44.7c0.9,1.7,2.7,2.7,4.6,2.7c2.4,0.2,13,0.4,18.6,0.4c6.1,0,17.1-0.3,18.6-0.4c1.9,0,3.6-1,4.5-2.7
		c1.6-2.2,18.7-30.7,26.3-44.7c7.4-13.4,15.5-29.6,16.5-31.7c0.7-1.4,1.1-2.9,1.2-4.5C212.8,96.5,212.4,94.9,211.7,93.5
		 M210.8,102.2c-0.9,2.1-9.1,18.2-16.4,31.5c-7.7,14-24.7,42.4-26.3,44.6c-0.7,1.5-2.3,2.3-3.9,2.3c-1.5,0.1-12.5,0.4-18.5,0.4
		c-5.6,0-16.1-0.2-18.5-0.4c-1.6,0-3.1-0.9-3.9-2.3c-1.7-2.3-17.5-28.6-26.3-44.6c-8.4-15.3-14.4-27.3-16.4-31.5
		c-0.7-1.3-1-2.7-1.1-4.2c0.1-1.5,0.4-2.9,1.1-4.2C81.5,91.7,91.1,73,97,62.2c8.4-15,24.3-42,26.1-44.4c1.3-1.7,1.8-2.2,3.8-2.4
		c2.5-0.3,13.5-0.4,18.7-0.4c6.1,0,16.1,0.1,18.4,0.4h0.3c1.5,0.2,2.2,0.3,3.7,2.3c1.8,2.4,17.5,28.6,26.3,44.6
		c6.4,11.6,14,26.5,16.4,31.5c1.5,2.6,1.5,5.7,0,8.3"/>
	<polygon points="300,228.3 300,235.2 285.8,235.2 285.8,265.2 276.2,265.2 276.2,235.2 261.9,235.2 261.9,228.3 	"/>
	<polygon points="266,258.4 266,265.2 235.5,265.2 235.5,228.3 245.1,228.3 245.1,258.4 	"/>
	<polygon points="81.3,258.4 81.3,265.2 49.2,265.2 49.2,228.3 80.6,228.3 80.6,235.2 58.8,235.2 58.8,243.3 78.8,243.3 78.8,249.9 
		58.8,249.9 58.8,258.4 	"/>
	<path d="M32,251.5c4.1-2.3,6.6-6.6,6.6-11.2c0.3-3.3-1-6.5-3.5-8.8c-2.7-2.3-6.5-3.2-12.8-3.2h-22L0,230.6l0.9,1.5
		c0.5,0.7,0.7,1.5,0.6,2.3v30.9h9.6v-11.8H23l6.3,11.8h10.5L32,251.5z M27.2,245.5c-0.8,0.8-1.9,1.1-3,1.1H11.1v-11.2h10.3
		c2-0.3,4.1,0.2,5.8,1.2c1.2,1.1,1.8,2.6,1.6,4.2C29,242.6,28.4,244.3,27.2,245.5L27.2,245.5z"/>
	<path d="M121.4,228.3v24.5c-2.2-2.8-4.6-5.5-8.6-9.9c-3.2-3.6-10-10.8-13.5-14.6h-9.2l-0.4,2.2c0,0,0.4,0.7,0.8,1.5
		c0.4,0.5,0.6,1.1,0.7,1.8v31.5h8.6v-24.5c1.7,2.3,4.8,5.8,6.8,8c4.1,4.4,10.2,11.3,15,16.4h8.3v-37H121.4z"/>
	<path d="M215.4,228.3v22.6c0.2,1.9-0.4,3.8-1.7,5.2c-2.3,1.6-5,2.4-7.8,2.1c-2.8,0.3-5.6-0.5-7.9-2.1c-1.3-1.4-1.9-3.3-1.7-5.2
		v-22.6h-10.7l-0.4,2.2c0,0,0.4,0.7,0.8,1.5c0.4,0.5,0.6,1.1,0.6,1.7v17.6c0,9.6,6.5,14.5,19.1,14.5h0.3c12.6,0,18.9-4.8,18.9-14.5
		v-23H215.4z"/>
	<path d="M165.2,228.3h-12c-3.6,7.5-10,21.4-15.9,36.9h9.6c0.8-2.1,1.6-4.2,2.4-6.3h19.7c0.8,2.1,1.6,4.2,2.4,6.3h9.6
		C175.2,249.7,168.9,235.8,165.2,228.3z M152.1,251.9c2.5-6.3,5-12.2,7.1-16.8c2.1,4.6,4.6,10.5,7.1,16.8H152.1z"/>
</g>
</svg>
