<?xml version="1.0" encoding="utf-8"?>
<!-- Generator: Adobe Illustrator 23.0.1, SVG Export Plug-In . SVG Version: 6.00 Build 0)  -->
<svg version="1.1" id="Layer_1" xmlns="http://www.w3.org/2000/svg" xmlns:xlink="http://www.w3.org/1999/xlink" x="0px" y="0px"
	 viewBox="0 0 1000 1000" style="enable-background:new 0 0 1000 1000;" xml:space="preserve">
<style type="text/css">
	.st0{fill:#E72629;}
	.st1{fill:#010101;}
	.st2{fill:#D1D3D4;}
</style>
<g>
	<path class="st0" d="M730.1,868.8v51.1h16.4v-34h59.6v34h16.4v-51L730.1,868.8 M744.7,852.3h63c8.7-1.7,15.3-9.5,17.1-16.9h-97.1
		C729.4,842.9,736,850.6,744.7,852.3 M680.5,919.9c8.3-3.5,12.7-9.6,14.4-16.6h-73.4l0-67.9l-16.5,0v84.5L680.5,919.9 M482.6,852.1
		h58.2c8.8-2.5,16.1-9.2,17.9-16.6h-92.4v49.9h75.6v17.5l-59.3,0c-9.3,2.6-17.2,8.8-21.1,17.1l4.8-0.1h91.9v-51.1h-75.6L482.6,852.1
		 M339,852.2H402c8.8-1.7,15.3-9.5,17.1-16.9H322C323.8,842.8,330.4,850.5,339,852.2 M339,885.6H402c8.8-1.7,15.3-9.4,17.1-16.9H322
		C323.8,876.2,330.4,883.9,339,885.6 M339,919.9H402c8.8-1.7,15.3-9.5,17.1-16.9H322C323.8,910.5,330.4,918.2,339,919.9
		 M175.3,835.5c1.9,7.4,8.3,14.9,17,16.8h26.5l1.4,0.5v66.9h16.5v-66.9l1.5-0.5h26.5c8.9-2.3,15.1-9.4,17-16.8v-0.2H175.3V835.5"/>
	<g>
		<path class="st0" d="M500,668.5l82.7-465c78.8,0,103.7,8.6,107.2,43.9c0,0,52.9-19.7,79.5-59.7c-104-48.2-208.6-50.4-208.6-50.4
			l-61,74.3l0.1,0l-61-74.3c0,0-104.5,2.2-208.6,50.4c26.6,40,79.5,59.7,79.5,59.7c3.6-35.3,28.4-43.9,106.7-44L500,668.5"/>
		<path class="st0" d="M500,115.8c84.1-0.6,180.4,13,278.9,56c13.2-23.7,16.6-34.2,16.6-34.2C687.8,95,586.9,80.4,500,80
			c-86.9,0.4-187.8,15-295.5,57.6c0,0,4.8,12.9,16.5,34.2C319.6,128.8,415.9,115.2,500,115.8L500,115.8"/>
	</g>
</g>
</svg>
