<?xml version="1.0" encoding="utf-8"?>
<!-- Generator: Adobe Illustrator 24.2.0, SVG Export Plug-In . SVG Version: 6.00 Build 0)  -->
<svg version="1.1" id="Layer_1" xmlns="http://www.w3.org/2000/svg" xmlns:xlink="http://www.w3.org/1999/xlink" x="0px" y="0px"
	 viewBox="0 0 1000 1000" style="enable-background:new 0 0 1000 1000;" xml:space="preserve">
<style type="text/css">
	.st0{fill-rule:evenodd;clip-rule:evenodd;fill:#BDBDB7;}
	.st1{fill-rule:evenodd;clip-rule:evenodd;fill:url(#SVGID_1_);}
	.st2{fill-rule:evenodd;clip-rule:evenodd;fill:url(#SVGID_2_);}
	.st3{fill-rule:evenodd;clip-rule:evenodd;fill:url(#SVGID_3_);}
	.st4{fill-rule:evenodd;clip-rule:evenodd;fill:url(#SVGID_4_);}
	.st5{opacity:0.67;fill-rule:evenodd;clip-rule:evenodd;fill:url(#SVGID_5_);}
	.st6{opacity:0.67;fill-rule:evenodd;clip-rule:evenodd;fill:url(#SVGID_6_);}
	.st7{opacity:0.67;fill-rule:evenodd;clip-rule:evenodd;fill:url(#SVGID_7_);}
	.st8{opacity:0.67;fill-rule:evenodd;clip-rule:evenodd;fill:url(#SVGID_8_);}
	.st9{opacity:0.67;fill-rule:evenodd;clip-rule:evenodd;fill:url(#SVGID_9_);}
	.st10{opacity:0.67;fill-rule:evenodd;clip-rule:evenodd;fill:url(#SVGID_10_);}
	.st11{opacity:0.67;fill-rule:evenodd;clip-rule:evenodd;fill:url(#SVGID_11_);}
	.st12{opacity:0.86;fill-rule:evenodd;clip-rule:evenodd;fill:url(#SVGID_12_);}
	.st13{fill-rule:evenodd;clip-rule:evenodd;}
	.st14{fill-rule:evenodd;clip-rule:evenodd;fill:url(#SVGID_13_);}
	.st15{fill-rule:evenodd;clip-rule:evenodd;fill:url(#SVGID_14_);}
	.st16{fill-rule:evenodd;clip-rule:evenodd;fill:url(#SVGID_15_);}
	.st17{fill-rule:evenodd;clip-rule:evenodd;fill:none;stroke:#A8A89D;stroke-width:0.3402;stroke-linecap:round;}
	.st18{fill-rule:evenodd;clip-rule:evenodd;fill:none;stroke:#C3C3BA;stroke-width:0.2361;stroke-linecap:round;}
	.st19{fill-rule:evenodd;clip-rule:evenodd;fill:none;stroke:#E1E0D9;stroke-width:0.1324;stroke-linecap:round;}
	.st20{fill-rule:evenodd;clip-rule:evenodd;fill:none;stroke:#FFFFFF;stroke-width:2.830000e-02;stroke-linecap:round;}
	.st21{fill-rule:evenodd;clip-rule:evenodd;fill:url(#SVGID_16_);}
	.st22{fill-rule:evenodd;clip-rule:evenodd;fill:url(#SVGID_17_);}
	.st23{fill-rule:evenodd;clip-rule:evenodd;fill:#FFFFFF;}
	.st24{fill:#363639;}
	.st25{fill:url(#SVGID_18_);}
</style>
<g>
	<path class="st0" d="M500,250.5L500,250.5L500,250.5c69.5,0,131.2,28.3,176.2,73.3c46.3,45,73.3,108,73.3,177.5l0,0l0,0l0,0l0,0
		c0,68.2-27,131.2-73.3,176.2c-45,45-106.8,73.3-176.2,73.3l0,0l0,0l0,0l0,0c-69.5,0-131.2-28.3-177.5-73.3
		c-45-45-73.3-108-73.3-176.2l0,0l0,0l0,0l0,0c0-69.5,28.3-132.5,73.3-177.5C368.8,278.8,430.5,250.5,500,250.5L500,250.5L500,250.5
		L500,250.5z M500,254.3L500,254.3L500,254.3L500,254.3L500,254.3c-68.2,0-129.9,28.3-173.7,72c-45,45-73.3,106.8-73.3,174.9l0,0
		l0,0l0,0l0,0c0,68.2,28.3,129.9,73.3,173.6c43.7,45,105.5,72,173.7,72l0,0l0,0l0,0l0,0c68.2,0,129.9-27,173.6-72
		c45-43.7,72-105.5,72-173.6l0,0l0,0l0,0l0,0c0-68.2-27-129.9-72-174.9C629.9,282.6,568.2,254.3,500,254.3z"/>
	<radialGradient id="SVGID_1_" cx="226.8428" cy="424.6418" r="797.9751" gradientUnits="userSpaceOnUse">
		<stop  offset="0" style="stop-color:#FFFFFF"/>
		<stop  offset="4.095316e-02" style="stop-color:#FAFAF8"/>
		<stop  offset="0.2247" style="stop-color:#F8F8F5"/>
		<stop  offset="0.2867" style="stop-color:#DBDBD8"/>
		<stop  offset="0.4133" style="stop-color:#A4A5A2"/>
		<stop  offset="0.5197" style="stop-color:#7F807D"/>
		<stop  offset="0.6004" style="stop-color:#686966"/>
		<stop  offset="0.6461" style="stop-color:#5F5F5D"/>
		<stop  offset="0.7394" style="stop-color:#565653"/>
		<stop  offset="0.8995" style="stop-color:#393834"/>
		<stop  offset="1" style="stop-color:#000000"/>
	</radialGradient>
	<path class="st1" d="M500,118c87.5,0,168.5,29.6,232.8,78.5l42.5-42.4l74.6,74.6l-42.4,43.7C855,336.6,882,415.1,882,500
		c0,211-171.1,383.3-382,383.3C289,883.3,118,711,118,500C118,289,289,118,500,118L500,118z M500,208c-160.8,0-292,131.2-292,292
		c0,162.1,131.2,292,292,292c160.8,0,292-129.9,292-292C792,339.2,660.8,208,500,208z"/>
	<linearGradient id="SVGID_2_" gradientUnits="userSpaceOnUse" x1="349.2167" y1="449.236" x2="635.3152" y2="547.7477">
		<stop  offset="0" style="stop-color:#DDDCD4"/>
		<stop  offset="1" style="stop-color:#FFFFFF"/>
	</linearGradient>
	<path class="st2" d="M500,206.7L500,206.7L500,206.7c81,0,154.4,32.2,208.4,86.2c52.7,52.7,86.2,126.1,86.2,208.4l0,0l0,0l0,0l0,0
		c0,81-33.4,154.4-86.2,208.4c-54,52.7-127.3,86.2-208.4,86.2l0,0l0,0l0,0l0,0c-81,0-155.6-33.4-208.4-86.2
		c-52.7-54-86.2-127.3-86.2-208.4l0,0l0,0l0,0l0,0c0-82.3,33.4-155.6,86.2-208.4l0,0C344.4,238.9,419,206.7,500,206.7L500,206.7
		L500,206.7L500,206.7z M500,210.6L500,210.6L500,210.6L500,210.6L500,210.6c-79.7,0-153.1,32.2-205.8,84.9l0,0
		c-52.7,52.7-84.9,124.8-84.9,205.8l0,0l0,0l0,0l0,0c0,79.7,32.2,153.1,84.9,205.8C346.9,758.6,420.3,792,500,792l0,0l0,0l0,0l0,0
		c79.8,0,153.1-33.4,205.8-84.9c52.7-52.7,84.9-126.1,84.9-205.8l0,0l0,0l0,0l0,0c0-81-32.2-153.1-84.9-205.8
		C653.1,242.7,579.8,210.6,500,210.6z"/>
	<radialGradient id="SVGID_3_" cx="727.0746" cy="746.2281" r="875.7395" gradientUnits="userSpaceOnUse">
		<stop  offset="0" style="stop-color:#BDBDB8"/>
		<stop  offset="1" style="stop-color:#818179"/>
	</radialGradient>
	<path class="st3" d="M500,115.4L500,115.4L500,115.4c87.5,0,169.8,29.6,234.1,79.7l-1.3,1.3C668.5,147.5,587.5,118,500,118
		C289,118,118,289,118,500c0,211,171.1,383.3,382,383.3c211,0,382-172.4,382-383.3c0-84.9-27-163.4-74.6-227.7l1.3-1.3
		c47.6,64.3,75.9,142.8,75.9,229l0,0l0,0l0,0l0,0c0,106.8-43.7,203.2-113.2,272.7C702,842.2,606.8,884.6,500,884.6l0,0l0,0l0,0l0,0
		c-105.5,0-202-42.4-271.4-111.9C159.1,702,115.4,606.8,115.4,500l0,0l0,0l0,0l0,0c0-105.5,43.7-201.9,113.2-271.4
		C298,159.1,393.2,115.4,500,115.4L500,115.4L500,115.4z"/>
	<radialGradient id="SVGID_4_" cx="637.7634" cy="639.0461" r="614.9836" gradientUnits="userSpaceOnUse">
		<stop  offset="0" style="stop-color:#FFFFFF"/>
		<stop  offset="0.1572" style="stop-color:#F1F2F2"/>
		<stop  offset="0.2978" style="stop-color:#E4E5E6"/>
		<stop  offset="0.335" style="stop-color:#CFD0CF"/>
		<stop  offset="0.3996" style="stop-color:#AFB0AE"/>
		<stop  offset="0.4637" style="stop-color:#979895"/>
		<stop  offset="0.526" style="stop-color:#868784"/>
		<stop  offset="0.5858" style="stop-color:#7C7D7A"/>
		<stop  offset="0.6404" style="stop-color:#797A77"/>
		<stop  offset="0.7377" style="stop-color:#5E5E5A"/>
		<stop  offset="0.8456" style="stop-color:#41403C"/>
		<stop  offset="0.9369" style="stop-color:#191917"/>
		<stop  offset="1" style="stop-color:#000000"/>
	</radialGradient>
	<path class="st4" d="M500,209.3c160.8,0,292,129.9,292,292c0,160.8-131.2,292-292,292c-160.8,0-292-131.2-292-292
		C208,339.2,339.2,209.3,500,209.3L500,209.3z M500,250.5c-137.6,0-249.6,111.9-249.6,250.8c0,137.6,111.9,249.5,249.6,249.5
		s249.5-111.9,249.5-249.5C749.5,362.4,637.6,250.5,500,250.5z"/>
	<g>
		<linearGradient id="SVGID_5_" gradientUnits="userSpaceOnUse" x1="152.3528" y1="594.332" x2="152.3528" y2="592.1696">
			<stop  offset="0" style="stop-color:#FFFFFF"/>
			<stop  offset="0.17" style="stop-color:#F8F8F5"/>
			<stop  offset="0.427" style="stop-color:#B2B3AD"/>
			<stop  offset="0.4352" style="stop-color:#AFAFAA"/>
			<stop  offset="0.5344" style="stop-color:#8A8B85"/>
			<stop  offset="0.6334" style="stop-color:#6C6C67"/>
			<stop  offset="0.7305" style="stop-color:#52524D"/>
			<stop  offset="0.8252" style="stop-color:#3C3B37"/>
			<stop  offset="0.9163" style="stop-color:#21201D"/>
			<stop  offset="1" style="stop-color:#141412"/>
		</linearGradient>
		<path class="st5" d="M150.9,592.7c0,0.4,0.1,0.7,0.3,1c0.2,0.3,0.4,0.5,0.8,0.5c0.3,0,0.6-0.1,0.8-0.2c0.3-0.1,0.6-0.4,0.9-0.6
			v-2.8c-1.1,0.2-1.8,0.4-2.2,0.8C151.1,591.7,150.9,592.1,150.9,592.7z"/>
		<linearGradient id="SVGID_6_" gradientUnits="userSpaceOnUse" x1="206.299" y1="586.1677" x2="206.299" y2="585.2811">
			<stop  offset="0" style="stop-color:#FFFFFF"/>
			<stop  offset="0.17" style="stop-color:#F8F8F5"/>
			<stop  offset="0.427" style="stop-color:#B2B3AD"/>
			<stop  offset="0.4352" style="stop-color:#AFAFAA"/>
			<stop  offset="0.5344" style="stop-color:#8A8B85"/>
			<stop  offset="0.6334" style="stop-color:#6C6C67"/>
			<stop  offset="0.7305" style="stop-color:#52524D"/>
			<stop  offset="0.8252" style="stop-color:#3C3B37"/>
			<stop  offset="0.9163" style="stop-color:#21201D"/>
			<stop  offset="1" style="stop-color:#141412"/>
		</linearGradient>
		<rect x="205.4" y="584.6" class="st6" width="1.8" height="1.5"/>
		<linearGradient id="SVGID_7_" gradientUnits="userSpaceOnUse" x1="206.299" y1="588.0293" x2="206.299" y2="587.1127">
			<stop  offset="0" style="stop-color:#FFFFFF"/>
			<stop  offset="0.17" style="stop-color:#F8F8F5"/>
			<stop  offset="0.427" style="stop-color:#B2B3AD"/>
			<stop  offset="0.4352" style="stop-color:#AFAFAA"/>
			<stop  offset="0.5344" style="stop-color:#8A8B85"/>
			<stop  offset="0.6334" style="stop-color:#6C6C67"/>
			<stop  offset="0.7305" style="stop-color:#52524D"/>
			<stop  offset="0.8252" style="stop-color:#3C3B37"/>
			<stop  offset="0.9163" style="stop-color:#21201D"/>
			<stop  offset="1" style="stop-color:#141412"/>
		</linearGradient>
		<rect x="205.4" y="586.4" class="st7" width="1.8" height="1.6"/>
		<linearGradient id="SVGID_8_" gradientUnits="userSpaceOnUse" x1="170.4454" y1="594.332" x2="170.4454" y2="592.1696">
			<stop  offset="0" style="stop-color:#FFFFFF"/>
			<stop  offset="0.17" style="stop-color:#F8F8F5"/>
			<stop  offset="0.427" style="stop-color:#B2B3AD"/>
			<stop  offset="0.4352" style="stop-color:#AFAFAA"/>
			<stop  offset="0.5344" style="stop-color:#8A8B85"/>
			<stop  offset="0.6334" style="stop-color:#6C6C67"/>
			<stop  offset="0.7305" style="stop-color:#52524D"/>
			<stop  offset="0.8252" style="stop-color:#3C3B37"/>
			<stop  offset="0.9163" style="stop-color:#21201D"/>
			<stop  offset="1" style="stop-color:#141412"/>
		</linearGradient>
		<path class="st8" d="M169,592.7c0,0.4,0.1,0.7,0.3,1c0.2,0.3,0.4,0.5,0.8,0.5c0.3,0,0.6-0.1,0.8-0.2c0.3-0.1,0.6-0.4,0.9-0.6v-2.8
			c-1.1,0.2-1.8,0.4-2.2,0.8C169.2,591.7,169,592.1,169,592.7z"/>
		<linearGradient id="SVGID_9_" gradientUnits="userSpaceOnUse" x1="215.6943" y1="589.6969" x2="215.6943" y2="588.3185">
			<stop  offset="0" style="stop-color:#FFFFFF"/>
			<stop  offset="0.17" style="stop-color:#F8F8F5"/>
			<stop  offset="0.427" style="stop-color:#B2B3AD"/>
			<stop  offset="0.4352" style="stop-color:#AFAFAA"/>
			<stop  offset="0.5344" style="stop-color:#8A8B85"/>
			<stop  offset="0.6334" style="stop-color:#6C6C67"/>
			<stop  offset="0.7305" style="stop-color:#52524D"/>
			<stop  offset="0.8252" style="stop-color:#3C3B37"/>
			<stop  offset="0.9163" style="stop-color:#21201D"/>
			<stop  offset="1" style="stop-color:#141412"/>
		</linearGradient>
		<rect x="213.2" y="587.2" class="st9" width="4.9" height="2.3"/>
		<linearGradient id="SVGID_10_" gradientUnits="userSpaceOnUse" x1="205.2256" y1="628.2749" x2="205.2256" y2="600.7347">
			<stop  offset="0" style="stop-color:#FFFFFF"/>
			<stop  offset="0.17" style="stop-color:#F8F8F5"/>
			<stop  offset="0.427" style="stop-color:#B2B3AD"/>
			<stop  offset="0.4352" style="stop-color:#AFAFAA"/>
			<stop  offset="0.5344" style="stop-color:#8A8B85"/>
			<stop  offset="0.6334" style="stop-color:#6C6C67"/>
			<stop  offset="0.7305" style="stop-color:#52524D"/>
			<stop  offset="0.8252" style="stop-color:#3C3B37"/>
			<stop  offset="0.9163" style="stop-color:#21201D"/>
			<stop  offset="1" style="stop-color:#141412"/>
		</linearGradient>
		<path class="st10" d="M263,579.1H126.3c3.4,16.1,8.1,31.6,13.4,46.9h144.5C275.6,611.3,268.5,595.6,263,579.1z M204.7,582.1l1,0.7
			l-0.4,0.4v1.1h1.7l0.4-0.6l0.7,0.8l-0.4,0.4v1.1h0.2l0.5-0.7l0.8,1h-1.5c0,1,0,1.6,0,2l-0.7,0.4v-0.6h-1.8v1.7h1.4l0.5-0.7l0.7,1
			h-2.5v1.6h2.2l0.5-0.8l0.8,1.1h-3.5c0,0.7,0,1.4,0.1,2.2l-0.8,0.4c0-0.9,0.1-1.8,0.1-2.5h-1.9c-0.3,0-0.5,0.1-0.7,0.2l-0.4-0.5h3
			v-1.6h-1.4c-0.3,0-0.4,0.1-0.6,0.2l-0.4-0.5h2.3v-1.7h-1.4c-0.3,0-0.4,0.1-0.6,0.2l-0.4-0.5h2.3v-1.6h-2c-0.2,0-0.4,0.1-0.6,0.2
			l-0.4-0.5h3v-1.5h-1.3c-0.3,0-0.4,0.1-0.6,0.2l-0.4-0.5h2.2C204.8,583.4,204.8,582.7,204.7,582.1z M148.5,594.5h-3.7v-0.4h1.1
			c0.2,0,0.3,0,0.3-0.1c0.1-0.1,0.1-0.2,0.1-0.4v-8.6c0-0.2,0-0.3-0.1-0.4c-0.1-0.1-0.2-0.1-0.3-0.1h-1.1v-0.4h0.5
			c0.3,0,0.6,0,0.8-0.1c0.3-0.1,0.5-0.2,0.7-0.4h0.1v9.9c0,0.2,0,0.3,0.1,0.4c0.1,0.1,0.2,0.1,0.3,0.1h1.1V594.5z M155.2,594.2
			c-0.2,0.2-0.4,0.3-0.6,0.3c-0.2,0-0.4-0.1-0.5-0.2c-0.1-0.1-0.2-0.3-0.3-0.6c-0.3,0.3-0.6,0.5-0.9,0.6c-0.3,0.1-0.6,0.2-1,0.2
			c-0.6,0-1-0.2-1.3-0.5c-0.3-0.3-0.5-0.7-0.5-1.2c0-0.7,0.2-1.3,0.7-1.8c0.5-0.5,1.4-0.8,2.9-1v-0.7c0-0.4-0.1-0.7-0.2-1
			c-0.1-0.3-0.5-0.4-1-0.4c-0.5,0-0.9,0.1-1.1,0.3c-0.2,0.2-0.3,0.5-0.2,0.7c0.1,0.2,0.1,0.3,0,0.5c-0.1,0.2-0.2,0.2-0.4,0.2
			c-0.1,0-0.2-0.1-0.3-0.1c-0.1-0.1-0.1-0.3-0.1-0.5c0-0.4,0.2-0.7,0.6-1c0.4-0.3,0.9-0.5,1.5-0.5c0.6,0,1.1,0.2,1.4,0.5
			c0.3,0.3,0.5,0.7,0.5,1.3v4c0,0.3,0,0.5,0.1,0.6c0,0.1,0.1,0.1,0.3,0.1c0.2,0,0.3-0.1,0.3-0.3c0.1-0.2,0.1-0.4,0.1-0.8h0.2
			C155.4,593.6,155.3,594,155.2,594.2z M161.3,594.5h-2v-0.4h0.2c0.2,0,0.3,0,0.3-0.1c0.1-0.1,0.1-0.2,0.1-0.4v-4
			c0-0.5-0.1-0.9-0.2-1.1c-0.2-0.3-0.4-0.4-0.7-0.4c-0.3,0-0.6,0.1-0.9,0.4c-0.3,0.2-0.6,0.6-0.8,1v4.2c0,0.2,0,0.3,0.1,0.4
			c0.1,0.1,0.2,0.1,0.3,0.1h0.2v0.4h-2v-0.4h0.2c0.2,0,0.3,0,0.3-0.1c0.1-0.1,0.1-0.2,0.1-0.4v-5.2c0-0.1,0-0.2-0.1-0.3
			c0-0.1-0.1-0.1-0.2-0.1H156v-0.4h0.3c0.2,0,0.3,0,0.5-0.1c0.1,0,0.3-0.1,0.4-0.2h0.1v1.4c0.3-0.4,0.6-0.7,0.8-0.9
			c0.3-0.2,0.6-0.3,0.9-0.3c0.5,0,0.9,0.2,1.2,0.5c0.3,0.4,0.4,0.9,0.4,1.6v3.9c0,0.2,0,0.3,0.1,0.4c0.1,0.1,0.2,0.1,0.3,0.1h0.2
			V594.5z M166.3,594c-0.3,0.4-0.6,0.5-1.1,0.5c-0.5,0-0.8-0.2-1.1-0.5c-0.2-0.4-0.4-0.9-0.4-1.7v-4.2h-1.4v-0.4h0.4
			c0.4,0,0.7-0.1,0.9-0.5c0.2-0.3,0.4-0.8,0.5-1.4l0-0.5h0.3v2.3h1.9v0.4h-1.9v4.5c0,0.6,0.1,0.9,0.2,1.1c0.2,0.2,0.4,0.3,0.7,0.3
			c0.3,0,0.6-0.1,0.8-0.4c0.2-0.3,0.3-0.6,0.4-1.1l0.2,0.1C166.8,593.2,166.6,593.7,166.3,594z M173.3,594.2
			c-0.2,0.2-0.4,0.3-0.6,0.3c-0.2,0-0.4-0.1-0.5-0.2c-0.1-0.1-0.2-0.3-0.3-0.6c-0.3,0.3-0.6,0.5-0.9,0.6c-0.3,0.1-0.6,0.2-1,0.2
			c-0.6,0-1-0.2-1.3-0.5c-0.3-0.3-0.5-0.7-0.5-1.2c0-0.7,0.2-1.3,0.7-1.8c0.5-0.5,1.4-0.8,2.9-1v-0.7c0-0.4-0.1-0.7-0.2-1
			c-0.1-0.3-0.5-0.4-1-0.4c-0.5,0-0.9,0.1-1.1,0.3c-0.2,0.2-0.3,0.5-0.2,0.7c0.1,0.2,0.1,0.3,0,0.5c-0.1,0.2-0.2,0.2-0.4,0.2
			c-0.1,0-0.2-0.1-0.3-0.1c-0.1-0.1-0.1-0.3-0.1-0.5c0-0.4,0.2-0.7,0.6-1c0.4-0.3,0.9-0.5,1.5-0.5c0.6,0,1.1,0.2,1.4,0.5
			c0.3,0.3,0.5,0.7,0.5,1.3v4c0,0.3,0,0.5,0.1,0.6c0,0.1,0.1,0.1,0.3,0.1c0.2,0,0.3-0.1,0.3-0.3c0.1-0.2,0.1-0.4,0.1-0.8h0.2
			C173.5,593.6,173.4,594,173.3,594.2z M179.1,589c-0.1,0.1-0.2,0.2-0.3,0.2c-0.2,0-0.3-0.1-0.4-0.2c-0.1-0.1-0.1-0.3-0.1-0.5
			c0-0.1,0-0.2,0-0.3c0-0.1-0.1-0.1-0.3-0.1c-0.2,0-0.5,0.2-0.9,0.6c-0.4,0.4-0.7,1-1,1.7v3.3c0,0.2,0,0.3,0.1,0.4
			c0.1,0.1,0.2,0.1,0.3,0.1h1v0.4h-3.5v-0.4h0.9c0.2,0,0.3,0,0.3-0.1c0.1-0.1,0.1-0.2,0.1-0.4v-5c0-0.2,0-0.3-0.1-0.4
			c-0.1-0.1-0.2-0.1-0.3-0.1h-0.9v-0.4h0.4c0.2,0,0.5,0,0.8-0.1c0.3-0.1,0.5-0.1,0.7-0.2h0.1v2.2c0.3-0.6,0.7-1.1,1-1.5
			c0.4-0.3,0.7-0.5,1.1-0.5c0.3,0,0.6,0.1,0.7,0.3c0.2,0.2,0.3,0.4,0.3,0.6C179.3,588.7,179.2,588.9,179.1,589z M192.4,592.2v2.4
			c0,0.8-0.3,1.4-1,1.7c0-0.6-0.5-1-1.5-1.3v-0.2c0.6,0.1,1.1,0.1,1.4,0.2c0.3,0,0.4-0.2,0.4-0.8v-2h-3.8c-0.3,0-0.7,0.1-0.9,0.2
			l-0.4-0.5h5.1c0-0.5,0-1.1,0-1.7l0.6,0.4l1.3-1.4h-3.9l-0.4,0.2l-0.4-0.5h4.7l0.5-0.6l0.8,1.2c-0.4-0.1-1.3,0.3-2.5,1.3l0.5,0.3
			l-0.5,0.4v0.5h3.2l0.7-0.8l0.9,1.1H192.4z M197.2,588.6c-0.5,0-0.8,0.2-1,0.7c-1.9-1-3.2-2.6-3.8-4.6h-0.3c0,1.9,0,3,0,3.4
			l-0.8,0.2c0-0.9,0.1-2,0.1-3.3c-1,2.2-2.7,3.8-4.9,4.9l0-0.2c2-1.3,3.4-2.9,4.3-5h-2.9c-0.3,0-0.7,0.1-0.9,0.2l-0.4-0.5h4.9
			c0-0.4,0-1.1-0.1-2.2l1.2,0.7l-0.5,0.4v1.1h3.5l0.7-0.8l0.8,1.1h-4.5c0.8,2,2.3,3.2,4.6,3.6V588.6z M209.4,595.1
			c-0.6,0.2-0.9,0.5-0.9,0.9c-0.9,0-1.9,0-3,0c-1.1,0-2.1-0.2-2.8-0.6c-0.8-0.4-1.5-0.8-2-1.4c-0.4,0.8-1.2,1.5-2.2,2.3l-0.1-0.2
			c0.8-0.7,1.5-1.6,2-2.7c-0.5-0.9-0.9-1.9-1.1-3.1l0.2-0.1c0.3,1,0.7,1.8,1.1,2.5c0.3-1,0.5-2.4,0.7-4.1h-1.4l-0.4,0.7l-0.7-0.8
			l0.6-0.3c0.6-1.2,1.1-2.3,1.6-3.5h-1.5l-0.6,0.2l-0.4-0.5h2.5l0.4-0.7l0.7,1l-0.5,0.3c-0.5,1.1-1.1,2.2-1.7,3.4h1.3l0.4-0.5
			l0.7,0.8l-0.4,0.4c-0.2,1.7-0.5,3.1-0.8,4.2c0.4,0.5,0.9,0.9,1.7,1.1c0.7,0.3,1.6,0.5,2.5,0.5c0.9,0.1,2.3,0,4.1-0.1V595.1z
			 M221,595c-0.6,0.1-0.9,0.4-1,1c-0.9-0.4-1.7-0.8-2.3-1.2c-0.6-0.4-1.2-1.1-1.8-1.8c-0.5-0.8-0.9-1.8-1.2-3h-1.5v4.8l2.5-1.4
			l0.1,0.2c-1.6,1.1-2.6,2-2.9,2.5l-0.6-1c0.1-0.2,0.2-0.4,0.2-0.7v-8.7c0-0.6,0-1.2-0.1-1.7l0.7,0.6h2.4c-0.1-0.7-0.3-1.4-0.8-2.1
			l0.1-0.2c0.8,0.4,1.2,0.8,1.3,1.2c0.1,0.4,0,0.7-0.3,1.1h2.1l0.4-0.6l0.8,0.8l-0.4,0.4v3.4c0,0.4,0,1,0,1.6l-0.7,0.3v-0.5H215
			c0.3,1,0.7,1.9,1.3,2.7c1.4-0.8,2.4-1.7,2.9-2.4l0.7,1.2h-0.6c-0.9,0.4-1.9,0.9-2.9,1.4c0.6,0.7,1.4,1.2,2.2,1.5
			c0.8,0.3,1.6,0.5,2.4,0.5V595z"/>
		<linearGradient id="SVGID_11_" gradientUnits="userSpaceOnUse" x1="215.6943" y1="587.0336" x2="215.6943" y2="585.8001">
			<stop  offset="0" style="stop-color:#FFFFFF"/>
			<stop  offset="0.17" style="stop-color:#F8F8F5"/>
			<stop  offset="0.427" style="stop-color:#B2B3AD"/>
			<stop  offset="0.4352" style="stop-color:#AFAFAA"/>
			<stop  offset="0.5344" style="stop-color:#8A8B85"/>
			<stop  offset="0.6334" style="stop-color:#6C6C67"/>
			<stop  offset="0.7305" style="stop-color:#52524D"/>
			<stop  offset="0.8252" style="stop-color:#3C3B37"/>
			<stop  offset="0.9163" style="stop-color:#21201D"/>
			<stop  offset="1" style="stop-color:#141412"/>
		</linearGradient>
		<rect x="213.2" y="584.8" class="st11" width="4.9" height="2.1"/>
		
			<linearGradient id="SVGID_12_" gradientUnits="userSpaceOnUse" x1="76.6096" y1="628.2749" x2="76.6096" y2="600.7347" gradientTransform="matrix(-1 0 0 1 871.5762 0)">
			<stop  offset="0" style="stop-color:#FFFFFF"/>
			<stop  offset="0.17" style="stop-color:#F8F8F5"/>
			<stop  offset="0.427" style="stop-color:#B2B3AD"/>
			<stop  offset="0.4352" style="stop-color:#AFAFAA"/>
			<stop  offset="0.5344" style="stop-color:#8A8B85"/>
			<stop  offset="0.6334" style="stop-color:#6C6C67"/>
			<stop  offset="0.7305" style="stop-color:#52524D"/>
			<stop  offset="0.8252" style="stop-color:#3C3B37"/>
			<stop  offset="0.9163" style="stop-color:#21201D"/>
			<stop  offset="1" style="stop-color:#141412"/>
		</linearGradient>
		<path class="st12" d="M737.1,579.1h136.8c-3.4,16.1-8.1,31.6-13.4,46.9H716C724.6,611.3,731.7,595.6,737.1,579.1z"/>
	</g>
	<path class="st13" d="M880.8,403.5L880.8,403.5c9,30.9,12.9,63,12.9,96.5c0,34.7-5.1,68.2-12.9,100.3H120.5V599h758.9
		c9-32.2,12.9-65.6,12.9-100.3C892.3,465.3,888.5,433.1,880.8,403.5z"/>
	<radialGradient id="SVGID_13_" cx="142.0108" cy="424.6776" r="496.4591" gradientUnits="userSpaceOnUse">
		<stop  offset="0" style="stop-color:#0072BC"/>
		<stop  offset="8.217414e-02" style="stop-color:#0069AF"/>
		<stop  offset="0.1658" style="stop-color:#0065A7"/>
		<stop  offset="0.2416" style="stop-color:#0063A5"/>
		<stop  offset="0.3915" style="stop-color:#005D9B"/>
		<stop  offset="0.6854" style="stop-color:#004C83"/>
		<stop  offset="0.8371" style="stop-color:#004274"/>
		<stop  offset="0.9335" style="stop-color:#004274"/>
		<stop  offset="0.9682" style="stop-color:#004073"/>
		<stop  offset="0.9929" style="stop-color:#003C71"/>
		<stop  offset="1" style="stop-color:#003B70"/>
	</radialGradient>
	<path class="st14" d="M119.3,402.2h761.5c7.7,30.9,11.6,63,11.6,96.5c0,34.7-3.9,68.2-12.9,100.3H120.5
		c-9-32.2-14.1-65.6-14.1-100.3C106.4,465.3,111.5,433.1,119.3,402.2z"/>
	<linearGradient id="SVGID_14_" gradientUnits="userSpaceOnUse" x1="868.0758" y1="319.4604" x2="674.6013" y2="125.9859">
		<stop  offset="5.618000e-03" style="stop-color:#0B0A03"/>
		<stop  offset="0.6461" style="stop-color:#43423F"/>
		<stop  offset="0.6504" style="stop-color:#474643"/>
		<stop  offset="0.655" style="stop-color:#53524F"/>
		<stop  offset="0.6596" style="stop-color:#646561"/>
		<stop  offset="0.6642" style="stop-color:#7B7C77"/>
		<stop  offset="0.6689" style="stop-color:#979894"/>
		<stop  offset="0.6736" style="stop-color:#BCBDB8"/>
		<stop  offset="0.6783" style="stop-color:#E8E8E3"/>
		<stop  offset="0.68" style="stop-color:#FBFBF5"/>
		<stop  offset="0.6824" style="stop-color:#F8F8F2"/>
		<stop  offset="0.6839" style="stop-color:#F1F0EA"/>
		<stop  offset="0.6852" style="stop-color:#E4E4DE"/>
		<stop  offset="0.6864" style="stop-color:#D3D3CD"/>
		<stop  offset="0.6874" style="stop-color:#BDBDB6"/>
		<stop  offset="0.6885" style="stop-color:#A2A29B"/>
		<stop  offset="0.6894" style="stop-color:#84857E"/>
		<stop  offset="0.69" style="stop-color:#6D6E67"/>
		<stop  offset="0.7057" style="stop-color:#5F5F5B"/>
		<stop  offset="0.7315" style="stop-color:#4C4C4A"/>
		<stop  offset="0.7621" style="stop-color:#383837"/>
		<stop  offset="0.7999" style="stop-color:#1E1E1E"/>
		<stop  offset="0.8529" style="stop-color:#070708"/>
		<stop  offset="1" style="stop-color:#000000"/>
	</linearGradient>
	<polygon class="st15" points="790.7,128.3 875.6,213.2 812.6,276.2 816.4,281.3 771.4,317.3 757.3,322.5 849.9,228.6 775.3,154 
		682.7,246.6 686.5,233.7 	"/>
	<radialGradient id="SVGID_15_" cx="852.1681" cy="138.8201" r="207.4757" gradientUnits="userSpaceOnUse">
		<stop  offset="0" style="stop-color:#565651"/>
		<stop  offset="1" style="stop-color:#51514C"/>
	</radialGradient>
	<path class="st16" d="M705.8,119.2c74.6,39.9,135.1,101.6,176.2,174.9V119.2H705.8z"/>
	<path class="st17" d="M705.8,119.2c74.6,39.9,135.1,101.6,176.2,174.9"/>
	<path class="st18" d="M705.8,119.2c73.3,39.9,135.1,101.6,174.9,174.9"/>
	<path class="st19" d="M704.5,119.2c74.6,39.9,135.1,101.6,176.2,176.2"/>
	<path class="st20" d="M704.5,119.2c73.3,41.2,135.1,101.6,174.9,176.2"/>
	<linearGradient id="SVGID_16_" gradientUnits="userSpaceOnUse" x1="703.241" y1="117.3165" x2="884.6115" y2="117.3165">
		<stop  offset="0" style="stop-color:#5C5D60"/>
		<stop  offset="1.919609e-02" style="stop-color:#5A5B5C"/>
		<stop  offset="0.2048" style="stop-color:#474644"/>
		<stop  offset="0.4097" style="stop-color:#31302E"/>
		<stop  offset="0.6486" style="stop-color:#1C1C19"/>
		<stop  offset="1" style="stop-color:#141412"/>
	</linearGradient>
	<path class="st21" d="M882,115.4c1.3,0,2.6,1.3,2.6,3.9l0,0H705.8h-2.6c0-2.6,1.3-3.9,2.6-3.9H882z"/>
	<linearGradient id="SVGID_17_" gradientUnits="userSpaceOnUse" x1="882.6837" y1="298.0487" x2="882.6837" y2="115.3887">
		<stop  offset="0" style="stop-color:#5C5D60"/>
		<stop  offset="0.3855" style="stop-color:#444341"/>
		<stop  offset="0.7416" style="stop-color:#252522"/>
		<stop  offset="1" style="stop-color:#141412"/>
	</linearGradient>
	<path class="st22" d="M884.6,294.2c0,2.6-1.3,3.9-2.6,3.9l-1.3-2.6V115.4c0,0,0,0,1.3,0c1.3,0,2.6,1.3,2.6,3.9V294.2z"/>
	<g>
		<path class="st23" d="M775.3,547.6c-34.1,0-61.8-20.8-61.8-46.3c0-25.6,27.7-46.3,61.8-46.3c34.8,0,63.1,20.8,63.1,46.3
			C838.3,526.8,810,547.6,775.3,547.6z M775.3,467.9c-12.7,0-21.8,14.1-21.8,33.4c0,18.3,9.4,32.1,21.8,32.1
			c11.8,0,21.8-14.7,21.8-32.1C797.1,482.9,787.3,467.9,775.3,467.9z M384.2,547.6c-34.1,0-61.8-20.8-61.8-46.3
			c0-24.4,28.3-45.1,61.8-45.1c16.7,0,32.6,4.7,44.6,13.4c11.9,8.6,18.5,19.8,18.5,31.7C447.3,526.8,419,547.6,384.2,547.6z
			 M384.2,469.2c-12.5,0-21.8,13.8-21.8,32.1c0,18.3,9.4,32.1,21.8,32.1c11.8,0,21.8-14.7,21.8-32.1
			C406.1,483.9,396.1,469.2,384.2,469.2z M613.2,545l-39.9-74.6l-20.6,0l0-11.6l87.5,0l0,11.6l-21.9,0l30.9,52.7l27-52.7l-15.4,0
			l0-11.6l60.5,0l0,11.6l-20.6,0L660.8,545H613.2z M452.4,545l0-14.2l20.6,0l0-60.4l-20.5,0l0-11.6l81.1,0l0,11.6l-20.6,0l0,60.4
			l21.8,0c7.1,0,25.7-4.6,27-25.7l12.9,0l0,39.9H452.4z M222.2,545l-39.9-74.6l-20.6,0l0-11.6l87.5,0l0,11.6l-21.9,0l30.9,52.7
			l28.2-52.7l-16.7,0l0-11.6l60.5,0l0,11.6l-20.6,0L269.8,545H222.2z"/>
		<path class="st24" d="M775.3,455c34.7,0,63,20.6,63,46.3c0,25.7-28.3,46.3-63,46.3c-33.4,0-61.7-20.6-61.7-46.3
			C713.5,475.6,741.8,455,775.3,455 M775.3,533.4c11.6,0,21.9-14.1,21.9-32.2c0-19.3-10.3-33.4-21.9-33.4
			c-12.9,0-21.9,14.1-21.9,33.4C753.4,519.3,762.4,533.4,775.3,533.4 M384.2,456.3c34.7,0,63,20.6,63,45c0,25.7-28.3,46.3-63,46.3
			c-33.4,0-61.7-20.6-61.7-46.3C322.5,476.8,350.8,456.3,384.2,456.3 M384.2,533.4c11.6,0,21.9-14.1,21.9-32.2
			c0-18-10.3-32.2-21.9-32.2c-12.9,0-21.9,14.2-21.9,32.2C362.4,519.3,371.4,533.4,384.2,533.4 M721.2,458.8v11.6h-20.6L660.8,545
			h-47.6l-39.9-74.6h-20.6v-11.6h87.5v11.6h-21.9l30.9,52.7l27-52.7h-15.4v-11.6H721.2 M533.4,458.8v11.6h-20.6v60.5
			c0,0,14.1,0,21.9,0c7.7,0,25.7-5.1,27-25.7c10.3,0,12.9,0,12.9,0V545H473h-20.6v-14.2H473v-60.5h-20.6v-11.6H533.4 M330.2,458.8
			v11.6h-20.6L269.7,545h-47.6l-39.9-74.6h-20.6v-11.6h87.5v11.6h-21.9l30.9,52.7l28.3-52.7h-16.7v-11.6H330.2 M775.3,454.9
			c-8.2,0-16.2,1.2-23.8,3.6c-7.3,2.3-14,5.7-19.7,9.9c-5.7,4.3-10.2,9.2-13.4,14.7c-3.3,5.7-5,11.8-5,18.1c0,6.3,1.7,12.4,5,18.1
			c3.2,5.5,7.7,10.5,13.4,14.7c5.7,4.2,12.3,7.6,19.7,9.9c7.6,2.4,15.6,3.6,23.8,3.6c16.8,0,32.7-4.8,44.6-13.5
			c11.9-8.7,18.5-20.4,18.5-32.8c0-12.4-6.6-24.1-18.5-32.9C807.9,459.7,792.1,454.9,775.3,454.9L775.3,454.9z M775.3,533.4
			c-6.1,0-11.7-3.3-15.7-9.3c-3.9-5.9-6.1-14-6.1-22.8c0-9.4,2.2-17.9,6.1-23.9c4-6.1,9.5-9.5,15.7-9.5c5.6,0,11.2,3.4,15.2,9.5
			c4.2,6.3,6.6,14.8,6.6,23.9c0,8.6-2.3,16.7-6.6,22.8C786.4,530,780.8,533.4,775.3,533.4L775.3,533.4z M384.2,456.2
			c-33.5,0-61.8,20.6-61.8,45.1c0,6.3,1.7,12.4,5,18.1c3.2,5.5,7.7,10.5,13.4,14.7c5.7,4.2,12.3,7.6,19.7,9.9
			c7.6,2.4,15.6,3.6,23.8,3.6c16.8,0,32.7-4.8,44.6-13.5c11.9-8.7,18.5-20.4,18.5-32.8c0-6-1.7-11.8-5-17.4
			c-3.2-5.4-7.7-10.2-13.5-14.3c-5.8-4.2-12.6-7.5-20.1-9.8C401,457.4,392.7,456.2,384.2,456.2L384.2,456.2z M384.2,533.4
			c-6.1,0-11.7-3.3-15.7-9.3c-3.9-5.9-6.1-14-6.1-22.8c0-8.8,2.2-16.9,6.1-22.8c4-6,9.6-9.3,15.7-9.3c5.6,0,11.1,3.4,15.2,9.3
			c4.2,6.1,6.6,14.2,6.6,22.8s-2.3,16.7-6.6,22.8C395.4,530,389.8,533.4,384.2,533.4L384.2,533.4z M721.3,458.8L721.3,458.8h-60.5
			h-0.1v0.1v11.6v0.1h0.1h15.3L649.2,523l-30.8-52.6h21.8h0.1v-0.1v-11.6v-0.1h-0.1h-87.5h-0.1v0.1v11.6v0.1h0.1h20.5l39.9,74.6l0,0
			h0h47.6h0l0,0l39.9-74.6h20.5h0.1v-0.1V458.8L721.3,458.8L721.3,458.8z M533.5,458.8L533.5,458.8h-81.1h-0.1v0.1v11.6v0.1h0.1
			h20.5v60.3h-20.5h-0.1v0.1V545v0.1h0.1H473h101.6h0.1V545v-39.9v-0.1h-0.1h-12.9h-0.1l0,0.1c-0.6,8.9-4.4,16-11.1,20.5
			c-5.5,3.8-11.8,5.1-15.9,5.1h-21.8v-60.3h20.5h0.1v-0.1V458.8L533.5,458.8L533.5,458.8z M330.3,458.8L330.3,458.8h-60.5h-0.1v0.1
			v11.6v0.1h0.1h16.6L258.2,523l-30.8-52.6h21.8h0.1v-0.1v-11.6v-0.1h-0.1h-87.5h-0.1v0.1v11.6v0.1h0.1h20.5l39.9,74.6l0,0h0h47.6h0
			l0,0l39.9-74.6h20.6h0.1v-0.1V458.8L330.3,458.8L330.3,458.8z"/>
	</g>
	<linearGradient id="SVGID_18_" gradientUnits="userSpaceOnUse" x1="211.5451" y1="342.0889" x2="327.6777" y2="499.1626">
		<stop  offset="0" style="stop-color:#FFFFFF"/>
		<stop  offset="0.1091" style="stop-color:#D3DEF2"/>
		<stop  offset="0.3376" style="stop-color:#89AEDC"/>
		<stop  offset="0.5419" style="stop-color:#4E90CD"/>
		<stop  offset="0.7143" style="stop-color:#007EC3"/>
		<stop  offset="0.8481" style="stop-color:#0075BE"/>
		<stop  offset="0.927" style="stop-color:#0072BC"/>
		<stop  offset="0.9468" style="stop-color:#007AC0"/>
		<stop  offset="0.9667" style="stop-color:#3581C3"/>
		<stop  offset="0.985" style="stop-color:#4A86C6"/>
		<stop  offset="1" style="stop-color:#5087C7"/>
	</linearGradient>
	<path class="st25" d="M120.6,403.7c-7.7,30.9-12.9,63-12.9,96.5c0,2.8,1,19.2,1,21.9l2.2,24.8c0-2-1-42.5-1-44.5
		c0-33.4,5.6-64.5,13.3-95.3l269.5-1.1l116.3-2.2H120.6z"/>
</g>
</svg>
